<svg width="31" height="31" viewBox="0 0 31 31" fill="none" xmlns="http://www.w3.org/2000/svg">
<path d="M17.4324 25.9712C23.2472 26.4329 28 21.2766 28 15.4856C28 9.69456 23.2687 5 17.4324 5C11.5961 5 6.86486 9.69456 6.86486 15.4856C6.86486 16.9974 7.18733 18.4345 7.76773 19.7329C7.89903 20.0266 7.90067 20.3648 7.75282 20.6505L5.4757 25.0517C5.28346 25.4233 5.60535 25.8526 6.0159 25.7722L11.6177 24.6749C12.3132 24.5386 13.0309 24.593 13.6898 24.854C14.8956 25.3317 16.5069 25.9712 17.4324 25.9712Z" stroke="#ACACAC" stroke-width="1.5"/>
<line x1="13.75" y1="13.25" x2="21.25" y2="13.25" stroke="#ACACAC" stroke-width="1.5" stroke-linecap="round"/>
<path d="M14 18H21" stroke="#ACACAC" stroke-width="1.5" stroke-linecap="round"/>
</svg>
