<svg width="22" height="22" viewBox="0 0 22 22" fill="none" xmlns="http://www.w3.org/2000/svg">
<rect width="22" height="22" rx="11" fill="#C2C2C2"/>
<path fill-rule="evenodd" clip-rule="evenodd" d="M6.19887 10.3074L10.5199 6.18952C10.785 5.93683 11.215 5.93683 11.4801 6.18952L15.8011 10.3074C16.0663 10.5601 16.0663 10.9698 15.8011 11.2225C15.536 11.4751 15.1061 11.4751 14.8409 11.2225L11.679 8.2092L11.679 16.321C11.679 16.696 11.375 17 11 17C10.625 17 10.321 16.696 10.321 16.321L10.321 8.2092L7.1591 11.2225C6.89394 11.4751 6.46403 11.4751 6.19887 11.2225C5.93371 10.9698 5.93371 10.5601 6.19887 10.3074Z" fill="white"/>
</svg>
