<svg width="27" height="27" viewBox="0 0 27 27" fill="none" xmlns="http://www.w3.org/2000/svg">
<path d="M6 4C4.89543 4 4 4.89543 4 6V11C4 12.1046 4.89543 13 6 13H11C12.1046 13 13 12.1046 13 11V6C13 4.89543 12.1046 4 11 4H6Z" fill="#FF5722"/>
<path d="M15 6C15 4.89543 15.8954 4 17 4H22C23.1046 4 24 4.89543 24 6V11C24 12.1046 23.1046 13 22 13H17C15.8954 13 15 12.1046 15 11V6Z" fill="#FF5722"/>
<path d="M15 17C15 15.8954 15.8954 15 17 15H22C23.1046 15 24 15.8954 24 17V22C24 23.1046 23.1046 24 22 24H17C15.8954 24 15 23.1046 15 22V17Z" fill="#FF5722"/>
<path d="M4 17C4 15.8954 4.89543 15 6 15H11C12.1046 15 13 15.8954 13 17V22C13 23.1046 12.1046 24 11 24H6C4.89543 24 4 23.1046 4 22V17Z" fill="#FF5722"/>
</svg>
