<svg width="10" height="10" viewBox="0 0 10 10" fill="none" xmlns="http://www.w3.org/2000/svg">
<rect width="10" height="10" fill="white"/>
<path d="M1 5C1.34754 3.29333 3.00647 2 5 2C6.99353 2 8.65209 3.29333 9 5C8.65246 6.70667 6.99353 8 5 8C3.00647 8 1.34791 6.70667 1 5V5ZM5 6.66667C5.49028 6.66667 5.96048 6.49107 6.30716 6.17851C6.65384 5.86595 6.8486 5.44203 6.8486 5C6.8486 4.55797 6.65384 4.13405 6.30716 3.82149C5.96048 3.50893 5.49028 3.33333 5 3.33333C4.50972 3.33333 4.03952 3.50893 3.69284 3.82149C3.34616 4.13405 3.1514 4.55797 3.1514 5C3.1514 5.44203 3.34616 5.86595 3.69284 6.17851C4.03952 6.49107 4.50972 6.66667 5 6.66667ZM5 6C4.70583 6 4.42371 5.89464 4.21571 5.70711C4.0077 5.51957 3.89084 5.26522 3.89084 5C3.89084 4.73478 4.0077 4.48043 4.21571 4.29289C4.42371 4.10536 4.70583 4 5 4C5.29417 4 5.57629 4.10536 5.78429 4.29289C5.9923 4.48043 6.10916 4.73478 6.10916 5C6.10916 5.26522 5.9923 5.51957 5.78429 5.70711C5.57629 5.89464 5.29417 6 5 6Z" fill="#222222"/>
</svg>
