<svg width="51" height="51" viewBox="0 0 51 51" fill="none" xmlns="http://www.w3.org/2000/svg">
<path d="M0 6C0 2.68629 2.68629 0 6 0H45C48.3137 0 51 2.68629 51 6V45C51 48.3137 48.3137 51 45 51H6C2.68629 51 0 48.3137 0 45V6Z" fill="#0062E0"/>
<path d="M31.8837 27.4782L32.7211 22.6088H27.7907V19.2175C27.7907 17.8263 28.3492 16.7828 30.5815 16.7828H33V12.3481C31.6979 12.174 30.2095 12 28.907 12C24.6278 12 21.6512 14.4351 21.6512 18.7828V22.6088H17V27.4782H21.6508V40C21.8889 40 23.6973 40 24.7209 40C25.7438 40 27.7903 40 27.7903 40V27.4782H31.8837Z" fill="white"/>
</svg>
