<svg width="51" height="51" viewBox="0 0 51 51" fill="none" xmlns="http://www.w3.org/2000/svg">
<rect width="51" height="51" rx="6" fill="url(#paint0_linear_1380_17619)"/>
<mask id="mask0_1380_17619" style="mask-type:alpha" maskUnits="userSpaceOnUse" x="0" y="0" width="51" height="51">
<rect width="51" height="51" rx="6" fill="url(#paint1_linear_1380_17619)"/>
</mask>
<g mask="url(#mask0_1380_17619)">
<path d="M31.8837 27.4782L32.7211 22.6088H27.7907V19.2175C27.7907 17.8263 28.3492 16.7828 30.5815 16.7828H33V12.3481C31.6979 12.174 30.2095 12 28.907 12C24.6278 12 21.6512 14.4351 21.6512 18.7828V22.6088H17V27.4782H21.6508V40C21.8889 40 23.6973 40 24.7209 40C25.7438 40 27.7903 40 27.7903 40V27.4782H31.8837Z" fill="white"/>
</g>
<defs>
<linearGradient id="paint0_linear_1380_17619" x1="25.501" y1="49.4639" x2="25.501" y2="-0.0292141" gradientUnits="userSpaceOnUse">
<stop stop-color="#0062E0"/>
<stop offset="1" stop-color="#19AFFF"/>
</linearGradient>
<linearGradient id="paint1_linear_1380_17619" x1="25.501" y1="49.4639" x2="25.501" y2="-0.0292141" gradientUnits="userSpaceOnUse">
<stop stop-color="#0062E0"/>
<stop offset="1" stop-color="#19AFFF"/>
</linearGradient>
</defs>
</svg>
