<svg width="27" height="27" viewBox="0 0 27 27" fill="none" xmlns="http://www.w3.org/2000/svg">
<mask id="path-1-inside-1_313_8426" fill="white">
<path d="M4.55556 15.7664C4.24988 15.9563 4.15002 16.3545 4.32995 16.6661L6.18125 19.8727C6.36113 20.1842 6.75978 20.2906 7.07094 20.11C8.77202 19.1228 10.9111 20.3075 10.9768 22.2732L10.98 22.3697C10.992 22.728 11.2859 23.0123 11.6444 23.0123L15.3489 23.0123C15.7092 23.0123 16.001 22.72 16.0005 22.3598C15.9977 20.3518 18.1745 19.097 19.9134 20.101C20.2254 20.2811 20.6248 20.1745 20.8049 19.8625L22.6569 16.6548C22.8362 16.3442 22.7361 15.9474 22.431 15.759L22.3524 15.7105C20.6806 14.6784 20.716 12.2354 22.4169 11.2521C22.7273 11.0727 22.8335 10.6757 22.6543 10.3653L20.8025 7.15792C20.6228 6.84673 20.2268 6.73706 19.9127 6.91151L19.8622 6.93955C18.128 7.9025 15.9977 6.64668 16.0005 4.6631C16.001 4.3038 15.7099 4.01227 15.3506 4.01227L11.6503 4.01227C11.2919 4.01227 11.0014 4.30273 11.0013 4.66111C11.0007 6.62377 8.90641 7.87605 7.17717 6.94772L7.09118 6.90156C6.77529 6.73197 6.38183 6.84395 6.20256 7.15444L4.34862 10.3656C4.16949 10.6758 4.27579 11.0726 4.58605 11.2517C6.28386 12.2319 6.3231 14.6686 4.65774 15.703L4.55556 15.7664Z"/>
</mask>
<path d="M4.65774 15.703L5.713 17.4019L4.65774 15.703ZM11.6444 23.0123L11.6444 25.0123L11.6444 23.0123ZM10.9768 22.2732L12.9757 22.2065L10.9768 22.2732ZM6.18125 19.8727L7.9133 18.8727L6.18125 19.8727ZM4.32995 16.6661L2.5979 17.6661L4.32995 16.6661ZM4.55556 15.7664L5.61082 17.4654L4.55556 15.7664ZM7.17717 6.94772L8.12316 5.18559L7.17717 6.94772ZM4.34862 10.3656L6.08067 11.3656L4.34862 10.3656ZM6.20256 7.15444L7.93461 8.15444L6.20256 7.15444ZM7.09118 6.90156L8.03717 5.13942L7.09118 6.90156ZM20.8025 7.15792L19.0704 8.15792L20.8025 7.15792ZM19.9127 6.91151L18.9418 5.16299L19.9127 6.91151ZM22.6543 10.3653L20.9222 11.3653L22.6543 10.3653ZM22.431 15.759L21.3803 17.4608L22.431 15.759ZM20.8049 19.8625L22.5369 20.8625L20.8049 19.8625ZM15.3489 23.0123L15.349 21.0123L15.3489 23.0123ZM20.9248 15.6548L19.0728 18.8625L22.5369 20.8625L24.3889 17.6548L20.9248 15.6548ZM19.0704 8.15792L20.9222 11.3653L24.3863 9.36531L22.5345 6.15792L19.0704 8.15792ZM11.6503 6.01227L15.3506 6.01227L15.3506 2.01227L11.6503 2.01227L11.6503 6.01227ZM6.08067 11.3656L7.93461 8.15444L4.47051 6.15444L2.61657 9.36557L6.08067 11.3656ZM7.9133 18.8727L6.062 15.6661L2.5979 17.6661L4.4492 20.8727L7.9133 18.8727ZM12.9789 22.3029L12.9757 22.2065L8.97789 22.3399L8.98111 22.4364L12.9789 22.3029ZM15.349 21.0123L11.6444 21.0123L11.6444 25.0123L15.3489 25.0123L15.349 21.0123ZM5.61082 17.4654L5.713 17.4019L3.60248 14.004L3.5003 14.0675L5.61082 17.4654ZM6.14519 8.66369L6.23119 8.70985L8.12316 5.18559L8.03717 5.13942L6.14519 8.66369ZM20.8331 8.68806L20.8836 8.66002L18.9418 5.16299L18.8913 5.19103L20.8331 8.68806ZM21.3017 17.4123L21.3803 17.4608L23.4816 14.0572L23.4031 14.0087L21.3017 17.4123ZM23.4031 14.0087C23.0187 13.7714 23.0268 13.2097 23.4179 12.9836L21.416 9.5206C18.4051 11.2612 18.3425 15.5853 21.3017 17.4123L23.4031 14.0087ZM18.8913 5.19103C18.4913 5.41315 17.9999 5.12348 18.0005 4.66594L14.0005 4.66026C13.9955 8.16988 17.7648 10.3919 20.8331 8.68806L18.8913 5.19103ZM3.58605 12.9837C3.97521 13.2084 3.9842 13.7669 3.60248 14.004L5.713 17.4019C8.66201 15.5702 8.59252 11.2554 5.58606 9.51964L3.58605 12.9837ZM8.98111 22.4364C9.02906 23.8727 10.2073 25.0123 11.6444 25.0123L11.6444 21.0123C12.3645 21.0123 12.9549 21.5833 12.9789 22.3029L8.98111 22.4364ZM8.07483 21.8398C8.46813 21.6115 8.96271 21.8855 8.97789 22.3399L12.9757 22.2065C12.8596 18.7296 9.07591 16.634 6.06705 18.3802L8.07483 21.8398ZM4.4492 20.8727C5.18224 22.1423 6.80681 22.5757 8.07483 21.8398L6.06705 18.3802C6.71276 18.0055 7.54002 18.2261 7.9133 18.8727L4.4492 20.8727ZM6.062 15.6661C6.42183 16.2894 6.22214 17.0857 5.61082 17.4654L3.5003 14.0675C2.27761 14.8269 1.87823 16.4196 2.5979 17.6661L6.062 15.6661ZM9.00126 4.66053C9.00113 5.1112 8.52023 5.39875 8.12316 5.18559L6.23119 8.70985C9.29258 10.3533 13.0003 8.13634 13.0013 4.66169L9.00126 4.66053ZM2.61657 9.36557C1.88516 10.6324 2.31921 12.2523 3.58605 12.9837L5.58606 9.51964C6.23238 9.89279 6.45383 10.7192 6.08067 11.3656L2.61657 9.36557ZM7.93461 8.15444C7.57363 8.77969 6.7813 9.00518 6.14519 8.66369L8.03717 5.13942C6.76929 4.45877 5.19003 4.90821 4.47051 6.15444L7.93461 8.15444ZM11.6503 2.01227C10.1876 2.01227 9.00169 3.19781 9.00126 4.66053L13.0013 4.66169C13.001 5.40766 12.3963 6.01227 11.6503 6.01227L11.6503 2.01227ZM15.3506 6.01227C14.6042 6.01227 13.9995 5.40664 14.0005 4.66026L18.0005 4.66594C18.0026 3.20097 16.8156 2.01227 15.3506 2.01227L15.3506 6.01227ZM22.5345 6.15792C21.8091 4.90142 20.2102 4.45865 18.9418 5.16299L20.8836 8.66002C20.2435 9.01548 19.4366 8.79203 19.0704 8.15792L22.5345 6.15792ZM20.9222 11.3653C20.5494 10.7195 20.7704 9.8938 21.416 9.5206L23.4179 12.9836C24.6841 12.2516 25.1176 10.6319 24.3863 9.36531L20.9222 11.3653ZM24.3889 17.6548C25.109 16.4075 24.7071 14.8138 23.4816 14.0572L21.3803 17.4608C20.7651 17.081 20.5633 16.2809 20.9248 15.6548L24.3889 17.6548ZM18.9134 21.833C20.18 22.5643 21.8034 22.133 22.5369 20.8625L19.0728 18.8625C19.4461 18.2159 20.2707 17.9978 20.9134 18.3689L18.9134 21.833ZM18.0005 22.357C17.9999 21.895 18.5045 21.5969 18.9134 21.833L20.9134 18.3689C17.8445 16.597 13.9956 18.8087 14.0005 22.3626L18.0005 22.357ZM14.0005 22.3626C13.9995 21.6172 14.6035 21.0123 15.349 21.0123L15.3489 25.0123C16.8148 25.0123 18.0026 23.8229 18.0005 22.357L14.0005 22.3626Z" fill="#868686" mask="url(#path-1-inside-1_313_8426)"/>
<circle cx="13.5" cy="13.5" r="2.5" stroke="#868686" stroke-width="2"/>
</svg>
