<svg width="27" height="27" viewBox="0 0 27 27" fill="none" xmlns="http://www.w3.org/2000/svg">
<path d="M16.7012 7.79439C16.4044 8.26508 16.5402 8.88264 17.0046 9.17376C17.469 9.46488 18.086 9.31931 18.3828 8.84863L16.7012 7.79439ZM20.4773 5.52712C20.7741 5.05644 20.6383 4.43887 20.1739 4.14775C19.7095 3.85663 19.0924 4.0022 18.7956 4.47288L20.4773 5.52712ZM19.055 10.3069C18.6071 10.6361 18.5044 11.2636 18.8255 11.7085C19.1467 12.1534 19.7701 12.2473 20.218 11.9182L19.055 10.3069ZM23.5644 9.45917C24.0123 9.13005 24.115 8.50255 23.7938 8.05761C23.4727 7.61267 22.8492 7.51878 22.4014 7.8479L23.5644 9.45917ZM21.106 13.2638C20.5559 13.2379 20.0825 13.6651 20.0486 14.2179C20.0147 14.7708 20.4331 15.2399 20.9832 15.2658L21.106 13.2638ZM24.1248 15.4135C24.6749 15.4394 25.1483 15.0122 25.1822 14.4594C25.2161 13.9065 24.7977 13.4374 24.2476 13.4115L24.1248 15.4135ZM18.3828 8.84863L20.4773 5.52712L18.7956 4.47288L16.7012 7.79439L18.3828 8.84863ZM20.218 11.9182L23.5644 9.45917L22.4014 7.8479L19.055 10.3069L20.218 11.9182ZM20.9832 15.2658L24.1248 15.4135L24.2476 13.4115L21.106 13.2638L20.9832 15.2658Z" fill="#868686"/>
<path d="M4.87167 17.8375L5.52743 18.5817L5.55642 18.5559L5.58338 18.528L4.87167 17.8375ZM6.85728 21.6058L6.55724 20.6554L6.51352 20.67L6.47125 20.6885L6.85728 21.6058ZM18.0272 17.1585L19.0183 17.0235L18.0272 17.1585ZM13.6502 9.8388L13.0261 10.6309L13.6502 9.8388ZM4.21591 17.0932C3.8462 17.4226 3.37751 17.998 3.12755 18.7222C2.86395 19.486 2.84162 20.4452 3.46799 21.3545L5.11608 20.1966C4.91559 19.9055 4.91421 19.6353 5.01271 19.35C5.12485 19.025 5.35941 18.7315 5.52743 18.5817L4.21591 17.0932ZM3.46799 21.3545C4.64743 23.0667 6.45186 22.8694 7.24331 22.5232L6.47125 20.6885C6.38166 20.7277 6.14798 20.7857 5.88539 20.7384C5.65715 20.6973 5.37533 20.5729 5.11608 20.1966L3.46799 21.3545ZM19.0183 17.0235C18.885 15.9023 18.4286 14.0193 17.5027 12.49L15.7921 13.5512C16.5304 14.7707 16.9249 16.3592 17.0361 17.2935L19.0183 17.0235ZM17.5027 12.49C16.6131 11.0208 15.2192 9.79086 14.2744 9.04672L13.0261 10.6309C13.9214 11.336 15.0892 12.3904 15.7921 13.5512L17.5027 12.49ZM11.7071 9.31853L4.15996 17.147L5.58338 18.528L13.1306 10.6995L11.7071 9.31853ZM6.85728 21.6058C7.15731 22.5562 7.15734 22.5562 7.15739 22.5562C7.15745 22.5562 7.15753 22.5562 7.15763 22.5561C7.15784 22.556 7.15815 22.5559 7.15856 22.5558C7.15939 22.5555 7.16062 22.5551 7.16225 22.5546C7.16551 22.5535 7.17038 22.5519 7.17683 22.5497C7.18971 22.5454 7.20888 22.539 7.23403 22.5307C7.28435 22.5139 7.35863 22.4892 7.45456 22.4572C7.64641 22.3932 7.92485 22.3003 8.27128 22.1847C8.96413 21.9533 9.92902 21.6307 11.0173 21.2657C13.1929 20.5358 15.8645 19.6354 17.8404 18.9556L17.2213 17.0613C15.2532 17.7384 12.588 18.6367 10.4128 19.3663C9.32569 19.731 8.3617 20.0533 7.66951 20.2844C7.32342 20.4 7.0453 20.4928 6.85372 20.5566C6.75794 20.5886 6.68379 20.6133 6.6336 20.63C6.60851 20.6383 6.5894 20.6447 6.57658 20.649C6.57017 20.6511 6.56533 20.6527 6.56209 20.6538C6.56048 20.6543 6.55926 20.6547 6.55845 20.655C6.55805 20.6551 6.55774 20.6552 6.55754 20.6553C6.55744 20.6553 6.55737 20.6554 6.55732 20.6554C6.55727 20.6554 6.55724 20.6554 6.85728 21.6058ZM12.4188 10.009C11.4259 10.1276 11.4259 10.128 11.426 10.1284C11.426 10.1285 11.426 10.129 11.4261 10.1293C11.4261 10.1299 11.4262 10.1307 11.4263 10.1315C11.4265 10.1331 11.4267 10.1352 11.4269 10.1376C11.4275 10.1423 11.4282 10.1486 11.429 10.1563C11.4308 10.1716 11.4333 10.1927 11.4366 10.2191C11.4432 10.272 11.4532 10.3466 11.4675 10.4403C11.4959 10.6276 11.5412 10.8921 11.61 11.2134C11.7473 11.8541 11.9804 12.7311 12.3658 13.6768C13.1278 15.5466 14.5423 17.8197 17.125 18.9303L17.9367 17.0865C16.028 16.2657 14.8865 14.539 14.2153 12.892C13.8841 12.0793 13.6814 11.3186 13.562 10.7612C13.5025 10.4835 13.4642 10.2588 13.4411 10.1067C13.4296 10.0307 13.4219 9.97306 13.4172 9.93614C13.4149 9.91769 13.4134 9.90444 13.4125 9.89671C13.4121 9.89285 13.4118 9.89037 13.4117 9.8893C13.4116 9.88877 13.4116 9.88859 13.4116 9.88877C13.4116 9.88887 13.4116 9.88905 13.4117 9.88932C13.4117 9.88945 13.4117 9.88973 13.4117 9.88979C13.4118 9.89009 13.4118 9.89041 12.4188 10.009ZM17.0361 17.2935C17.0361 17.2935 17.0358 17.2913 17.0359 17.287C17.036 17.2828 17.0365 17.2763 17.0381 17.2678C17.0413 17.2506 17.0488 17.2253 17.0654 17.1959C17.0823 17.1659 17.1064 17.1358 17.1372 17.1102C17.1682 17.0843 17.1985 17.0691 17.2213 17.0613L17.8404 18.9556C18.7327 18.6486 19.1095 17.7899 19.0183 17.0235L17.0361 17.2935ZM14.2744 9.04672C13.4439 8.3927 12.2705 8.59539 11.6399 9.39558L13.1978 10.6225C13.1835 10.6406 13.1596 10.6554 13.1304 10.6596C13.0991 10.664 13.058 10.656 13.0261 10.6309L14.2744 9.04672Z" fill="#868686"/>
</svg>
