<svg fill="none" height="44" viewBox="0 0 44 44" width="44" xmlns="http://www.w3.org/2000/svg">
    <path
        d="M0 22C0 9.84974 9.84974 0 22 0C34.1503 0 44 9.84974 44 22C44 34.1503 34.1503 44 22 44C9.84974 44 0 34.1503 0 22Z"
        fill="white" />
    <path
        d="M13.39 15.14H16.954L21.948 29H18.406L17.46 26.03H12.796L11.85 29H8.352L13.39 15.14ZM13.522 23.61H16.69L16.162 21.938C15.986 21.3953 15.8027 20.816 15.612 20.2C15.436 19.584 15.282 19.0193 15.15 18.506H15.106C14.9593 19.0193 14.7907 19.5767 14.6 20.178C14.4093 20.7793 14.226 21.366 14.05 21.938L13.522 23.61Z"
        fill="#FF5722" />
    <path
        d="M28.7536 15.14C29.8536 15.14 30.8509 15.2793 31.7456 15.558C32.6402 15.8367 33.4029 16.2547 34.0336 16.812C34.6789 17.3693 35.1702 18.066 35.5076 18.902C35.8596 19.7233 36.0356 20.684 36.0356 21.784C36.0356 23.016 35.8302 24.0867 35.4196 24.996C35.0089 25.8907 34.4442 26.6387 33.7256 27.24C33.0216 27.8267 32.1929 28.2667 31.2396 28.56C30.2862 28.8533 29.2742 29 28.2036 29H23.8036V15.14H28.7536ZM27.1476 26.448H28.0056C28.5922 26.448 29.1569 26.3747 29.6996 26.228C30.2569 26.0813 30.7409 25.832 31.1516 25.48C31.5622 25.1133 31.8922 24.6293 32.1416 24.028C32.3909 23.4267 32.5156 22.6787 32.5156 21.784C32.5156 20.4493 32.1416 19.4373 31.3936 18.748C30.6456 18.044 29.6336 17.692 28.3576 17.692H27.1476V26.448Z"
        fill="#FF5722" />
</svg>
