<svg fill="none" height="27" viewBox="0 0 27 27" width="27" xmlns="http://www.w3.org/2000/svg">
    <path clip-rule="evenodd"
        d="M11 6H6L6 11H11V6ZM6 4C4.89543 4 4 4.89543 4 6V11C4 12.1046 4.89543 13 6 13H11C12.1046 13 13 12.1046 13 11V6C13 4.89543 12.1046 4 11 4H6Z"
        fill="#868686" fill-rule="evenodd" />
    <path clip-rule="evenodd"
        d="M11 17H6L6 22H11V17ZM6 15C4.89543 15 4 15.8954 4 17V22C4 23.1046 4.89543 24 6 24H11C12.1046 24 13 23.1046 13 22V17C13 15.8954 12.1046 15 11 15H6Z"
        fill="#868686" fill-rule="evenodd" />
    <path clip-rule="evenodd"
        d="M22 6H17V11H22V6ZM17 4C15.8954 4 15 4.89543 15 6V11C15 12.1046 15.8954 13 17 13H22C23.1046 13 24 12.1046 24 11V6C24 4.89543 23.1046 4 22 4H17Z"
        fill="#868686" fill-rule="evenodd" />
    <path clip-rule="evenodd"
        d="M22 17H17V22H22V17ZM17 15C15.8954 15 15 15.8954 15 17V22C15 23.1046 15.8954 24 17 24H22C23.1046 24 24 23.1046 24 22V17C24 15.8954 23.1046 15 22 15H17Z"
        fill="#868686" fill-rule="evenodd" />
</svg>
