<svg fill="none" height="51" viewBox="0 0 51 51" width="51" xmlns="http://www.w3.org/2000/svg">
    <rect fill="black" height="51" rx="6" width="51" />
    <path
        d="M36.2654 21.5462C36.1016 21.6722 33.2086 23.2879 33.2086 26.8807C33.2086 31.0363 36.8898 32.5065 37 32.5429C36.983 32.6325 36.4152 34.5563 35.0591 36.5165C33.8499 38.2414 32.587 39.9636 30.6659 39.9636C28.7447 39.9636 28.2503 38.8575 26.0326 38.8575C23.8713 38.8575 23.1028 40 21.3455 40C19.5883 40 18.3621 38.4038 16.9523 36.4436C15.3194 34.1418 14 30.5659 14 27.1719C14 21.7282 17.5711 18.8411 21.0856 18.8411C22.9531 18.8411 24.5098 20.0564 25.6822 20.0564C26.7982 20.0564 28.5385 18.7683 30.6631 18.7683C31.4682 18.7683 34.3613 18.8411 36.2654 21.5462ZM29.6545 16.4636C30.5331 15.4303 31.1546 13.9966 31.1546 12.5629C31.1546 12.364 31.1377 12.1624 31.101 12C29.6714 12.0532 27.9706 12.9437 26.9451 14.1226C26.1399 15.0299 25.3884 16.4636 25.3884 17.917C25.3884 18.1354 25.4251 18.3538 25.4421 18.4238C25.5325 18.4406 25.6794 18.4602 25.8263 18.4602C27.109 18.4602 28.7221 17.609 29.6545 16.4636Z"
        fill="white" />
</svg>
