<svg fill="none" height="27" viewBox="0 0 27 27" width="27" xmlns="http://www.w3.org/2000/svg">
    <path clip-rule="evenodd"
        d="M13.66 13.592C15.7565 13.592 17.456 11.8925 17.456 9.796C17.456 7.69953 15.7565 6 13.66 6C11.5635 6 9.86401 7.69953 9.86401 9.796C9.86401 11.8925 11.5635 13.592 13.66 13.592ZM13.66 15.592C16.8611 15.592 19.456 12.997 19.456 9.796C19.456 6.59496 16.8611 4 13.66 4C10.459 4 7.86401 6.59496 7.86401 9.796C7.86401 12.997 10.459 15.592 13.66 15.592Z"
        fill="#868686" fill-rule="evenodd" />
    <path clip-rule="evenodd"
        d="M9.07657 20.451C8.29591 21.2452 8 22.2347 8 23H6C6 21.7653 6.46505 20.2548 7.65023 19.049C8.85335 17.825 10.7132 17 13.3414 17C18.6555 17 21 20.3917 21 23H19C19 21.6083 17.6664 19 13.3414 19C11.1502 19 9.8393 19.675 9.07657 20.451Z"
        fill="#868686" fill-rule="evenodd" />
</svg>
