<svg fill="none" height="51" viewBox="0 0 51 51" width="51" xmlns="http://www.w3.org/2000/svg">
    <rect fill="white" height="51" rx="6" width="51" />
    <path
        d="M39.7025 26.3151C39.7025 25.3934 39.6208 24.5184 39.4808 23.6667H26.2975V28.9284H33.8458C33.5075 30.6551 32.5158 32.1134 31.0458 33.1051V36.6051H35.5492C38.1858 34.1668 39.7025 30.5734 39.7025 26.3151Z"
        fill="#4285F4" />
    <path
        d="M26.2975 40C30.0775 40 33.2392 38.74 35.5492 36.605L31.0459 33.105C29.7859 33.945 28.1875 34.4583 26.2975 34.4583C22.6459 34.4583 19.5542 31.9966 18.4459 28.6716H13.8025V32.2766C16.1009 36.85 20.8259 40 26.2975 40Z"
        fill="#34A853" />
    <path
        d="M18.4459 28.6717C18.1542 27.8317 18.0025 26.9334 18.0025 26.0001C18.0025 25.0667 18.1659 24.1684 18.4459 23.3284V19.7234H13.8025C12.8458 21.6134 12.2975 23.7367 12.2975 26.0001C12.2975 28.2634 12.8458 30.3867 13.8025 32.2767L18.4459 28.6717Z"
        fill="#FBBC05" />
    <path
        d="M26.2975 17.5417C28.3625 17.5417 30.2059 18.2533 31.6642 19.6417L35.6542 15.6517C33.2392 13.3883 30.0775 12 26.2975 12C20.8259 12 16.1009 15.15 13.8025 19.7233L18.4459 23.3283C19.5542 20.0033 22.6459 17.5417 26.2975 17.5417Z"
        fill="#EA4335" />
</svg>
