<svg fill="none" height="27" viewBox="0 0 27 27" width="27" xmlns="http://www.w3.org/2000/svg">
    <path clip-rule="evenodd"
        d="M5.94444 23H21.0556C21.306 23 21.5463 22.8999 21.7234 22.7218C21.9005 22.5436 22 22.302 22 22.05V4.95C22 4.69804 21.9005 4.45641 21.7234 4.27825C21.5463 4.10009 21.306 4 21.0556 4H5.94444C5.69396 4 5.45374 4.10009 5.27662 4.27825C5.0995 4.45641 5 4.69804 5 4.95V22.05C5 22.302 5.0995 22.5436 5.27662 22.7218C5.45374 22.8999 5.69396 23 5.94444 23ZM12.4598 7.72998H8.72986V11.4599H12.4598V7.72998ZM18.0546 13.3248H8.72986V15.1898H18.0546V13.3248ZM18.0546 17.0547H8.72986V18.9197H18.0546V17.0547ZM18.0546 8.66245H14.3247V10.5274H18.0546V8.66245Z"
        fill="#FF5722" fill-rule="evenodd" />
</svg>
