<svg fill="none" height="27" viewBox="0 0 27 27" width="27" xmlns="http://www.w3.org/2000/svg">
    <path
        d="M21.0556 23H5.94444C5.69396 23 5.45374 22.8999 5.27662 22.7218C5.0995 22.5436 5 22.302 5 22.05V4.95C5 4.69804 5.0995 4.45641 5.27662 4.27825C5.45374 4.10009 5.69396 4 5.94444 4H21.0556C21.306 4 21.5463 4.10009 21.7234 4.27825C21.9005 4.45641 22 4.69804 22 4.95V22.05C22 22.302 21.9005 22.5436 21.7234 22.7218C21.5463 22.8999 21.306 23 21.0556 23ZM20.1111 21.1V5.9H6.88889V21.1H20.1111ZM8.77778 7.8H12.5556V11.6H8.77778V7.8ZM8.77778 13.5H18.2222V15.4H8.77778V13.5ZM8.77778 17.3H18.2222V19.2H8.77778V17.3ZM14.4444 8.75H18.2222V10.65H14.4444V8.75Z"
        fill="#868686" />
</svg>
