<svg fill="none" height="27" viewBox="0 0 27 27" width="27" xmlns="http://www.w3.org/2000/svg">
    <path
        d="M7 18V11.8009C7 10.6531 7.33901 8.91488 8.32222 7.49451C9.26894 6.12687 10.8428 5 13.5 5C16.1572 5 17.7311 6.12687 18.6778 7.49451C19.661 8.91488 20 10.6531 20 11.8009V18H7Z"
        stroke="#868686" stroke-width="2" />
    <path d="M6 19V11.8009C6 9.20061 7.5 4 13.5 4C19.5 4 21 9.20061 21 11.8009V19H6Z"
        fill="#FF5722" />
    <path clip-rule="evenodd"
        d="M12 21C12 22.449 12.8697 22.932 13.9425 22.932C15.0153 22.932 15.8849 22.449 15.8849 21H12Z"
        fill="#FF5722" fill-rule="evenodd" />
</svg>
