<svg fill="none" height="27" viewBox="0 0 27 27" width="27" xmlns="http://www.w3.org/2000/svg">
    <path clip-rule="evenodd"
        d="M6 19V11.8009C6 9.20061 7.5 4 13.5 4C19.5 4 21 9.20061 21 11.8009V19H6ZM19 17V11.8009C19 10.8053 18.697 9.27922 17.8556 8.06367C17.0871 6.95359 15.8144 6 13.5 6C11.1856 6 9.91287 6.95359 9.14445 8.06367C8.30302 9.27922 8 10.8053 8 11.8009V17H19Z"
        fill="#868686" fill-rule="evenodd" />
    <path
        d="M12 21C12 21 12.8697 21 13.9425 21C15.0153 21 15.8849 21 15.8849 21C15.8849 22.449 15.0153 22.932 13.9425 22.932C12.8697 22.932 12 22.449 12 21Z"
        fill="#868686" />
</svg>
