<svg fill="none" height="27" viewBox="0 0 27 27" width="27" xmlns="http://www.w3.org/2000/svg">
    <circle cx="12.7017" cy="13.5" r="7.5" stroke="#868686" stroke-width="2" />
    <path clip-rule="evenodd"
        d="M9.03532 4.79601C8.50053 4.30191 7.78552 4 7 4C5.34315 4 4 5.34315 4 7C4 7.65042 4.20698 8.25249 4.55868 8.74394C5.59347 7.00056 7.16025 5.61001 9.03532 4.79601Z"
        fill="#868686" fill-rule="evenodd" />
    <path clip-rule="evenodd"
        d="M16.2151 4.5885C18.0755 5.27055 19.668 6.5076 20.7923 8.09905C20.9264 7.75871 21 7.38796 21 7C21 5.34315 19.6569 4 18 4C17.3314 4 16.7139 4.21871 16.2151 4.5885Z"
        fill="#868686" fill-rule="evenodd" />
    <rect fill="#868686" height="5.08791" rx="1.2094" transform="rotate(45 7.50299 17.9512)"
        width="2.4188" x="7.50299" y="17.9512" />
    <rect fill="#868686" height="4.91198" rx="1.2094" transform="rotate(-45 16.6802 19.786)"
        width="2.4188" x="16.6802" y="19.786" />
    <path clip-rule="evenodd"
        d="M12.6428 10.047C12.1084 10.047 11.6752 10.4802 11.6752 11.0145V13.9171C11.6752 14.4514 12.1084 14.8846 12.6428 14.8846C12.6437 14.8846 12.6446 14.8846 12.6455 14.8846H14.5778C15.1122 14.8846 15.5454 14.4514 15.5454 13.9171C15.5454 13.3827 15.1122 12.9496 14.5778 12.9496L13.6103 12.9496V11.0145C13.6103 10.4802 13.1771 10.047 12.6428 10.047Z"
        fill="#868686" fill-rule="evenodd" />
</svg>
