<svg fill="none" height="27" viewBox="0 0 27 27" width="27" xmlns="http://www.w3.org/2000/svg">
    <path clip-rule="evenodd"
        d="M16.2604 17.6039C14.9734 18.6043 13.3563 19.2 11.6 19.2C7.40263 19.2 4 15.7974 4 11.6C4 7.40264 7.40263 4 11.6 4C15.7974 4 19.2 7.40264 19.2 11.6C19.2 13.3563 18.6043 14.9734 17.6039 16.2604L22.7218 21.3783C23.0928 21.7492 23.0928 22.3508 22.7218 22.7218C22.3508 23.0928 21.7492 23.0928 21.3783 22.7218L16.2604 17.6039ZM17.3 11.6C17.3 14.748 14.748 17.3 11.6 17.3C8.45197 17.3 5.9 14.748 5.9 11.6C5.9 8.45198 8.45197 5.9 11.6 5.9C14.748 5.9 17.3 8.45198 17.3 11.6Z"
        fill="#868686" fill-rule="evenodd" />
</svg>
