<svg fill="none" height="21" viewBox="0 0 25 21" width="25" xmlns="http://www.w3.org/2000/svg">
    <path
        d="M15.4409 4.99831C15.2383 5.51211 15.4906 6.09283 16.0044 6.29538C16.5182 6.49794 17.0989 6.24563 17.3015 5.73183L15.4409 4.99831ZM18.8431 1.82132C19.0457 1.30752 18.7934 0.726803 18.2796 0.524247C17.7658 0.321692 17.1851 0.574004 16.9825 1.0878L18.8431 1.82132ZM18.0689 7.4958C17.601 7.78924 17.4596 8.40641 17.7531 8.87429C18.0465 9.34217 18.6637 9.48358 19.1316 9.19014L18.0689 7.4958ZM22.9881 6.77143C23.456 6.47799 23.5974 5.86082 23.304 5.39294C23.0105 4.92506 22.3933 4.78365 21.9255 5.07709L22.9881 6.77143ZM20.123 10.6715C19.5724 10.6281 19.0909 11.0392 19.0475 11.5898C19.004 12.1403 19.4152 12.6219 19.9658 12.6653L20.123 10.6715ZM23.4815 12.9425C24.0321 12.986 24.5136 12.5748 24.5571 12.0243C24.6005 11.4737 24.1893 10.9922 23.6388 10.9487L23.4815 12.9425ZM17.3015 5.73183L18.8431 1.82132L16.9825 1.0878L15.4409 4.99831L17.3015 5.73183ZM19.1316 9.19014L22.9881 6.77143L21.9255 5.07709L18.0689 7.4958L19.1316 9.19014ZM19.9658 12.6653L23.4815 12.9425L23.6388 10.9487L20.123 10.6715L19.9658 12.6653Z"
        fill="#4A4A4A" />
    <path
        d="M10.5671 7.23775V7.23775C10.9144 6.82995 11.5136 6.74415 11.9466 7.05956C12.979 7.8117 14.4173 8.99799 15.3112 10.364C16.2326 11.7721 16.7096 13.5458 16.8537 14.6174C16.9101 15.0368 16.7056 15.4133 16.3024 15.5417V15.5417M10.5671 7.23775L2.09985 15.3642C1.49656 15.8617 0.521891 17.1681 1.44955 18.4141C2.37721 19.6601 3.75473 19.5079 4.32753 19.276C4.32753 19.276 11.8775 16.9503 16.3024 15.5417M10.5671 7.23775C10.5671 7.23775 11.2633 13.5366 16.3024 15.5417"
        stroke="#4A4A4A" stroke-width="2" />
</svg>
