<svg fill="none" height="27" viewBox="0 0 27 27" width="27" xmlns="http://www.w3.org/2000/svg">
    <path clip-rule="evenodd"
        d="M17.6726 6.49938C16.9758 5.92939 16.3825 5.44407 15.8556 4.89178C15.4842 4.50243 14.9498 4.15567 14.2928 4.03949C13.58 3.91346 12.7484 4.07756 12.1009 4.69893C11.3595 5.41036 10.7488 6.47767 10.2996 7.39734C10.1934 7.61481 10.0906 7.83594 9.99187 8.05772C9.11246 7.71691 8.09555 7.85665 7.33779 8.47408C5.90542 9.64117 5.34163 11.3955 5.12763 12.807C4.90686 14.2632 4.99866 15.7324 5.20433 16.7673L5.2111 16.8014L5.2191 16.8352C5.51856 18.1009 6.38686 19.9599 8.09057 21.339C9.38802 22.3892 11.0872 23.0915 13.1817 23.1096C13.2063 23.1101 13.2309 23.1103 13.2555 23.1103C13.2718 23.1103 13.2882 23.1102 13.3046 23.1099C14.0737 23.1068 14.8953 23.0119 15.7691 22.809C19.6527 21.9071 21.7033 19.4862 22.2971 16.707C22.8491 14.1234 22.1044 11.4215 20.9011 9.69149C20.1201 8.5687 19.108 7.68484 18.2271 6.95498C18.0351 6.79591 17.8505 6.64489 17.6726 6.49938ZM17.3417 20.208C21.5419 18.0505 20.9349 13.1359 19.3036 10.7907C18.5659 9.73014 17.5253 8.87993 16.4814 8.02701C15.7735 7.44859 15.0641 6.86892 14.4465 6.22156C14.1687 5.93031 13.7401 5.81052 13.4496 6.08928C12.8099 6.70317 12.1568 7.92321 11.642 9.129C11.6256 9.16735 11.6094 9.2057 11.5933 9.244C11.4013 9.70114 11.2299 10.1534 11.0874 10.5668C11.0521 10.6694 11.0185 10.7696 10.9868 10.8669C10.9517 10.9747 10.6264 10.9704 10.5683 10.8729C10.5309 10.8102 10.4893 10.75 10.4442 10.6922C10.1488 10.3139 9.70365 10.0407 9.32158 9.87246L9.31603 9.87002C9.30394 9.86472 9.29174 9.85976 9.27947 9.85515C9.03957 9.76493 8.76866 9.80573 8.56877 9.96861C6.79253 11.4159 6.77694 14.7172 7.10993 16.3927C7.31053 17.2405 7.88638 18.5173 8.97147 19.5389C8.91492 19.2417 8.88494 18.9291 8.88494 18.6023C8.88494 15.5931 10.1713 13.7525 11.251 12.6649C12.3527 11.5552 14.1583 11.5552 15.26 12.6649C16.3397 13.7525 17.6261 15.5931 17.6261 18.6023C17.6261 19.1898 17.5227 19.7263 17.3417 20.208ZM13.26 21.1783C14.2714 21.1755 15.6836 20.2391 15.6836 18.6023C15.6836 16.2242 14.6959 14.8464 13.8778 14.0224C13.5366 13.6787 12.9744 13.6787 12.6332 14.0224C11.8151 14.8464 10.8274 16.2242 10.8274 18.6023C10.8274 20.2359 12.0331 21.1718 13.243 21.1782C13.2486 21.1783 13.2543 21.1783 13.26 21.1783Z"
        fill="#868686" fill-rule="evenodd" />
</svg>
