<svg fill="none" height="44" viewBox="0 0 44 44" width="44" xmlns="http://www.w3.org/2000/svg">
    <path
        d="M0 22C0 9.84974 9.84974 0 22 0C34.1503 0 44 9.84974 44 22C44 34.1503 34.1503 44 22 44C9.84974 44 0 34.1503 0 22Z"
        fill="white" />
    <path
        d="M13.089 30.4518L9.20115 18.233C9.06143 17.7939 9.53971 17.4156 9.93487 17.6527L14.7355 20.533C14.9392 20.6553 15.2008 20.6173 15.3613 20.4422L21.6312 13.6023C21.8294 13.3861 22.1702 13.3861 22.3684 13.6023L28.6383 20.4422C28.7988 20.6173 29.0604 20.6553 29.2641 20.533L34.0647 17.6527C34.4599 17.4156 34.9382 17.7939 34.7985 18.233L30.9107 30.4518C30.8446 30.6593 30.6519 30.8002 30.4342 30.8002H13.5654C13.3477 30.8002 13.155 30.6593 13.089 30.4518Z"
        fill="#FF5722" />
</svg>
