<svg width="27" height="27" viewBox="0 0 27 27" fill="none" xmlns="http://www.w3.org/2000/svg">
<path fill-rule="evenodd" clip-rule="evenodd" d="M7.6561 11.298C7.09873 11.3364 6.67748 11.8284 6.71521 12.3967C6.78965 13.5181 7.2271 15.1576 8.3162 16.5402C9.43805 17.9644 11.2169 19.0661 13.8213 19.0661C16.4276 19.0661 18.1829 17.9621 19.2685 16.5233C20.3192 15.1306 20.7025 13.4834 20.7397 12.3619C20.7586 11.7926 20.3213 11.3155 19.763 11.2962C19.2047 11.2769 18.7368 11.7228 18.7179 12.2921C18.6919 13.0732 18.4087 14.2798 17.6651 15.2654C16.9563 16.2048 15.7895 17.0033 13.8213 17.0033C11.8514 17.0033 10.6449 16.2024 9.89346 15.2484C9.10928 14.2529 8.78548 13.0385 8.73362 12.2574C8.69589 11.689 8.21347 11.2595 7.6561 11.298Z" fill="#FF5722"/>
<path fill-rule="evenodd" clip-rule="evenodd" d="M13.7524 4.09047C15.7595 4.09047 17.3865 5.74951 17.3865 7.79605V12.0109C17.3865 14.0575 15.7595 15.7165 13.7524 15.7165C11.7454 15.7165 10.1184 14.0575 10.1184 12.0109V7.79605C10.1184 5.74951 11.7454 4.09047 13.7524 4.09047Z" fill="#FF5722"/>
<path fill-rule="evenodd" clip-rule="evenodd" d="M19.0196 5.42629C18.6057 5.80882 18.5742 6.46109 18.9494 6.88319C18.9455 6.87889 18.9459 6.87944 18.9496 6.88495C18.9621 6.90396 19.0137 6.98197 19.0673 7.12367C19.1311 7.29253 19.1868 7.52406 19.1868 7.80627C19.1868 8.08738 19.1316 8.29634 19.0762 8.43325C19.0302 8.54673 18.9913 8.59706 18.9913 8.59706C18.6 8.98712 18.5836 9.62638 18.9586 10.037C19.3392 10.4539 19.9793 10.4772 20.3882 10.0891C20.78 9.7171 21.2099 8.90678 21.2099 7.80627C21.2099 6.70736 20.7836 5.87506 20.4484 5.49794C20.0733 5.07584 19.4336 5.04377 19.0196 5.42629Z" fill="#FF5722"/>
<path fill-rule="evenodd" clip-rule="evenodd" d="M21.5859 4.26716C21.1719 4.64969 21.1405 5.30196 21.5156 5.72406C21.4989 5.7053 21.5006 5.70843 21.5153 5.73536C21.5464 5.79228 21.6356 5.95556 21.7322 6.24333C21.8603 6.62548 21.977 7.15957 21.977 7.80623C21.977 8.39657 21.8202 8.93112 21.6382 9.34203C21.548 9.54568 21.4555 9.71007 21.3822 9.82506C21.323 9.91802 21.2915 9.95679 21.2915 9.95679C21.2915 9.95679 21.2934 9.95512 21.2969 9.95162C20.908 10.3419 20.8923 10.9794 21.2665 11.3892C21.6471 11.8062 22.2872 11.8295 22.696 11.4413C22.8312 11.313 22.9677 11.123 23.0786 10.949C23.205 10.7506 23.3475 10.4946 23.4819 10.1911C23.7491 9.58785 24 8.76135 24 7.80623C24 6.90744 23.8382 6.14779 23.6463 5.57575C23.4685 5.04547 23.233 4.58455 23.0146 4.33881C22.6395 3.91671 21.9998 3.88464 21.5859 4.26716Z" fill="#FF5722"/>
<path fill-rule="evenodd" clip-rule="evenodd" d="M7.98036 5.42629C8.39431 5.80882 8.42577 6.46109 8.05063 6.88319C8.05445 6.87889 8.05409 6.87944 8.05045 6.88495C8.03788 6.90396 7.98631 6.98197 7.93272 7.12367C7.86885 7.29253 7.81316 7.52406 7.81316 7.80627C7.81316 8.08738 7.86836 8.29634 7.92383 8.43325C7.9698 8.54673 8.00875 8.59706 8.00875 8.59706C8.39995 8.98712 8.41636 9.62638 8.04143 10.037C7.66076 10.4539 7.02071 10.4772 6.61185 10.0891C6.22004 9.7171 5.79013 8.90678 5.79013 7.80627C5.79013 6.70736 6.21643 5.87506 6.55159 5.49794C6.92673 5.07584 7.56642 5.04377 7.98036 5.42629Z" fill="#FF5722"/>
<path fill-rule="evenodd" clip-rule="evenodd" d="M5.41413 4.26716C5.82808 4.64969 5.85954 5.30196 5.4844 5.72406C5.50107 5.7053 5.49937 5.70843 5.48465 5.73536C5.45356 5.79228 5.36437 5.95556 5.26785 6.24333C5.13967 6.62548 5.02303 7.15957 5.02303 7.80623C5.02303 8.39657 5.17978 8.93112 5.36179 9.34203C5.45199 9.54568 5.54452 9.71007 5.6178 9.82506C5.67702 9.91802 5.70853 9.95679 5.70853 9.95679C5.70853 9.95679 5.70661 9.95512 5.7031 9.95162C6.09202 10.3419 6.10772 10.9794 5.73355 11.3892C5.35288 11.8062 4.71283 11.8295 4.30396 11.4413C4.1688 11.313 4.03227 11.123 3.92139 10.949C3.79499 10.7506 3.6525 10.4946 3.51809 10.1911C3.25086 9.58785 3 8.76135 3 7.80623C3 6.90744 3.1618 6.14779 3.35368 5.57575C3.53155 5.04547 3.76696 4.58455 3.98536 4.33881C4.3605 3.91671 5.00018 3.88464 5.41413 4.26716Z" fill="#FF5722"/>
<path fill-rule="evenodd" clip-rule="evenodd" d="M14.7467 21.9685V17.9995H12.7237V21.9685H14.7467Z" fill="#FF5722"/>
<path fill-rule="evenodd" clip-rule="evenodd" d="M17.6402 21.9686C17.6402 21.3989 17.1873 20.9371 16.6287 20.9371H10.8762C10.3176 20.9371 9.86469 21.3989 9.86469 21.9686C9.86469 22.5382 10.3176 23 10.8762 23H16.6287C17.1873 23 17.6402 22.5382 17.6402 21.9686Z" fill="#FF5722"/>
</svg>
