<svg width="27" height="27" viewBox="0 0 27 27" fill="none" xmlns="http://www.w3.org/2000/svg">
<path fill-rule="evenodd" clip-rule="evenodd" d="M14 14C14 15.6569 12.6569 17 11 17C9.34315 17 8 15.6569 8 14C8 12.3431 9.34315 11 11 11C12.6569 11 14 12.3431 14 14ZM11 13C10.4477 13 10 13.4477 10 14C10 14.5523 10.4477 15 11 15C11.5523 15 12 14.5523 12 14C12 13.4477 11.5523 13 11 13Z" fill="#868686"/>
<path d="M16 11C15.4477 11 15 11.4477 15 12C15 12.5523 15.4477 13 16 13H18C18.5523 13 19 12.5523 19 12C19 11.4477 18.5523 11 18 11H16Z" fill="#868686"/>
<path d="M16 15C15.4477 15 15 15.4477 15 16C15 16.5523 15.4477 17 16 17H18C18.5523 17 19 16.5523 19 16C19 15.4477 18.5523 15 18 15H16Z" fill="#868686"/>
<path fill-rule="evenodd" clip-rule="evenodd" d="M17 3C17.5523 3 18 3.44772 18 4V5H19C20.6569 5 22 6.34315 22 8V20C22 21.6569 20.6569 23 19 23H8C6.34315 23 5 21.6569 5 20V8C5 6.34315 6.34315 5 8 5H16V4C16 3.44772 16.4477 3 17 3ZM8 7H19C19.5523 7 20 7.44772 20 8V20C20 20.5523 19.5523 21 19 21H8C7.44772 21 7 20.5523 7 20V8C7 7.44772 7.44772 7 8 7Z" fill="#868686"/>
</svg>
