<svg width="27" height="27" viewBox="0 0 27 27" fill="none" xmlns="http://www.w3.org/2000/svg">
<path d="M11 13C10.4477 13 10 13.4477 10 14C10 14.5523 10.4477 15 11 15C11.5523 15 12 14.5523 12 14C12 13.4477 11.5523 13 11 13Z" fill="#FF5722"/>
<path fill-rule="evenodd" clip-rule="evenodd" d="M18 4C18 3.44772 17.5523 3 17 3C16.4477 3 16 3.44772 16 4V5H8C6.34315 5 5 6.34315 5 8V20C5 21.6569 6.34315 23 8 23H19C20.6569 23 22 21.6569 22 20V8C22 6.34315 20.6569 5 19 5H18V4ZM14 14C14 15.6569 12.6569 17 11 17C9.34315 17 8 15.6569 8 14C8 12.3431 9.34315 11 11 11C12.6569 11 14 12.3431 14 14ZM16 11C15.4477 11 15 11.4477 15 12C15 12.5523 15.4477 13 16 13H18C18.5523 13 19 12.5523 19 12C19 11.4477 18.5523 11 18 11H16ZM15 16C15 15.4477 15.4477 15 16 15H18C18.5523 15 19 15.4477 19 16C19 16.5523 18.5523 17 18 17H16C15.4477 17 15 16.5523 15 16Z" fill="#FF5722"/>
</svg>
