<svg width="27" height="27" viewBox="0 0 27 27" fill="none" xmlns="http://www.w3.org/2000/svg">
<path d="M8.44444 20.7778V14.1111H19.5556V20.7778H21.7778V8.36444L18.6356 5.22222H6.22222V20.7778H8.44444ZM5.11111 3H19.5556L24 7.44444V21.8889C24 22.1836 23.8829 22.4662 23.6746 22.6746C23.4662 22.8829 23.1836 23 22.8889 23H5.11111C4.81643 23 4.53381 22.8829 4.32544 22.6746C4.11706 22.4662 4 22.1836 4 21.8889V4.11111C4 3.81643 4.11706 3.53381 4.32544 3.32544C4.53381 3.11706 4.81643 3 5.11111 3ZM10.6667 16.3333V20.7778H17.3333V16.3333H10.6667Z" fill="#868686"/>
</svg>
