<svg width="27" height="27" viewBox="0 0 27 27" fill="none" xmlns="http://www.w3.org/2000/svg">
<path d="M14 23C8.477 23 4 18.523 4 13C4 7.477 8.477 3 14 3C19.523 3 24 7.477 24 13C24 18.523 19.523 23 14 23ZM14 21C16.1217 21 18.1566 20.1571 19.6569 18.6569C21.1571 17.1566 22 15.1217 22 13C22 10.8783 21.1571 8.84344 19.6569 7.34315C18.1566 5.84285 16.1217 5 14 5C11.8783 5 9.84344 5.84285 8.34315 7.34315C6.84285 8.84344 6 10.8783 6 13C6 15.1217 6.84285 17.1566 8.34315 18.6569C9.84344 20.1571 11.8783 21 14 21V21ZM15 13H19V15H13V8H15V13Z" fill="#868686"/>
</svg>
