<?xml version="1.0" encoding="utf-8"?>
<!-- Generator: Adobe Illustrator 23.0.1, SVG Export Plug-In . SVG Version: 6.00 Build 0)  -->
<svg version="1.1" id="Layer_1" xmlns="http://www.w3.org/2000/svg" xmlns:xlink="http://www.w3.org/1999/xlink" x="0px" y="0px"
	 viewBox="0 0 46 46" style="enable-background:new 0 0 46 46;" xml:space="preserve">
<g>
	<g>
		<path d="M44.64,45.22l-0.53-0.18c-0.11-0.04-0.21-0.08-0.32-0.12c-0.15-0.06-0.31-0.13-0.41-0.13
			c-6.23-0.01-12.45-0.01-18.69-0.01H1.23v-4.13c0-5.61,0-11.22-0.01-16.83c0-0.13-0.04-0.28-0.07-0.44
			c-0.02-0.09-0.04-0.19-0.06-0.28l-0.01-0.24c0.02-0.18,0.05-0.28,0.07-0.37c0.04-0.16,0.07-0.31,0.07-0.44
			c0.01-5.63,0.01-11.26,0.01-16.9V1.08h7.26c11.6,0,23.2,0,34.79-0.01c0.23,0,0.46-0.04,0.69-0.08c0.13-0.02,0.25-0.04,0.38-0.06
			l0.56-0.07v5.29c0,12.58,0,25.17-0.01,37.75c0,0.22-0.06,0.41-0.1,0.58c-0.02,0.06-0.04,0.12-0.05,0.18L44.64,45.22z M4.02,43.27
			h17.06l-8.53-8.53L4.02,43.27z M24.98,43.27h17.21l-8.6-8.6L24.98,43.27z M13.76,33.52l9.3,9.3l9.4-9.4l-9.29-9.3L13.76,33.52z
			 M34.87,33.49l8.56,8.56V24.93L34.87,33.49z M2.73,24.83v17.21l8.61-8.6L2.73,24.83z M24.31,22.96l9.31,9.31l9.4-9.4l-9.31-9.31
			L24.31,22.96z M3.21,22.95l9.28,9.28l9.39-9.39l-9.28-9.28L3.21,22.95z M13.71,12.4l9.36,9.36l9.4-9.41l-9.35-9.36L13.71,12.4z
			 M2.72,3.81v17.16l8.58-8.58L2.72,3.81z M34.89,12.35l8.54,8.54V3.83L34.89,12.35z M3.9,2.58l8.6,8.6l8.6-8.6H3.9z M24.92,2.54
			l8.56,8.57l8.57-8.57H24.92z"/>
	</g>
</g>
</svg>
