<svg width="389" height="210" viewBox="0 0 389 210" fill="none" xmlns="http://www.w3.org/2000/svg">
<mask id="mask0_962_891" style="mask-type:alpha" maskUnits="userSpaceOnUse" x="0" y="0" width="389" height="210">
<rect width="389" height="210" fill="white"/>
</mask>
<g mask="url(#mask0_962_891)">
<g opacity="0.2" filter="url(#filter0_f_962_891)">
<circle cx="-7" cy="59" r="55" fill="#FF8862"/>
<circle cx="390.5" cy="144.5" r="60.5" fill="#FFE895"/>
<path d="M192 121C198.5 123 208.5 118.5 208.5 121C208.5 123.5 192 144.5 183.5 154C182.281 155.362 188.5 139.5 188.5 133.5C184.81 129.011 176 133.5 170.5 132C174 126.5 177.15 120.397 181.5 115.5C187.96 108.228 188.5 105.5 195 99C197 107 192 106.641 192 121Z" fill="#FFC700"/>
</g>
<path fill-rule="evenodd" clip-rule="evenodd" d="M189.134 76H189.149C213.518 76 227.401 88.0471 234.986 101.695C242.535 115.279 243.853 130.444 243.209 136.888L243.208 136.905L243.205 136.922C240.179 158.518 221.092 170.52 203.115 177.109C201.37 177.749 199.633 178.338 197.917 178.882C222.982 180.467 269.187 181.886 313.544 181.476C339.209 181.239 364.235 180.389 384.177 178.607C394.149 177.716 402.832 176.594 409.679 175.203C416.572 173.803 421.465 172.156 423.979 170.293L425 171.675C422.149 173.788 416.912 175.488 410.021 176.888C403.085 178.297 394.332 179.426 384.329 180.32C364.322 182.107 339.244 182.957 313.56 183.195C266.303 183.632 216.925 181.995 193.186 180.287C187.808 181.778 183.612 183.28 179.5 184C176.37 184.765 174.646 184.677 172.702 184.908C171.75 185.02 169.084 184.903 168.574 184.952C168.313 184.948 163.663 185.008 163.156 184.999C162.142 184.982 162.649 184.956 160.732 184.919C156.899 184.846 152.37 184.732 145.59 184.569C132.031 184.242 113.463 183.717 93.4341 182.926C53.4023 181.343 7.44664 178.692 -16 174.409L-15.6919 172.717C7.61232 176.975 53.439 179.624 93.5018 181.208C113.52 181.999 132.078 182.523 145.632 182.85C152.409 183.013 156.934 183.127 160.765 183.2C162.681 183.237 162.172 183.263 163.185 183.28C163.692 183.289 162.925 183.276 163.185 183.28H163.676L168.41 183.241C169.203 183.169 168.347 183.246 168.41 183.241C168.538 183.23 168.161 183.265 168.41 183.241C168.909 183.193 171.561 183.311 172.5 183.2C174.377 182.978 175.94 183.046 179.204 182.307C182.021 181.813 184.451 180.71 187.934 179.871C187.826 179.861 187.719 179.852 187.612 179.842C156.02 178.327 139.888 152.864 139.888 127.645C139.888 115.027 143.915 102.403 152.101 92.7795C160.3 83.1409 172.631 76.5634 189.12 76.0005L189.134 76ZM193.012 178.55C196.095 177.688 199.299 176.677 202.525 175.495C220.383 168.95 238.61 157.275 241.503 136.7C242.111 130.553 240.839 115.762 233.486 102.531C226.163 89.356 212.819 77.724 189.164 77.7192C173.144 78.2697 161.279 84.6418 153.408 93.8944C145.521 103.165 141.604 115.378 141.604 127.645C141.604 152.188 157.242 176.673 187.712 178.126L187.73 178.127L187.747 178.128C189.316 178.269 191.076 178.41 193.012 178.55Z" fill="#E6E6E6"/>
<path fill-rule="evenodd" clip-rule="evenodd" d="M143.522 106.802L149.915 114.805C150.211 115.175 150.151 115.716 149.781 116.013C149.41 116.309 148.87 116.249 148.574 115.878L143.144 109.08L135.665 113.847C135.265 114.101 134.734 113.983 134.48 113.583C134.225 113.182 134.343 112.651 134.743 112.396L143.522 106.802Z" fill="#E6E6E6"/>
<path fill-rule="evenodd" clip-rule="evenodd" d="M242.063 135.355L234.397 128.566C234.042 128.252 234.008 127.708 234.322 127.353C234.637 126.997 235.179 126.964 235.534 127.278L241.991 132.996L247.66 127.315C247.995 126.979 248.538 126.979 248.874 127.314C249.209 127.65 249.209 128.194 248.874 128.53L242.063 135.355Z" fill="#E6E6E6"/>
<path fill-rule="evenodd" clip-rule="evenodd" d="M196.456 100.494C196.723 99.44 195.353 98.7771 194.692 99.6409L170.359 131.449C169.856 132.107 170.325 133.057 171.153 133.057H186.368C187.032 133.057 187.512 133.692 187.33 134.33L181.824 153.683C181.525 154.735 182.891 155.435 183.57 154.577L209.047 122.4C209.566 121.745 209.099 120.779 208.263 120.779H192.599C191.948 120.779 191.47 120.166 191.63 119.534L196.456 100.494ZM205.495 124.119C206.014 123.464 205.547 122.499 204.711 122.499H190.393C189.741 122.499 189.263 121.885 189.423 121.253L193.334 105.822C193.468 105.295 192.783 104.964 192.452 105.396L173.837 129.73C173.333 130.388 173.803 131.337 174.631 131.337H188.642C189.306 131.337 189.786 131.973 189.604 132.611L185.151 148.264C185.001 148.79 185.684 149.14 186.024 148.711L205.495 124.119Z" fill="#E6E6E6"/>
</g>
<defs>
<filter id="filter0_f_962_891" x="-82" y="-16" width="553" height="241" filterUnits="userSpaceOnUse" color-interpolation-filters="sRGB">
<feFlood flood-opacity="0" result="BackgroundImageFix"/>
<feBlend mode="normal" in="SourceGraphic" in2="BackgroundImageFix" result="shape"/>
<feGaussianBlur stdDeviation="10" result="effect1_foregroundBlur_962_891"/>
</filter>
</defs>
</svg>
