<svg width="24" height="24" viewBox="0 0 24 24" fill="none" xmlns="http://www.w3.org/2000/svg">
<path fill-rule="evenodd" clip-rule="evenodd" d="M14 3H10C7.87827 3 5.84344 3.84285 4.34315 5.34315C2.84285 6.84344 2 8.87827 2 11C2 17.5 9 20.5 14 22.5V19C16.1217 19 18.1566 18.1571 19.6569 16.6569C21.1571 15.1566 22 13.1217 22 11C22 8.87827 21.1571 6.84344 19.6569 5.34315C18.1566 3.84285 16.1217 3 14 3ZM10.8906 12.6958H12.0884C12.092 12.4237 12.1296 12.182 12.2012 11.9707C12.2728 11.7559 12.4089 11.5571 12.6094 11.3745C12.8421 11.1561 13.0588 10.9377 13.2593 10.7192C13.4598 10.4972 13.6227 10.2591 13.748 10.0049C13.8734 9.74707 13.936 9.46061 13.936 9.14551C13.936 8.70866 13.8447 8.33626 13.6621 8.02832C13.4831 7.7168 13.2235 7.48047 12.8833 7.31934C12.5431 7.15462 12.1331 7.07227 11.6533 7.07227C11.2201 7.07227 10.828 7.14925 10.4771 7.30322C10.1261 7.45719 9.84684 7.68815 9.63916 7.99609C9.43148 8.30404 9.32406 8.68359 9.31689 9.13477H10.6113C10.6185 8.89844 10.6704 8.70866 10.7671 8.56543C10.8638 8.41862 10.9909 8.3112 11.1484 8.24316C11.306 8.17155 11.4743 8.13574 11.6533 8.13574C11.8682 8.13574 12.0472 8.17692 12.1904 8.25928C12.3372 8.34163 12.4482 8.46159 12.5234 8.61914C12.5986 8.77669 12.6362 8.96826 12.6362 9.19385C12.6362 9.40153 12.5968 9.58594 12.5181 9.74707C12.4393 9.90462 12.3337 10.055 12.2012 10.1982C12.0687 10.3379 11.9201 10.4865 11.7554 10.644C11.5441 10.8517 11.374 11.0487 11.2451 11.2349C11.1198 11.4211 11.0303 11.6287 10.9766 11.8579C10.9229 12.0835 10.8942 12.3628 10.8906 12.6958ZM10.9819 13.8828C10.8494 14.0153 10.7832 14.1782 10.7832 14.3716C10.7832 14.5649 10.8494 14.7297 10.9819 14.8657C11.1144 14.9982 11.2952 15.0645 11.5244 15.0645C11.7536 15.0645 11.9344 14.9982 12.0669 14.8657C12.1994 14.7297 12.2656 14.5649 12.2656 14.3716C12.2656 14.1782 12.1994 14.0153 12.0669 13.8828C11.9344 13.7467 11.7536 13.6787 11.5244 13.6787C11.2952 13.6787 11.1144 13.7467 10.9819 13.8828Z" fill="#FE5722"/>
</svg>
