<svg width="20" height="20" viewBox="0 0 20 20" fill="none" xmlns="http://www.w3.org/2000/svg">
<path d="M16.3 1H3.7C2.98392 1 2.29716 1.28446 1.79081 1.79081C1.28446 2.29716 1 2.98391 1 3.7V4.753C0.999871 5.12465 1.07647 5.49232 1.225 5.833V5.887C1.35215 6.17587 1.53225 6.43839 1.756 6.661L7.3 12.169V18.1C7.29969 18.2529 7.33837 18.4034 7.41238 18.5373C7.4864 18.6712 7.5933 18.7839 7.723 18.865C7.86623 18.9538 8.0315 19.0005 8.2 19C8.34089 18.9992 8.47961 18.9652 8.605 18.901L12.205 17.101C12.3534 17.0262 12.4782 16.9118 12.5656 16.7704C12.653 16.629 12.6995 16.4662 12.7 16.3V12.169L18.208 6.661C18.4317 6.43839 18.6118 6.17587 18.739 5.887V5.833C18.8999 5.49499 18.9888 5.1272 19 4.753V3.7C19 2.98391 18.7155 2.29716 18.2092 1.79081C17.7028 1.28446 17.0161 1 16.3 1ZM11.161 11.161C11.0776 11.2451 11.0116 11.3448 10.9668 11.4545C10.922 11.5641 10.8993 11.6816 10.9 11.8V15.742L9.1 16.642V11.8C9.10068 11.6816 9.07798 11.5641 9.03319 11.4545C8.98841 11.3448 8.92241 11.2451 8.839 11.161L4.069 6.4H15.931L11.161 11.161ZM17.2 4.6H2.8V3.7C2.8 3.4613 2.89482 3.23239 3.0636 3.0636C3.23239 2.89482 3.46131 2.8 3.7 2.8H16.3C16.5387 2.8 16.7676 2.89482 16.9364 3.0636C17.1052 3.23239 17.2 3.4613 17.2 3.7V4.6Z" fill="black"/>
</svg>
