<svg width="20" height="20" viewBox="0 0 20 20" fill="none" xmlns="http://www.w3.org/2000/svg">
<path d="M4.10002 6.30002C4.10002 3.90002 5.80002 2.00002 7.80002 2.00002H12.2C14.1 2.00002 15.9 3.80002 15.9 6.30002V7.10002H14.1C12.9 7.10002 11.7 8.10002 11.7 9.50002V10.7C11.7 12.1 12.9 13.1 14.1 13.1H15.1C15.2 13.1 15.2 13.1 15.3 13.1C15.3 13.3 15.2 13.5 15.1 13.7C14.9 14.3 14.6 14.8 14.2 15.1C14 15.3 13.7 15.5 13.4 15.6C13 15.1 12.3 14.9 11.7 14.9C10.3 14.9 9.30002 16 9.30002 17.3C9.30002 18.7 10.4 19.7 11.7 19.7C13.1 19.7 14.1 18.6 14.1 17.3C14.1 17.2 14.1 17.2 14.1 17.1C14.6 16.9 15 16.7 15.3 16.4C16 15.8 16.4 15 16.7 14.3C17 13.6 17.1 12.9 17.2 12.4C17.2 12.3 17.2 12.2 17.2 12.1C17.5 11.7 17.7 11.2 17.7 10.7V6.30002C17.7 3.10002 15.4 0.400024 12.3 0.400024H7.80002C4.70002 0.400024 2.40002 3.20002 2.40002 6.30002V10.5C2.40002 12 3.60002 13 4.90002 13H5.90002C7.10002 13 8.30002 12 8.30002 10.6V9.50002C8.30002 8.10002 7.10002 7.10002 5.90002 7.10002H4.10002V6.30002Z" fill="#FF5722"/>
</svg>
