<svg width="375" height="118" viewBox="0 0 375 118" fill="none" xmlns="http://www.w3.org/2000/svg">
<mask id="mask0_962_1013" style="mask-type:alpha" maskUnits="userSpaceOnUse" x="0" y="0" width="375" height="118">
<rect width="375" height="118" fill="#C4C4C4"/>
</mask>
<g mask="url(#mask0_962_1013)">
<g opacity="0.2" filter="url(#filter0_f_962_1013)">
<circle cx="175" cy="91" r="14" fill="#F5BF00"/>
<circle cx="226" cy="52" r="14" fill="#CB6A4B"/>
<circle cx="-7.5" cy="45.5" r="26.5" fill="#FF8862"/>
<circle cx="381" cy="86" r="19" fill="#FDD015"/>
</g>
<path d="M148.434 81.6097C145.818 67.8772 156.817 58.7968 166.419 56.7948C167.409 56.5884 168.347 57.2458 168.587 58.2282L176.781 91.6892C177.044 92.7647 176.385 93.8543 175.295 94.05C165.429 95.8209 150.832 94.1952 148.434 81.6097Z" stroke="black" stroke-width="2"/>
<path d="M224.841 62.3256C227.457 76.0581 216.457 85.1385 206.856 87.1405C205.866 87.3469 204.928 86.6895 204.687 85.7071L196.494 52.2461C196.23 51.1706 196.89 50.081 197.98 49.8853C207.846 48.1144 222.443 49.7401 224.841 62.3256Z" stroke="black" stroke-width="2"/>
<line x1="170.728" y1="64.518" x2="179.71" y2="62.2724" stroke="black" stroke-width="2" stroke-linecap="round"/>
<line x1="175.728" y1="83.518" x2="184.71" y2="81.2724" stroke="black" stroke-width="2" stroke-linecap="round"/>
<path d="M0 56.5C13 56.5 115.4 96.6196 149 83.0196" stroke="black" stroke-width="2"/>
<path d="M375 81C311 81 257.874 47.3156 224.274 60.9156" stroke="black" stroke-width="2"/>
</g>
<defs>
<filter id="filter0_f_962_1013" x="-54" y="-1" width="474" height="126" filterUnits="userSpaceOnUse" color-interpolation-filters="sRGB">
<feFlood flood-opacity="0" result="BackgroundImageFix"/>
<feBlend mode="normal" in="SourceGraphic" in2="BackgroundImageFix" result="shape"/>
<feGaussianBlur stdDeviation="10" result="effect1_foregroundBlur_962_1013"/>
</filter>
</defs>
</svg>
