<svg width="389" height="210" viewBox="0 0 389 210" fill="none" xmlns="http://www.w3.org/2000/svg">
<mask id="mask0_961_787" style="mask-type:alpha" maskUnits="userSpaceOnUse" x="0" y="0" width="389" height="210">
<rect width="389" height="210" fill="white"/>
</mask>
<g mask="url(#mask0_961_787)">
<g opacity="0.2" filter="url(#filter0_f_961_787)">
<circle cx="-7" cy="59" r="55" fill="#FF8862"/>
<circle cx="390.5" cy="144.5" r="60.5" fill="#FFE895"/>
<ellipse cx="161.396" cy="107.062" rx="17.7079" ry="17.5831" transform="rotate(-24.4403 161.396 107.062)" fill="#FFC700"/>
</g>
<mask id="path-5-outside-1_961_787" maskUnits="userSpaceOnUse" x="-52" y="74" width="538" height="114" fill="black">
<rect fill="white" x="-52" y="74" width="538" height="114"/>
<path fill-rule="evenodd" clip-rule="evenodd" d="M155.644 78.1394C152.939 75.4843 149.226 74.7282 146.39 77.0632C143.764 79.2252 140.77 82.232 138.237 84.9607C135.809 87.5767 133.684 90.4724 132.334 93.7444C124.802 112.006 132.617 130.65 145.988 147.987C156.974 162.233 169.505 172.318 178.116 177.296C179.243 177.948 178.903 179.737 177.597 179.9C101.154 189.453 49.1038 189.417 -51 179.483L-50.9342 178.821C49.1337 188.75 101.133 188.785 177.514 179.239C178.173 179.157 178.369 178.212 177.782 177.872C169.094 172.849 156.498 162.705 145.46 148.394C132.052 131.008 124.043 112.098 131.718 93.4907C133.108 90.1206 135.288 87.1587 137.748 84.5079C140.289 81.7712 143.306 78.7393 145.967 76.5492C149.151 73.9275 153.25 74.8569 156.111 77.6643C162.062 83.5057 165.596 88.857 168.517 96.2157C170.755 101.855 168.282 108.144 163.226 111.423L155.919 116.162C154.952 117.029 154.522 118.385 154.597 120.135C154.673 121.897 155.26 124.013 156.271 126.312C158.292 130.908 161.972 136.16 166.445 140.631C170.111 144.296 175.052 149.233 179.904 153.026C182.331 154.923 184.723 156.523 186.912 157.535C189.104 158.548 191.038 158.947 192.587 158.527C192.837 158.431 193.119 158.209 193.435 157.839C193.753 157.467 194.083 156.972 194.431 156.375C195.006 155.389 195.609 154.159 196.27 152.812C196.41 152.528 196.551 152.239 196.696 151.946C198.346 148.604 200.358 144.744 203.064 142.433C205.133 140.666 208.08 140.591 210.572 141.445C212.811 142.212 215.825 143.812 221.368 147.923C230.538 154.725 233.709 160.708 232.316 165.757C232.036 166.772 231.322 167.829 230.366 168.875C229.405 169.926 228.176 170.993 226.827 172.026C224.13 174.092 220.926 176.047 218.365 177.507C217.743 177.861 218.012 178.819 218.697 178.819H232.657C235.181 178.764 238.769 178.597 242.028 177.606C243.646 177.114 245.168 176.423 246.434 175.453C246.247 175.327 246.08 175.2 245.936 175.078L245.922 175.067L245.91 175.053C242.706 171.683 242.192 169.01 242.926 167.129C243.647 165.283 245.528 164.337 246.817 164.337C248.119 164.337 249.392 165.125 250.089 166.45C250.789 167.781 250.902 169.634 249.958 171.785C249.434 173.231 248.608 174.402 247.587 175.35C249.153 176.118 251.626 176.612 254.493 175.27C253.986 174.646 253.54 173.883 253.175 172.962C252.296 171.194 252.553 169.356 253.486 168.149C254.431 166.929 256.055 166.38 257.785 167.199C258.678 167.621 259.444 168.859 259.404 170.339C259.363 171.849 258.493 173.594 256.158 175.104C255.962 175.231 255.767 175.349 255.573 175.46C255.758 175.635 255.948 175.792 256.142 175.934C257.065 176.605 258.098 176.932 259.132 177.031C260.594 177.172 262.042 176.856 263.132 176.436C261.143 174.486 260.761 172.61 261.309 171.204C261.931 169.604 263.74 168.747 265.261 169.355C266.011 169.655 266.504 170.176 266.769 170.812C267.032 171.44 267.066 172.161 266.944 172.867C266.701 174.269 265.822 175.716 264.646 176.439C264.549 176.499 264.445 176.559 264.333 176.619C264.437 176.705 264.545 176.791 264.657 176.878C265.612 177.427 267.574 178.014 269.492 177.241C269.029 176.676 268.7 176.004 268.569 175.206C268.359 173.934 268.876 172.956 269.557 172.309C269.895 171.988 270.275 171.745 270.634 171.582C270.989 171.422 271.344 171.329 271.633 171.329C272.558 171.329 273.1 172.186 273.176 173.133C273.256 174.11 272.882 175.325 271.874 176.385C271.468 176.813 271.042 177.154 270.609 177.422C270.976 177.729 271.401 177.996 271.869 178.23C273.268 178.928 275.006 179.304 276.59 179.525C344.399 189.013 387.728 185.839 447.868 181.433C459.502 180.58 471.765 179.682 484.957 178.82L485 179.484C471.818 180.346 459.56 181.244 447.928 182.096C387.782 186.503 344.381 189.683 276.497 180.185C274.891 179.96 273.068 179.573 271.571 178.825C270.986 178.533 270.443 178.181 269.982 177.758C267.732 178.79 265.387 178.074 264.303 177.442L264.285 177.431L264.268 177.418C264.058 177.257 263.861 177.095 263.674 176.934C262.469 177.448 260.784 177.859 259.068 177.694C257.937 177.585 256.785 177.225 255.75 176.472C255.475 176.271 255.209 176.044 254.955 175.787C251.538 177.241 248.784 176.751 247.045 175.82C245.654 176.94 243.972 177.711 242.222 178.243C238.867 179.263 235.197 179.43 232.668 179.485L232.665 179.485H218.697C217.298 179.485 216.846 177.606 218.035 176.929C220.585 175.475 223.76 173.536 226.422 171.497C227.753 170.477 228.95 169.438 229.874 168.426C230.803 167.409 231.435 166.446 231.674 165.58C232.945 160.974 230.12 155.244 220.971 148.458C215.445 144.359 212.497 142.808 210.356 142.074C207.997 141.266 205.325 141.378 203.496 142.939C200.912 145.146 198.954 148.877 197.293 152.241C197.151 152.529 197.011 152.815 196.872 153.097C196.211 154.445 195.595 155.701 195.006 156.71C194.65 157.322 194.297 157.855 193.942 158.271C193.591 158.682 193.215 159.006 192.805 159.156L192.792 159.161L192.778 159.165C190.998 159.654 188.879 159.178 186.632 158.139C184.377 157.097 181.939 155.461 179.494 153.55C174.607 149.73 169.64 144.766 165.98 141.108L165.974 141.101C161.453 136.583 157.721 131.265 155.662 126.58C154.632 124.239 154.012 122.038 153.932 120.164C153.851 118.289 154.311 116.695 155.496 115.647L155.515 115.631L162.863 110.865C167.69 107.734 170.003 101.767 167.897 96.4612C165.012 89.1904 161.53 83.9169 155.644 78.1394ZM270.111 176.941C270.551 176.69 270.982 176.358 271.391 175.927C272.282 174.99 272.575 173.957 272.512 173.186C272.447 172.385 272.04 171.994 271.633 171.994C271.471 171.994 271.212 172.052 270.91 172.189C270.613 172.324 270.296 172.526 270.015 172.792C269.46 173.319 269.06 174.087 269.226 175.098C269.344 175.818 269.655 176.426 270.111 176.941ZM263.793 176.148C263.98 176.056 264.149 175.963 264.297 175.872C265.285 175.264 266.072 173.998 266.287 172.753C266.394 172.136 266.356 171.55 266.155 171.069C265.957 170.596 265.596 170.206 265.014 169.973C263.87 169.516 262.431 170.156 261.93 171.445C261.5 172.55 261.743 174.243 263.793 176.148ZM255.101 174.961C255.331 174.834 255.563 174.696 255.796 174.545C257.992 173.125 258.704 171.562 258.738 170.32C258.773 169.048 258.107 168.088 257.5 167.801C256.066 167.122 254.776 167.572 254.013 168.557C253.242 169.553 252.998 171.121 253.777 172.678L253.784 172.691L253.789 172.704C254.154 173.629 254.601 174.371 255.101 174.961ZM246.972 175.009C248.004 174.094 248.826 172.958 249.335 171.548L249.339 171.538L249.344 171.527C250.227 169.522 250.089 167.882 249.5 166.76C248.906 165.63 247.847 165.003 246.817 165.003C245.776 165.003 244.159 165.805 243.547 167.371C242.95 168.9 243.267 171.301 246.38 174.582C246.545 174.72 246.743 174.865 246.972 175.009Z"/>
</mask>
<path fill-rule="evenodd" clip-rule="evenodd" d="M155.644 78.1394C152.939 75.4843 149.226 74.7282 146.39 77.0632C143.764 79.2252 140.77 82.232 138.237 84.9607C135.809 87.5767 133.684 90.4724 132.334 93.7444C124.802 112.006 132.617 130.65 145.988 147.987C156.974 162.233 169.505 172.318 178.116 177.296C179.243 177.948 178.903 179.737 177.597 179.9C101.154 189.453 49.1038 189.417 -51 179.483L-50.9342 178.821C49.1337 188.75 101.133 188.785 177.514 179.239C178.173 179.157 178.369 178.212 177.782 177.872C169.094 172.849 156.498 162.705 145.46 148.394C132.052 131.008 124.043 112.098 131.718 93.4907C133.108 90.1206 135.288 87.1587 137.748 84.5079C140.289 81.7712 143.306 78.7393 145.967 76.5492C149.151 73.9275 153.25 74.8569 156.111 77.6643C162.062 83.5057 165.596 88.857 168.517 96.2157C170.755 101.855 168.282 108.144 163.226 111.423L155.919 116.162C154.952 117.029 154.522 118.385 154.597 120.135C154.673 121.897 155.26 124.013 156.271 126.312C158.292 130.908 161.972 136.16 166.445 140.631C170.111 144.296 175.052 149.233 179.904 153.026C182.331 154.923 184.723 156.523 186.912 157.535C189.104 158.548 191.038 158.947 192.587 158.527C192.837 158.431 193.119 158.209 193.435 157.839C193.753 157.467 194.083 156.972 194.431 156.375C195.006 155.389 195.609 154.159 196.27 152.812C196.41 152.528 196.551 152.239 196.696 151.946C198.346 148.604 200.358 144.744 203.064 142.433C205.133 140.666 208.08 140.591 210.572 141.445C212.811 142.212 215.825 143.812 221.368 147.923C230.538 154.725 233.709 160.708 232.316 165.757C232.036 166.772 231.322 167.829 230.366 168.875C229.405 169.926 228.176 170.993 226.827 172.026C224.13 174.092 220.926 176.047 218.365 177.507C217.743 177.861 218.012 178.819 218.697 178.819H232.657C235.181 178.764 238.769 178.597 242.028 177.606C243.646 177.114 245.168 176.423 246.434 175.453C246.247 175.327 246.08 175.2 245.936 175.078L245.922 175.067L245.91 175.053C242.706 171.683 242.192 169.01 242.926 167.129C243.647 165.283 245.528 164.337 246.817 164.337C248.119 164.337 249.392 165.125 250.089 166.45C250.789 167.781 250.902 169.634 249.958 171.785C249.434 173.231 248.608 174.402 247.587 175.35C249.153 176.118 251.626 176.612 254.493 175.27C253.986 174.646 253.54 173.883 253.175 172.962C252.296 171.194 252.553 169.356 253.486 168.149C254.431 166.929 256.055 166.38 257.785 167.199C258.678 167.621 259.444 168.859 259.404 170.339C259.363 171.849 258.493 173.594 256.158 175.104C255.962 175.231 255.767 175.349 255.573 175.46C255.758 175.635 255.948 175.792 256.142 175.934C257.065 176.605 258.098 176.932 259.132 177.031C260.594 177.172 262.042 176.856 263.132 176.436C261.143 174.486 260.761 172.61 261.309 171.204C261.931 169.604 263.74 168.747 265.261 169.355C266.011 169.655 266.504 170.176 266.769 170.812C267.032 171.44 267.066 172.161 266.944 172.867C266.701 174.269 265.822 175.716 264.646 176.439C264.549 176.499 264.445 176.559 264.333 176.619C264.437 176.705 264.545 176.791 264.657 176.878C265.612 177.427 267.574 178.014 269.492 177.241C269.029 176.676 268.7 176.004 268.569 175.206C268.359 173.934 268.876 172.956 269.557 172.309C269.895 171.988 270.275 171.745 270.634 171.582C270.989 171.422 271.344 171.329 271.633 171.329C272.558 171.329 273.1 172.186 273.176 173.133C273.256 174.11 272.882 175.325 271.874 176.385C271.468 176.813 271.042 177.154 270.609 177.422C270.976 177.729 271.401 177.996 271.869 178.23C273.268 178.928 275.006 179.304 276.59 179.525C344.399 189.013 387.728 185.839 447.868 181.433C459.502 180.58 471.765 179.682 484.957 178.82L485 179.484C471.818 180.346 459.56 181.244 447.928 182.096C387.782 186.503 344.381 189.683 276.497 180.185C274.891 179.96 273.068 179.573 271.571 178.825C270.986 178.533 270.443 178.181 269.982 177.758C267.732 178.79 265.387 178.074 264.303 177.442L264.285 177.431L264.268 177.418C264.058 177.257 263.861 177.095 263.674 176.934C262.469 177.448 260.784 177.859 259.068 177.694C257.937 177.585 256.785 177.225 255.75 176.472C255.475 176.271 255.209 176.044 254.955 175.787C251.538 177.241 248.784 176.751 247.045 175.82C245.654 176.94 243.972 177.711 242.222 178.243C238.867 179.263 235.197 179.43 232.668 179.485L232.665 179.485H218.697C217.298 179.485 216.846 177.606 218.035 176.929C220.585 175.475 223.76 173.536 226.422 171.497C227.753 170.477 228.95 169.438 229.874 168.426C230.803 167.409 231.435 166.446 231.674 165.58C232.945 160.974 230.12 155.244 220.971 148.458C215.445 144.359 212.497 142.808 210.356 142.074C207.997 141.266 205.325 141.378 203.496 142.939C200.912 145.146 198.954 148.877 197.293 152.241C197.151 152.529 197.011 152.815 196.872 153.097C196.211 154.445 195.595 155.701 195.006 156.71C194.65 157.322 194.297 157.855 193.942 158.271C193.591 158.682 193.215 159.006 192.805 159.156L192.792 159.161L192.778 159.165C190.998 159.654 188.879 159.178 186.632 158.139C184.377 157.097 181.939 155.461 179.494 153.55C174.607 149.73 169.64 144.766 165.98 141.108L165.974 141.101C161.453 136.583 157.721 131.265 155.662 126.58C154.632 124.239 154.012 122.038 153.932 120.164C153.851 118.289 154.311 116.695 155.496 115.647L155.515 115.631L162.863 110.865C167.69 107.734 170.003 101.767 167.897 96.4612C165.012 89.1904 161.53 83.9169 155.644 78.1394ZM270.111 176.941C270.551 176.69 270.982 176.358 271.391 175.927C272.282 174.99 272.575 173.957 272.512 173.186C272.447 172.385 272.04 171.994 271.633 171.994C271.471 171.994 271.212 172.052 270.91 172.189C270.613 172.324 270.296 172.526 270.015 172.792C269.46 173.319 269.06 174.087 269.226 175.098C269.344 175.818 269.655 176.426 270.111 176.941ZM263.793 176.148C263.98 176.056 264.149 175.963 264.297 175.872C265.285 175.264 266.072 173.998 266.287 172.753C266.394 172.136 266.356 171.55 266.155 171.069C265.957 170.596 265.596 170.206 265.014 169.973C263.87 169.516 262.431 170.156 261.93 171.445C261.5 172.55 261.743 174.243 263.793 176.148ZM255.101 174.961C255.331 174.834 255.563 174.696 255.796 174.545C257.992 173.125 258.704 171.562 258.738 170.32C258.773 169.048 258.107 168.088 257.5 167.801C256.066 167.122 254.776 167.572 254.013 168.557C253.242 169.553 252.998 171.121 253.777 172.678L253.784 172.691L253.789 172.704C254.154 173.629 254.601 174.371 255.101 174.961ZM246.972 175.009C248.004 174.094 248.826 172.958 249.335 171.548L249.339 171.538L249.344 171.527C250.227 169.522 250.089 167.882 249.5 166.76C248.906 165.63 247.847 165.003 246.817 165.003C245.776 165.003 244.159 165.805 243.547 167.371C242.95 168.9 243.267 171.301 246.38 174.582C246.545 174.72 246.743 174.865 246.972 175.009Z" fill="black"/>
<path fill-rule="evenodd" clip-rule="evenodd" d="M155.644 78.1394C152.939 75.4843 149.226 74.7282 146.39 77.0632C143.764 79.2252 140.77 82.232 138.237 84.9607C135.809 87.5767 133.684 90.4724 132.334 93.7444C124.802 112.006 132.617 130.65 145.988 147.987C156.974 162.233 169.505 172.318 178.116 177.296C179.243 177.948 178.903 179.737 177.597 179.9C101.154 189.453 49.1038 189.417 -51 179.483L-50.9342 178.821C49.1337 188.75 101.133 188.785 177.514 179.239C178.173 179.157 178.369 178.212 177.782 177.872C169.094 172.849 156.498 162.705 145.46 148.394C132.052 131.008 124.043 112.098 131.718 93.4907C133.108 90.1206 135.288 87.1587 137.748 84.5079C140.289 81.7712 143.306 78.7393 145.967 76.5492C149.151 73.9275 153.25 74.8569 156.111 77.6643C162.062 83.5057 165.596 88.857 168.517 96.2157C170.755 101.855 168.282 108.144 163.226 111.423L155.919 116.162C154.952 117.029 154.522 118.385 154.597 120.135C154.673 121.897 155.26 124.013 156.271 126.312C158.292 130.908 161.972 136.16 166.445 140.631C170.111 144.296 175.052 149.233 179.904 153.026C182.331 154.923 184.723 156.523 186.912 157.535C189.104 158.548 191.038 158.947 192.587 158.527C192.837 158.431 193.119 158.209 193.435 157.839C193.753 157.467 194.083 156.972 194.431 156.375C195.006 155.389 195.609 154.159 196.27 152.812C196.41 152.528 196.551 152.239 196.696 151.946C198.346 148.604 200.358 144.744 203.064 142.433C205.133 140.666 208.08 140.591 210.572 141.445C212.811 142.212 215.825 143.812 221.368 147.923C230.538 154.725 233.709 160.708 232.316 165.757C232.036 166.772 231.322 167.829 230.366 168.875C229.405 169.926 228.176 170.993 226.827 172.026C224.13 174.092 220.926 176.047 218.365 177.507C217.743 177.861 218.012 178.819 218.697 178.819H232.657C235.181 178.764 238.769 178.597 242.028 177.606C243.646 177.114 245.168 176.423 246.434 175.453C246.247 175.327 246.08 175.2 245.936 175.078L245.922 175.067L245.91 175.053C242.706 171.683 242.192 169.01 242.926 167.129C243.647 165.283 245.528 164.337 246.817 164.337C248.119 164.337 249.392 165.125 250.089 166.45C250.789 167.781 250.902 169.634 249.958 171.785C249.434 173.231 248.608 174.402 247.587 175.35C249.153 176.118 251.626 176.612 254.493 175.27C253.986 174.646 253.54 173.883 253.175 172.962C252.296 171.194 252.553 169.356 253.486 168.149C254.431 166.929 256.055 166.38 257.785 167.199C258.678 167.621 259.444 168.859 259.404 170.339C259.363 171.849 258.493 173.594 256.158 175.104C255.962 175.231 255.767 175.349 255.573 175.46C255.758 175.635 255.948 175.792 256.142 175.934C257.065 176.605 258.098 176.932 259.132 177.031C260.594 177.172 262.042 176.856 263.132 176.436C261.143 174.486 260.761 172.61 261.309 171.204C261.931 169.604 263.74 168.747 265.261 169.355C266.011 169.655 266.504 170.176 266.769 170.812C267.032 171.44 267.066 172.161 266.944 172.867C266.701 174.269 265.822 175.716 264.646 176.439C264.549 176.499 264.445 176.559 264.333 176.619C264.437 176.705 264.545 176.791 264.657 176.878C265.612 177.427 267.574 178.014 269.492 177.241C269.029 176.676 268.7 176.004 268.569 175.206C268.359 173.934 268.876 172.956 269.557 172.309C269.895 171.988 270.275 171.745 270.634 171.582C270.989 171.422 271.344 171.329 271.633 171.329C272.558 171.329 273.1 172.186 273.176 173.133C273.256 174.11 272.882 175.325 271.874 176.385C271.468 176.813 271.042 177.154 270.609 177.422C270.976 177.729 271.401 177.996 271.869 178.23C273.268 178.928 275.006 179.304 276.59 179.525C344.399 189.013 387.728 185.839 447.868 181.433C459.502 180.58 471.765 179.682 484.957 178.82L485 179.484C471.818 180.346 459.56 181.244 447.928 182.096C387.782 186.503 344.381 189.683 276.497 180.185C274.891 179.96 273.068 179.573 271.571 178.825C270.986 178.533 270.443 178.181 269.982 177.758C267.732 178.79 265.387 178.074 264.303 177.442L264.285 177.431L264.268 177.418C264.058 177.257 263.861 177.095 263.674 176.934C262.469 177.448 260.784 177.859 259.068 177.694C257.937 177.585 256.785 177.225 255.75 176.472C255.475 176.271 255.209 176.044 254.955 175.787C251.538 177.241 248.784 176.751 247.045 175.82C245.654 176.94 243.972 177.711 242.222 178.243C238.867 179.263 235.197 179.43 232.668 179.485L232.665 179.485H218.697C217.298 179.485 216.846 177.606 218.035 176.929C220.585 175.475 223.76 173.536 226.422 171.497C227.753 170.477 228.95 169.438 229.874 168.426C230.803 167.409 231.435 166.446 231.674 165.58C232.945 160.974 230.12 155.244 220.971 148.458C215.445 144.359 212.497 142.808 210.356 142.074C207.997 141.266 205.325 141.378 203.496 142.939C200.912 145.146 198.954 148.877 197.293 152.241C197.151 152.529 197.011 152.815 196.872 153.097C196.211 154.445 195.595 155.701 195.006 156.71C194.65 157.322 194.297 157.855 193.942 158.271C193.591 158.682 193.215 159.006 192.805 159.156L192.792 159.161L192.778 159.165C190.998 159.654 188.879 159.178 186.632 158.139C184.377 157.097 181.939 155.461 179.494 153.55C174.607 149.73 169.64 144.766 165.98 141.108L165.974 141.101C161.453 136.583 157.721 131.265 155.662 126.58C154.632 124.239 154.012 122.038 153.932 120.164C153.851 118.289 154.311 116.695 155.496 115.647L155.515 115.631L162.863 110.865C167.69 107.734 170.003 101.767 167.897 96.4612C165.012 89.1904 161.53 83.9169 155.644 78.1394ZM270.111 176.941C270.551 176.69 270.982 176.358 271.391 175.927C272.282 174.99 272.575 173.957 272.512 173.186C272.447 172.385 272.04 171.994 271.633 171.994C271.471 171.994 271.212 172.052 270.91 172.189C270.613 172.324 270.296 172.526 270.015 172.792C269.46 173.319 269.06 174.087 269.226 175.098C269.344 175.818 269.655 176.426 270.111 176.941ZM263.793 176.148C263.98 176.056 264.149 175.963 264.297 175.872C265.285 175.264 266.072 173.998 266.287 172.753C266.394 172.136 266.356 171.55 266.155 171.069C265.957 170.596 265.596 170.206 265.014 169.973C263.87 169.516 262.431 170.156 261.93 171.445C261.5 172.55 261.743 174.243 263.793 176.148ZM255.101 174.961C255.331 174.834 255.563 174.696 255.796 174.545C257.992 173.125 258.704 171.562 258.738 170.32C258.773 169.048 258.107 168.088 257.5 167.801C256.066 167.122 254.776 167.572 254.013 168.557C253.242 169.553 252.998 171.121 253.777 172.678L253.784 172.691L253.789 172.704C254.154 173.629 254.601 174.371 255.101 174.961ZM246.972 175.009C248.004 174.094 248.826 172.958 249.335 171.548L249.339 171.538L249.344 171.527C250.227 169.522 250.089 167.882 249.5 166.76C248.906 165.63 247.847 165.003 246.817 165.003C245.776 165.003 244.159 165.805 243.547 167.371C242.95 168.9 243.267 171.301 246.38 174.582C246.545 174.72 246.743 174.865 246.972 175.009Z" stroke="black" stroke-width="1.2" mask="url(#path-5-outside-1_961_787)"/>
</g>
<defs>
<filter id="filter0_f_961_787" x="-82" y="-16" width="553" height="241" filterUnits="userSpaceOnUse" color-interpolation-filters="sRGB">
<feFlood flood-opacity="0" result="BackgroundImageFix"/>
<feBlend mode="normal" in="SourceGraphic" in2="BackgroundImageFix" result="shape"/>
<feGaussianBlur stdDeviation="10" result="effect1_foregroundBlur_961_787"/>
</filter>
</defs>
</svg>
