<svg width="20" height="20" viewBox="0 0 20 20" fill="none" xmlns="http://www.w3.org/2000/svg">
<path fill-rule="evenodd" clip-rule="evenodd" d="M2.50003 9.69999C1.50003 9.29999 1.00003 8.39999 0.700026 7.89999C0.300026 7.09999 0.400026 6.09999 0.500026 5.49999C0.600026 4.19999 1.30003 2.79999 1.90003 1.79999C2.30003 0.999988 3.20003 0.299988 4.20003 0.299988H15.4C16.5 0.299988 17.5 1.09999 18 1.99999C18.5 2.89999 19.2 4.19999 19.4 5.39999C19.5 5.99999 19.6 6.89999 19.2 7.69999C18.8 8.49999 18.1 9.39999 17.3 9.59999V15.7C17.3 17.8 15.6 19.6 13.4 19.6H6.40003C4.30003 19.6 2.50003 17.9 2.50003 15.7V9.69999ZM12.2 7.69999C12.3 7.69999 12.5 7.69999 12.6 7.69999C13.8 7.49999 14 6.39999 14 5.79999C14.1 6.39999 14 7.29999 15.4 7.59999C15.6 7.59999 15.9 7.69999 16.2 7.69999C16.4 7.69999 16 7.69999 16.2 7.69999C18.1 7.39999 17.4 4.69999 16.5 3.09999C16.3 2.69999 16 2.29999 15.5 2.29999H4.20003C3.90003 2.29999 3.70003 2.59999 3.60003 2.89999C2.60003 4.69999 1.70003 7.59999 3.70003 7.69999C3.80003 7.69999 3.60003 7.69999 3.70003 7.69999C4.00003 7.69999 4.20003 7.69999 4.40003 7.69999C5.80003 7.49999 5.80003 6.79999 5.90003 5.99999C5.90003 5.89999 5.90003 5.89999 5.90003 5.79999C6.00003 6.79999 5.90003 7.49999 7.30003 7.69999C7.50003 7.69999 7.80003 7.69999 8.10003 7.69999C8.30003 7.69999 8.50003 7.69999 8.70003 7.59999C9.60003 7.29999 10 6.29999 10 5.79999C10 6.29999 10.2 7.19999 11.3 7.59999C11.5 7.59999 11.8 7.69999 12.2 7.69999ZM4.50003 9.69999C4.90003 9.59999 5.40003 9.09999 5.70003 8.89999C6.10003 9.19999 6.80003 9.39999 8.00003 9.39999C9.20003 9.39999 9.60003 8.69999 9.80003 8.49999C10.4 9.19999 11.3 9.39999 12.1 9.39999C12.7 9.39999 13.3 9.09999 13.7 8.69999C14.1 8.99999 14.8 9.49999 15.4 9.59999V15.7C15.4 16.6 14.4 17.7 13.5 17.7H6.30003C5.40003 17.7 4.40003 16.6 4.40003 15.8L4.50003 9.69999Z" fill="#9D9D9D"/>
</svg>
