<svg width="20" height="20" viewBox="0 0 20 20" fill="none" xmlns="http://www.w3.org/2000/svg">
<path fill-rule="evenodd" clip-rule="evenodd" d="M1.70002 2.19999C2.00002 1.49999 2.90002 0.299988 4.20002 0.299988H15.8C16.7 0.299988 17.9 1.19999 18.5 2.49999C18.9 3.39999 19.6 4.59999 19.7 6.09999C19.8 7.19999 19.4 7.89999 19.2 8.19999C18.5 9.29999 18.1 9.49999 17.5 9.69999V15.9C17.5 17.8 15.9 19.7 13.5 19.7H6.40002C4.30002 19.7 2.50002 17.9 2.50002 16V9.69999C2.00002 9.49999 1.60002 9.29999 1.10002 8.59999C1.10002 8.39999 0.400024 7.79999 0.400024 6.09999C0.500024 4.99999 0.800025 3.89999 1.70002 2.19999ZM4.50002 9.69999V15.8C4.50002 16.4 5.40002 17.7 6.40002 17.7H13.6C14.5 17.7 15.5 16.6 15.5 15.7V9.59999C15 9.59999 14.1 8.99999 13.8 8.69999C13.6 8.79999 13.5 8.99999 13.4 8.99999C13 9.19999 12.5 9.39999 12 9.39999C11 9.39999 10.3 8.99999 9.80002 8.49999C9.40002 8.99999 8.80002 9.39999 8.00002 9.39999C7.00002 9.39999 6.20002 9.29999 5.70002 8.79999C5.40002 9.09999 4.90002 9.59999 4.50002 9.69999Z" fill="#FE5722"/>
</svg>
