<svg width="24" height="24" viewBox="0 0 24 24" fill="none" xmlns="http://www.w3.org/2000/svg">
<path fill-rule="evenodd" clip-rule="evenodd" d="M12.0001 2C6.36625 2 2 6.12681 2 11.7003C2 14.6159 3.19519 17.135 5.14089 18.8755C5.30387 19.0224 5.40246 19.2256 5.41051 19.4449L5.46483 21.2236C5.48294 21.791 6.06846 22.1592 6.58758 21.9318L8.57151 21.0566C8.74053 20.9821 8.92765 20.968 9.10472 21.0163C10.0162 21.2679 10.988 21.4007 12.0001 21.4007C17.634 21.4007 22.0003 17.2738 22.0003 11.7003C22.0003 6.12681 17.634 2 12.0001 2Z" fill="url(#paint0_radial_385_1263)"/>
<path fill-rule="evenodd" clip-rule="evenodd" d="M5.99603 14.5374L8.93369 9.87737C9.4005 9.13692 10.4025 8.9518 11.1027 9.47696L13.4388 11.2295C13.6541 11.3905 13.9478 11.3885 14.1611 11.2275L17.3161 8.83309C17.7366 8.51317 18.2879 9.0182 18.0042 9.46489L15.0686 14.1229C14.6018 14.8633 13.5997 15.0485 12.8995 14.5233L10.5635 12.7708C10.3482 12.6098 10.0544 12.6118 9.84115 12.7728L6.68416 15.1692C6.26364 15.4891 5.71232 14.9841 5.99603 14.5374Z" fill="white"/>
<defs>
<radialGradient id="paint0_radial_385_1263" cx="0" cy="0" r="1" gradientUnits="userSpaceOnUse" gradientTransform="translate(6 21.5) rotate(-56.3099) scale(19.8305)">
<stop stop-color="#0099FF"/>
<stop offset="0.589484" stop-color="#A033FF"/>
<stop offset="0.889153" stop-color="#FF5280"/>
<stop offset="1" stop-color="#FF7061"/>
<stop offset="1" stop-color="#FF5280"/>
</radialGradient>
</defs>
</svg>
