<svg width="31" height="32" viewBox="0 0 31 32" fill="none" xmlns="http://www.w3.org/2000/svg">
<g filter="url(#filter0_d_69_64)">
<rect x="7" y="3.12946" width="17" height="17" rx="8.5" fill="white"/>
</g>
<path d="M20.0272 8.6757C19.9453 8.58657 19.8429 8.53857 19.7132 8.53857H12.6418C12.5121 8.53857 12.4029 8.58657 12.3278 8.6757C12.2459 8.76484 12.2118 8.87454 12.2322 9.00482L12.7373 13.8798C12.7646 14.1678 13.0035 14.5243 13.2424 14.6751L15.7406 16.1561C15.8567 16.2247 16.0205 16.2658 16.1843 16.2658C16.3549 16.2658 16.5119 16.2247 16.628 16.1561L19.1262 14.6751C19.3719 14.538 19.5971 14.1678 19.6313 13.8798L20.1364 9.00482C20.1364 8.88826 20.1091 8.76484 20.0272 8.6757ZM17.9795 14.0786C17.7747 14.2158 17.5017 14.1609 17.3651 13.9621L16.0887 12.0765L15.3174 12.8513V13.7084C15.3174 13.9552 15.1195 14.154 14.8738 14.154C14.628 14.154 14.4301 13.9552 14.4301 13.7084V9.99215C14.4301 9.74532 14.628 9.54648 14.8738 9.54648C15.1195 9.54648 15.3174 9.74532 15.3174 9.99215V11.5897L17.2218 9.67675C17.3925 9.50534 17.6791 9.50534 17.8498 9.67675C18.0204 9.84817 18.0204 10.1361 17.8498 10.3076L16.7235 11.432C16.7235 11.4389 16.7304 11.4389 16.7304 11.4457L18.0955 13.4547C18.232 13.6604 18.1774 13.9346 17.9795 14.0786Z" fill="#5D2E8E"/>
<path d="M11.9837 9.76986L10.8636 9.88812L11.1376 12.5066L12.2577 12.3883L11.9837 9.76986Z" fill="#F9A61C"/>
<defs>
<filter id="filter0_d_69_64" x="0" y="0.129456" width="31" height="31" filterUnits="userSpaceOnUse" color-interpolation-filters="sRGB">
<feFlood flood-opacity="0" result="BackgroundImageFix"/>
<feColorMatrix in="SourceAlpha" type="matrix" values="0 0 0 0 0 0 0 0 0 0 0 0 0 0 0 0 0 0 127 0" result="hardAlpha"/>
<feOffset dy="4"/>
<feGaussianBlur stdDeviation="3.5"/>
<feComposite in2="hardAlpha" operator="out"/>
<feColorMatrix type="matrix" values="0 0 0 0 0 0 0 0 0 0 0 0 0 0 0 0 0 0 0.1 0"/>
<feBlend mode="normal" in2="BackgroundImageFix" result="effect1_dropShadow_69_64"/>
<feBlend mode="normal" in="SourceGraphic" in2="effect1_dropShadow_69_64" result="shape"/>
</filter>
</defs>
</svg>
