<svg width="200" height="200" viewBox="0 0 200 200" fill="none" xmlns="http://www.w3.org/2000/svg">
<path d="M75.4457 104.627C39.9302 119.231 39.3194 144.158 43.4535 154.797C61.8985 190.89 133.971 157.554 151.55 140.702C165.613 127.22 155.225 115.748 148.273 111.697C138.796 103.256 110.961 90.0242 75.4457 104.627Z" fill="url(#paint0_linear_665_3080)"/>
<path d="M155.667 156.261C141.343 156.261 138.254 160.642 137.13 164.576C137.13 173.848 148.926 173.848 152.297 172.162C155.404 170.608 169.991 156.261 155.667 156.261Z" fill="#B7E7DF"/>
<path d="M87.1574 68.0001C85.4134 68.0001 83.9995 69.3627 83.9995 71.0436V74.0871C83.9995 75.7679 85.4134 77.1306 87.1574 77.1306H96.6311C98.3752 77.1306 99.789 75.7679 99.789 74.0871V71.0436C99.789 69.3627 98.3752 68.0001 96.6311 68.0001H87.1574Z" fill="#383838"/>
<path d="M87.1574 104.522C85.4134 104.522 83.9995 105.884 83.9995 107.565V113.652C83.9995 115.333 85.4134 116.696 87.1574 116.696H112.421C114.165 116.696 115.578 115.333 115.578 113.652V107.565C115.578 105.884 114.165 104.522 112.421 104.522H87.1574Z" fill="#383838"/>
<path d="M83.9995 84.7392C83.9995 83.8988 84.7064 83.2175 85.5785 83.2175H114C114.872 83.2175 115.578 83.8988 115.578 84.7392C115.578 85.5797 114.872 86.261 114 86.261H85.5785C84.7064 86.261 83.9995 85.5797 83.9995 84.7392Z" fill="#383838"/>
<path d="M85.5785 91.3045C84.7064 91.3045 83.9995 91.9858 83.9995 92.8262C83.9995 93.6666 84.7064 94.3479 85.5785 94.3479H114C114.872 94.3479 115.578 93.6666 115.578 92.8262C115.578 91.9858 114.872 91.3045 114 91.3045H85.5785Z" fill="#383838"/>
<path fill-rule="evenodd" clip-rule="evenodd" d="M78.4206 55.0001H121.578C126.738 55.0001 131 59.0063 131 64.0436V121.957C131 126.994 126.738 131 121.578 131H78.4206C73.2612 131 68.9995 126.994 68.9995 121.957V64.0436C68.9995 59.0063 73.2612 55.0001 78.4206 55.0001ZM121.578 61.8262H78.4206C77.0688 61.8262 76.0521 62.8617 76.0521 64.0436V121.957C76.0521 123.139 77.0688 124.174 78.4206 124.174H121.578C122.93 124.174 123.947 123.139 123.947 121.957V64.0436C123.947 62.8617 122.93 61.8262 121.578 61.8262Z" fill="#383838"/>
<defs>
<linearGradient id="paint0_linear_665_3080" x1="135.105" y1="91.9416" x2="52.0502" y2="176.346" gradientUnits="userSpaceOnUse">
<stop stop-color="#B7E4EC"/>
<stop offset="1" stop-color="#B4EFAD"/>
</linearGradient>
</defs>
</svg>
