<svg width="389" height="210" viewBox="0 0 389 210" fill="none" xmlns="http://www.w3.org/2000/svg">
<mask id="mask0_962_902" style="mask-type:alpha" maskUnits="userSpaceOnUse" x="0" y="0" width="389" height="210">
<rect width="389" height="210" fill="white"/>
</mask>
<g mask="url(#mask0_962_902)">
<g opacity="0.2" filter="url(#filter0_f_962_902)">
<circle cx="-7" cy="59" r="55" fill="#FF8862"/>
<circle cx="390.5" cy="144.5" r="60.5" fill="#FFE895"/>
<path d="M198.5 136.5C198.5 142.575 203.575 151.5 197.5 151.5C191.425 151.5 191.5 139 191.5 136.5C191.5 134 192 127.5 196.5 130.5C201 133.5 198.5 130.425 198.5 136.5Z" fill="#FFC700"/>
</g>
<path fill-rule="evenodd" clip-rule="evenodd" d="M219.702 72.6221C199.375 70.2348 189.668 70.2229 168.025 73.0234C165 73.415 162.598 75.2587 162.123 78.0285C160.618 86.8093 160.447 103.586 160.277 121.167L160.275 111.413C160.126 126.772 160.049 146.549 158.987 158.923C158.724 161.977 158.125 165.022 156.773 167.773C147.673 186.288 124.081 185.998 98.1332 189.189C74.7745 192.061 49.0218 190.878 29.0404 189.961C25.1659 189.783 -35.716 184.928 -39.097 184.802C-39.6147 184.782 -40.0187 184.347 -39.9993 183.83C-39.9799 183.313 -39.5445 182.909 -39.0268 182.928C-35.6185 183.056 25.2835 187.911 29.172 188.089C49.1603 189.006 74.7196 190.179 97.904 187.328C124.062 184.112 146.708 184.722 155.172 166.684C156.232 164.426 156.732 161.954 156.962 159.471C158.091 147.262 158.247 127.018 158.4 111.269L158.401 121.149C158.57 103.657 158.736 86.6814 160.274 77.712C160.926 73.9083 164.191 71.6294 167.785 71.1643C189.579 68.3442 199.44 68.3549 219.921 70.7604C225.596 71.4269 230.027 76.0067 230.48 81.701C232.758 110.321 232.431 132.07 230.402 159.554C229.984 165.212 225.663 169.838 220.014 170.551C212.53 171.496 206.787 171.956 201.363 172.006C203.122 176.392 206.62 179.91 211.244 181.434C231.388 188.071 260.069 189.078 289.175 189.906C318.301 190.735 421.828 183.562 443.554 169.595C443.99 169.315 444.57 169.441 444.851 169.876C445.131 170.312 445.005 170.892 444.569 171.172C422.381 185.436 318.407 192.613 289.122 191.78C259.816 190.946 230.955 189.902 210.657 183.214C205.215 181.422 201.207 177.188 199.359 172.005C193.286 171.948 187.398 171.378 179.634 170.403C174.395 169.746 170.331 165.494 169.949 160.226C168.183 135.835 168.343 115.296 169.995 90.9271C170.356 85.6116 174.453 81.2903 179.754 80.6713C191.696 79.2765 198.256 79.1312 210.688 80.6113C216.065 81.2514 220.325 85.4742 220.978 90.8494C223.535 111.91 223.375 130.214 220.92 151.26C220.292 156.645 216.082 160.893 210.768 161.8C206.919 162.458 204.073 162.845 199.966 162.622L200.116 166.172C200.174 167.532 200.384 168.86 200.734 170.135C206.271 170.116 212.088 169.662 219.779 168.692C224.527 168.092 228.177 164.199 228.531 159.416C230.554 132.01 230.879 110.358 228.61 81.8496C228.228 77.0501 224.491 73.1846 219.702 72.6221ZM198.793 170.124C198.484 168.868 198.297 167.571 198.242 166.251L198.077 162.369C194.26 161.417 191.623 157.847 191.505 153.861L191.268 145.788C190.036 145.443 189.454 143.897 190.322 142.813L193.999 138.221C194.75 137.283 196.178 137.283 196.929 138.221L200.606 142.813C201.564 144.01 200.756 145.769 199.257 145.855L199.886 160.74C203.887 160.973 206.601 160.61 210.452 159.952C214.981 159.179 218.529 155.566 219.056 151.043C221.496 130.131 221.653 111.976 219.115 91.0752C218.567 86.5628 214.989 83.0111 210.466 82.4727C198.196 81.012 191.785 81.1535 179.972 82.5332C175.573 83.0469 172.167 86.6348 171.867 91.0538C170.22 115.347 170.061 135.798 171.821 160.091C172.137 164.461 175.511 167.996 179.868 168.543C187.317 169.478 193.004 170.037 198.793 170.124ZM197.994 160.387L197.3 143.984H199.141L195.464 139.392L191.787 143.984H193.092L193.381 153.806C193.47 156.839 195.341 159.463 197.994 160.387Z" fill="#E6E6E6"/>
<path fill-rule="evenodd" clip-rule="evenodd" d="M198.278 91.4952C198.278 93.5658 196.598 95.2444 194.526 95.2444C192.454 95.2444 190.774 93.5658 190.774 91.4952C190.774 89.4246 192.454 87.746 194.526 87.746C196.598 87.746 198.278 89.4246 198.278 91.4952ZM194.526 93.3698C195.562 93.3698 196.402 92.5305 196.402 91.4952C196.402 90.4599 195.562 89.6206 194.526 89.6206C193.49 89.6206 192.65 90.4599 192.65 91.4952C192.65 92.5305 193.49 93.3698 194.526 93.3698Z" fill="#E6E6E6"/>
</g>
<defs>
<filter id="filter0_f_962_902" x="-82" y="-16" width="553" height="241" filterUnits="userSpaceOnUse" color-interpolation-filters="sRGB">
<feFlood flood-opacity="0" result="BackgroundImageFix"/>
<feBlend mode="normal" in="SourceGraphic" in2="BackgroundImageFix" result="shape"/>
<feGaussianBlur stdDeviation="10" result="effect1_foregroundBlur_962_902"/>
</filter>
</defs>
</svg>
