<svg width="20" height="20" viewBox="0 0 20 20" fill="none" xmlns="http://www.w3.org/2000/svg">
<path fill-rule="evenodd" clip-rule="evenodd" d="M19.2 2.69999C19.2 1.39999 18.1 0.299988 16.6 0.299988H3.39999C2.69999 0.299988 2.09999 0.599988 1.59999 0.999988C0.999988 1.49999 0.799988 2.09999 0.799988 2.69999V18.9C0.799988 19.5 1.49999 19.8 1.89999 19.5L3.39999 18.5L4.49999 19.4C4.69999 19.6 5.09999 19.6 5.29999 19.5L6.69999 18.5L7.79999 19.4C7.99999 19.6 8.29999 19.6 8.59999 19.4L9.99999 18.5L11.2 19.4C11.4 19.6 11.7 19.6 12 19.4L13.4 18.4L14.9 19.5C15.3 19.8 15.9 19.6 15.9 18.9V16.4L18.3 17.1C18.7 17.2 19.2 16.9 19.2 16.4V2.69999ZM14 2.39999C14 2.59999 14 2.79999 14 2.89999V16.6L13.8 16.4C13.6 16.2 13.3 16.2 13 16.4L11.7 17.3L10.5 16.4C10.3 16.2 9.99999 16.2 9.69999 16.4L8.39999 17.3L7.19999 16.4C6.99999 16.2 6.59999 16.2 6.39999 16.4L5.09999 17.4L3.89999 16.5C3.69999 16.3 3.39999 16.3 3.09999 16.5L2.79999 16.7V2.69999C2.79999 2.49999 2.99999 2.29999 3.29999 2.29999H14C14 2.29999 14 2.29999 14 2.39999ZM15.9 14.6V3.19999V2.99999C15.9 2.59999 16.2 2.29999 16.6 2.29999C17 2.29999 17.3 2.69999 17.3 2.99999V15.2L15.9 14.6ZM4.39999 4.89999C4.39999 4.29999 4.89999 3.89999 5.39999 3.89999H11.5C12.1 3.89999 12.5 4.39999 12.5 4.89999C12.5 5.39999 12 5.89999 11.5 5.89999H5.39999C4.89999 5.99999 4.39999 5.49999 4.39999 4.89999ZM4.39999 9.09999C4.39999 8.49999 4.89999 8.09999 5.39999 8.09999H7.69999C8.29999 8.09999 8.69999 8.59999 8.69999 9.09999C8.69999 9.69999 8.19999 10.1 7.69999 10.1H5.39999C4.89999 10.1 4.39999 9.59999 4.39999 9.09999ZM12.5 9.09999C12.5 9.69999 12 10.1 11.5 10.1C10.9 10.1 10.5 9.59999 10.5 9.09999C10.5 8.49999 11 8.09999 11.5 8.09999C12.1 7.99999 12.5 8.49999 12.5 9.09999ZM4.39999 13.2C4.39999 12.6 4.89999 12.2 5.39999 12.2H7.69999C8.29999 12.2 8.69999 12.7 8.69999 13.2C8.69999 13.7 8.19999 14.2 7.69999 14.2H5.39999C4.89999 14.2 4.39999 13.7 4.39999 13.2ZM12.5 13.2C12.5 13.8 12 14.2 11.5 14.2C10.9 14.2 10.5 13.7 10.5 13.2C10.5 12.7 11 12.2 11.5 12.2C12.1 12.1 12.5 12.6 12.5 13.2Z" fill="#9D9D9D"/>
</svg>
