<svg width="20" height="20" viewBox="0 0 20 20" fill="none" xmlns="http://www.w3.org/2000/svg">
<path fill-rule="evenodd" clip-rule="evenodd" d="M19 16.4C19 16.9 18.5 17.2 18.1 17.1L15.8 16.4V18.9C15.8 19.5 15.3 19.7 14.8 19.4L13.3 18.4L12 19.3C11.7 19.5 11.4 19.5 11.2 19.3L10 18.4L8.7 19.3C8.4 19.5 8.1 19.5 7.9 19.3L6.8 18.4L5.5 19.3C5.2 19.5 4.9 19.5 4.7 19.3L3.5 18.4L2.1 19.4C1.6 19.7 1 19.4 1 18.8V2.90001C1 2.30001 1.3 1.70001 1.8 1.30001C2.3 0.900012 2.9 0.700012 3.5 0.700012H16.5C17.8 0.700012 19 1.70001 19 3.00001V16.4ZM15.8 14.5L17.2 15V3.20001C17.2 2.80001 16.9 2.50001 16.5 2.50001C16.1 2.50001 15.8 2.80001 15.8 3.20001V3.40001V14.5ZM4.5 5.10001C4.5 4.50001 4.9 4.10001 5.5 4.10001H11.5C12.1 4.10001 12.5 4.50001 12.5 5.10001C12.5 5.70001 12.1 6.10001 11.5 6.10001H5.5C4.9 6.10001 4.5 5.70001 4.5 5.10001ZM5.5 8.20001C4.9 8.20001 4.5 8.60001 4.5 9.20001C4.5 9.80001 4.9 10.2 5.5 10.2H7.8C8.4 10.2 8.8 9.80001 8.8 9.20001C8.8 8.60001 8.4 8.20001 7.8 8.20001H5.5ZM4.5 13.2C4.5 12.6 4.9 12.2 5.5 12.2H7.8C8.4 12.2 8.8 12.6 8.8 13.2C8.8 13.8 8.4 14.2 7.8 14.2H5.5C4.9 14.2 4.5 13.7 4.5 13.2ZM11.5 8.20001C10.9 8.20001 10.5 8.60001 10.5 9.20001C10.5 9.80001 10.9 10.2 11.5 10.2C12.1 10.2 12.5 9.80001 12.5 9.20001C12.5 8.60001 12.1 8.20001 11.5 8.20001ZM10.5 13.2C10.5 12.6 10.9 12.2 11.5 12.2C12.1 12.2 12.5 12.6 12.5 13.2C12.5 13.8 12.1 14.2 11.5 14.2C10.9 14.2 10.5 13.7 10.5 13.2Z" fill="#FF5722"/>
</svg>
