<svg width="24" height="24" viewBox="0 0 24 24" fill="none" xmlns="http://www.w3.org/2000/svg">
<path d="M19.8184 2.90432C19.2969 2.43633 17.0458 1.03934 12.3487 1.01911C12.3487 1.01911 6.78673 0.658182 4.08675 3.07356C2.58403 4.53897 2.07778 6.71815 2.02228 9.37745C1.96677 12.0368 1.67919 17.117 6.6042 18.4683C6.6042 18.4683 6.58483 22.2398 6.58259 22.5713C6.58259 22.8031 6.61984 22.9617 6.75395 22.9944C6.85043 23.0176 6.99496 22.9683 7.11789 22.8473C7.90539 22.0662 10.4266 19.0621 10.4266 19.0621C13.8094 19.2803 16.5008 18.6206 16.7902 18.5272C17.4727 18.3105 21.1639 17.9974 21.7886 13.0136C22.4342 7.87635 21.5513 4.36973 19.8184 2.90432Z" fill="#7360F2"/>
<path fill-rule="evenodd" clip-rule="evenodd" d="M12.5466 7.22627C12.5556 7.05521 12.7034 6.92377 12.8766 6.9327C13.5246 6.96608 14.0637 7.15981 14.4476 7.55192C14.8301 7.94252 15.0176 8.48819 15.0506 9.14354C15.0592 9.31463 14.9257 9.4602 14.7525 9.46868C14.5793 9.47717 14.4319 9.34536 14.4233 9.17428C14.3951 8.61329 14.2393 8.23138 13.9962 7.98316C13.7546 7.73644 13.3859 7.58009 12.8438 7.55216C12.6706 7.54324 12.5376 7.39733 12.5466 7.22627Z" fill="white"/>
<path fill-rule="evenodd" clip-rule="evenodd" d="M12.0706 5.55533C12.0832 5.3845 12.2337 5.25614 12.4067 5.26864C13.7254 5.36397 14.7869 5.80899 15.56 6.64256L15.5601 6.64268C16.3249 7.46804 16.6884 8.49479 16.662 9.6991C16.6582 9.87035 16.5146 10.0062 16.3412 10.0025C16.1679 9.99876 16.0303 9.85693 16.0341 9.68568C16.0574 8.62362 15.7411 7.75682 15.0968 7.06146C14.4544 6.36898 13.5565 5.97372 12.3608 5.8873C12.1879 5.8748 12.0579 5.72617 12.0706 5.55533Z" fill="white"/>
<path fill-rule="evenodd" clip-rule="evenodd" d="M11.5162 3.96691C11.5174 3.79562 11.659 3.65773 11.8324 3.65892C13.6548 3.67146 15.1952 4.27067 16.432 5.46148C17.6792 6.66224 18.2959 8.29696 18.3116 10.3273C18.3129 10.4986 18.1734 10.6385 17.9999 10.6398C17.8265 10.6411 17.6848 10.5033 17.6835 10.332C17.6689 8.42949 17.0958 6.96684 15.9936 5.90565C14.8811 4.8345 13.4998 4.29072 11.828 4.27922C11.6546 4.27802 11.515 4.1382 11.5162 3.96691Z" fill="white"/>
<path d="M12.9224 13.3131C12.9224 13.3131 13.3638 13.3499 13.6015 13.0607L14.0649 12.4849C14.2884 12.1994 14.8278 12.0173 15.356 12.3079C15.7519 12.5309 16.1362 12.7733 16.5075 13.0342C16.858 13.2888 17.5758 13.8804 17.5781 13.8804C17.9201 14.1655 17.999 14.5842 17.7662 15.0257C17.7662 15.0283 17.7643 15.0327 17.7643 15.0349C17.5079 15.474 17.1824 15.8699 16.7999 16.2078C16.7954 16.21 16.7954 16.2123 16.7913 16.2145C16.4591 16.4887 16.1326 16.6446 15.812 16.6821C15.7648 16.6902 15.7168 16.6932 15.669 16.6909C15.5276 16.6923 15.3869 16.6709 15.2525 16.6276L15.242 16.6125C14.7481 16.4749 13.9234 16.1306 12.5499 15.3822C11.7551 14.9543 10.9984 14.4606 10.288 13.9065C9.9319 13.6289 9.59223 13.3314 9.27065 13.0154L9.16784 12.9139C9.15629 12.9028 9.14511 12.8914 9.13357 12.88C8.81361 12.5624 8.51237 12.2269 8.23134 11.8752C7.6704 11.1736 7.17057 10.4264 6.73718 9.64162C5.97949 8.28474 5.63082 7.4709 5.4915 6.98231L5.47622 6.97201C5.43255 6.83922 5.41104 6.70029 5.41252 6.56068C5.40992 6.51342 5.41279 6.46601 5.42109 6.4194C5.46108 6.10323 5.61915 5.78057 5.8953 5.45141C5.89754 5.44736 5.89977 5.44736 5.90201 5.44295C6.24409 5.06521 6.64498 4.74378 7.08958 4.49078C7.09182 4.49078 7.09629 4.48857 7.09889 4.48857C7.54591 4.25862 7.96983 4.33662 8.25816 4.67253C8.26039 4.67473 8.85828 5.38371 9.11494 5.72992C9.37914 6.09701 9.62456 6.47693 9.85028 6.86826C10.1446 7.38959 9.96017 7.92344 9.6711 8.14346L9.08812 8.60115C8.79383 8.83588 8.83258 9.27186 8.83258 9.27186C8.83258 9.27186 9.69606 12.4996 12.9224 13.3131Z" fill="white"/>
</svg>
