<svg width="20" height="16" viewBox="0 0 20 16" fill="none" xmlns="http://www.w3.org/2000/svg">
<path d="M19.232 14.9112L18.2898 9.09868C18.2758 9.00728 18.1961 8.94165 18.1047 8.94165H11.9734C11.882 8.94165 11.8023 9.00728 11.7883 9.09868L10.8461 14.9112C10.8437 14.9206 10.8438 14.9323 10.8438 14.9417C10.8438 15.0448 10.9281 15.1292 11.0312 15.1292H19.0469C19.0562 15.1292 19.068 15.1292 19.0773 15.1268C19.1781 15.1104 19.2484 15.0143 19.232 14.9112ZM8.21172 9.09868C8.19766 9.00728 8.11797 8.94165 8.02656 8.94165H1.89531C1.80391 8.94165 1.72422 9.00728 1.71016 9.09868L0.767969 14.9112C0.765625 14.9206 0.765625 14.9323 0.765625 14.9417C0.765625 15.0448 0.85 15.1292 0.953125 15.1292H8.96875C8.97812 15.1292 8.98984 15.1292 8.99922 15.1268C9.10234 15.1104 9.17031 15.0143 9.15391 14.9112L8.21172 9.09868ZM6.01562 7.06665H14.0312C14.0406 7.06665 14.0523 7.06665 14.0617 7.06431C14.1648 7.0479 14.2328 6.95181 14.2164 6.84868L13.2742 1.03618C13.2602 0.944775 13.1805 0.87915 13.0891 0.87915H6.95781C6.86641 0.87915 6.78672 0.944775 6.77266 1.03618L5.83047 6.84868C5.82812 6.85806 5.82812 6.86978 5.82812 6.87915C5.82812 6.98228 5.9125 7.06665 6.01562 7.06665Z" fill="#FF5722"/>
</svg>
