<svg width="22" height="22" viewBox="0 0 22 22" fill="none" xmlns="http://www.w3.org/2000/svg">
<path fill-rule="evenodd" clip-rule="evenodd" d="M11 20C15.9706 20 20 15.9706 20 11C20 6.02944 15.9706 2 11 2C6.02944 2 2 6.02944 2 11C2 15.9706 6.02944 20 11 20ZM11 22C17.0751 22 22 17.0751 22 11C22 4.92487 17.0751 0 11 0C4.92487 0 0 4.92487 0 11C0 17.0751 4.92487 22 11 22Z" fill="#B72F2F"/>
<path d="M4.83301 8.91895L2.89941 14.8125H1.3418L3.9834 7.70312H4.97461L4.83301 8.91895ZM6.43945 14.8125L4.50098 8.91895L4.34473 7.70312H5.3457L8.00195 14.8125H6.43945ZM6.35156 12.166V13.3135H2.59668V12.166H6.35156Z" fill="black"/>
<path d="M10.8438 14.8125H9.2959L9.30566 13.6699H10.8438C11.2279 13.6699 11.5518 13.5837 11.8154 13.4111C12.0791 13.2354 12.2777 12.9798 12.4111 12.6445C12.5479 12.3092 12.6162 11.904 12.6162 11.4287V11.082C12.6162 10.7174 12.5771 10.3968 12.499 10.1201C12.4242 9.84342 12.3118 9.61068 12.1621 9.42188C12.0124 9.23307 11.8285 9.09147 11.6104 8.99707C11.3923 8.89941 11.1416 8.85059 10.8584 8.85059H9.2666V7.70312H10.8584C11.3337 7.70312 11.7682 7.78451 12.1621 7.94727C12.5592 8.10677 12.9027 8.33626 13.1924 8.63574C13.4821 8.93522 13.7051 9.29329 13.8613 9.70996C14.0208 10.1234 14.1006 10.584 14.1006 11.0918V11.4287C14.1006 11.9333 14.0208 12.3939 13.8613 12.8105C13.7051 13.2272 13.4821 13.5853 13.1924 13.8848C12.9059 14.181 12.5625 14.4105 12.1621 14.5732C11.765 14.7327 11.3255 14.8125 10.8438 14.8125ZM10.126 7.70312V14.8125H8.66113V7.70312H10.126Z" fill="black"/>
<path d="M18.8662 12.9521C18.8662 12.8252 18.8467 12.7113 18.8076 12.6104C18.7718 12.5062 18.7035 12.4118 18.6025 12.3271C18.5016 12.2393 18.36 12.153 18.1777 12.0684C17.9954 11.9837 17.7594 11.8958 17.4697 11.8047C17.1475 11.7005 16.8415 11.5833 16.5518 11.4531C16.2653 11.3229 16.0114 11.1715 15.79 10.999C15.5719 10.8232 15.3994 10.6198 15.2725 10.3887C15.1488 10.1576 15.0869 9.889 15.0869 9.58301C15.0869 9.28678 15.152 9.01823 15.2822 8.77734C15.4124 8.5332 15.5947 8.32487 15.8291 8.15234C16.0635 7.97656 16.3402 7.84147 16.6592 7.74707C16.9814 7.65267 17.3346 7.60547 17.7188 7.60547C18.2428 7.60547 18.7002 7.69987 19.0908 7.88867C19.4814 8.07747 19.7842 8.33626 19.999 8.66504C20.2171 8.99382 20.3262 9.36979 20.3262 9.79297H18.8711C18.8711 9.58464 18.8271 9.40234 18.7393 9.24609C18.6546 9.08659 18.5244 8.96126 18.3486 8.87012C18.1761 8.77897 17.958 8.7334 17.6943 8.7334C17.4404 8.7334 17.2288 8.77246 17.0596 8.85059C16.8903 8.92546 16.7633 9.02799 16.6787 9.1582C16.5941 9.28516 16.5518 9.42839 16.5518 9.58789C16.5518 9.70833 16.5811 9.81738 16.6396 9.91504C16.7015 10.0127 16.7926 10.1038 16.9131 10.1885C17.0335 10.2731 17.1816 10.3529 17.3574 10.4277C17.5332 10.5026 17.7367 10.5758 17.9678 10.6475C18.3551 10.7646 18.6953 10.8965 18.9883 11.043C19.2845 11.1895 19.5319 11.3538 19.7305 11.5361C19.929 11.7184 20.0788 11.9251 20.1797 12.1562C20.2806 12.3874 20.3311 12.6494 20.3311 12.9424C20.3311 13.2516 20.2708 13.5283 20.1504 13.7725C20.0299 14.0166 19.8558 14.2233 19.6279 14.3926C19.4001 14.5618 19.1283 14.6904 18.8125 14.7783C18.4967 14.8662 18.1436 14.9102 17.7529 14.9102C17.4014 14.9102 17.0547 14.8646 16.7129 14.7734C16.3711 14.679 16.0602 14.5374 15.7803 14.3486C15.5036 14.1598 15.2822 13.9189 15.1162 13.626C14.9502 13.333 14.8672 12.9863 14.8672 12.5859H16.3369C16.3369 12.8073 16.3711 12.9945 16.4395 13.1475C16.5078 13.3005 16.6038 13.4242 16.7275 13.5186C16.8545 13.613 17.0042 13.6813 17.1768 13.7236C17.3525 13.766 17.5446 13.7871 17.7529 13.7871C18.0068 13.7871 18.2152 13.7513 18.3779 13.6797C18.5439 13.6081 18.666 13.5088 18.7441 13.3818C18.8255 13.2549 18.8662 13.1117 18.8662 12.9521Z" fill="black"/>
<path fill-rule="evenodd" clip-rule="evenodd" d="M16.7978 18.5548L3.73529 4.461L5.20215 3.10147L18.2647 17.1952L16.7978 18.5548Z" fill="#B72F2F"/>
</svg>
