<svg width="20" height="24" viewBox="0 0 20 24" fill="none" xmlns="http://www.w3.org/2000/svg">
<path d="M0 20.5L4 13L11 17L7 24L4.5 20L0 20.5Z" fill="#F15858"/>
<path d="M20 20.5L16 13L9 17L13 24L15.5 20L20 20.5Z" fill="#EA4E4E"/>
<circle cx="10" cy="9" r="9" fill="#FFCC5B"/>
<circle cx="10" cy="9" r="6" fill="#FFDB70"/>
<path d="M9.61955 5.17082C9.73929 4.8023 10.2607 4.8023 10.3804 5.17082L11.1225 7.45492H13.5242C13.9117 7.45492 14.0728 7.95076 13.7593 8.17852L11.8163 9.59017L12.5585 11.8743C12.6782 12.2428 12.2564 12.5492 11.9429 12.3215L9.99997 10.9098L8.05701 12.3215C7.74352 12.5492 7.32173 12.2428 7.44147 11.8743L8.18362 9.59017L6.24065 8.17852C5.92716 7.95076 6.08827 7.45492 6.47576 7.45492H8.8774L9.61955 5.17082Z" fill="#EC9922"/>
</svg>
