<svg width="285" height="199" viewBox="0 0 285 199" fill="none" xmlns="http://www.w3.org/2000/svg">
<path d="M153.1 191.6C200.265 191.6 238.5 153.365 238.5 106.2C238.5 59.0347 200.265 20.7998 153.1 20.7998C105.935 20.7998 67.7002 59.0347 67.7002 106.2C67.7002 153.365 105.935 191.6 153.1 191.6Z" fill="#F1C280"/>
<path d="M101.3 7.3999C76.5004 7.3999 56.4004 27.4999 56.4004 52.2999C56.4004 65.0999 61.8004 76.6999 70.4004 84.8999C78.4004 53.7999 103.5 29.4999 135.1 22.6999C126.8 13.2999 114.8 7.3999 101.3 7.3999Z" fill="#FFDDD3"/>
<path d="M135.1 22.7C103.5 29.5 78.4004 53.7 70.4004 84.9C78.5004 92.6 89.3004 97.3 101.3 97.3C126.1 97.3 146.2 77.2 146.2 52.4C146.2 40.9 142 30.6 135.1 22.7Z" fill="#F4AC6D"/>
<path d="M67.9002 100C59.1002 100.8 52.2002 108.2 52.2002 117.3C52.2002 126.9 60.0002 134.6 69.5002 134.6C70.5002 134.6 71.4002 134.5 72.4002 134.4C69.3002 125.6 67.6002 116.1 67.6002 106.2C67.7002 104.1 67.7002 102.1 67.9002 100Z" fill="#FFDDD3"/>
<path d="M69.5001 100C68.9001 100 68.4001 100 67.8001 100.1C67.7001 102.1 67.6001 104.2 67.6001 106.3C67.6001 116.2 69.3001 125.7 72.4001 134.5C80.6001 133.1 86.9001 126 86.9001 117.4C86.9001 107.7 79.1001 100 69.5001 100Z" fill="#F4AC6D"/>
<path d="M127.1 65.5999C127.1 65.5999 120.3 68.7999 125.1 73.4999L129.6 72.9999L127.1 65.5999Z" fill="#666666"/>
<path d="M127.1 65.5998L127 65.3998C127 65.3998 126 65.7998 125.1 66.5998C124.6 66.9998 124.1 67.4998 123.8 68.0998C123.4 68.6998 123.2 69.2998 123.2 70.0998C123.2 71.1998 123.7 72.3998 125 73.5998L125.1 73.6998L130 73.1998L127.3 65.2998L127.1 65.3998V65.5998L126.9 65.6998L129.4 72.8998L125.1 73.3998V73.5998L125.3 73.3998C124.1 72.1998 123.6 71.0998 123.6 70.1998C123.6 69.4998 123.8 68.9998 124.1 68.3998C124.6 67.5998 125.4 66.9998 126 66.4998C126.3 66.2998 126.6 66.0998 126.8 65.9998C126.9 65.8998 127 65.8998 127 65.8998H127.1V65.5998Z" fill="black"/>
<path d="M128.6 69.8999C128.6 69.8999 120.8 73.2999 125.6 77.9999L130.1 77.4999L128.6 69.8999Z" fill="#666666"/>
<path d="M128.6 69.9L128.5 69.7C128.5 69.7 127.3 70.2 126.2 71.1C125.6 71.6 125 72.1 124.6 72.7C124.2 73.3 123.9 74.1 123.9 74.9C123.9 75.9 124.4 77 125.6 78.2L125.7 78.3L130.6 77.8L128.9 69.7L128.7 69.8L128.6 69.9H128.4L129.9 77.3L125.6 77.8V78L125.8 77.8C124.7 76.7 124.3 75.7 124.3 74.8C124.3 74.1 124.6 73.4 125 72.9C125.6 72 126.6 71.3 127.3 70.8C127.7 70.6 128 70.4 128.3 70.2C128.4 70.1 128.5 70.1 128.6 70.1C128.7 70.1 128.7 70.1 128.7 70.1L128.6 69.9Z" fill="black"/>
<path d="M172.3 189L169.5 175.9L175.8 119.6L155.7 115H137.5L121.7 123.7L131.3 179.1L130.7 188.3C130.7 188.2 150.7 194.4 172.3 189Z" fill="#F4CA1C"/>
<path d="M172.3 189L172.7 188.9L169.9 175.9L176.2 119.2L155.7 114.5H137.3L121.1 123.4L130.8 179.1L130.2 188.6L130.5 188.7C130.5 188.7 140.2 191.7 153.5 191.7C159.3 191.7 165.7 191.1 172.3 189.5L172.7 189.4L172.6 189H172.3L172.2 188.6C165.7 190.2 159.3 190.8 153.6 190.8C147.1 190.8 141.4 190.1 137.3 189.3C135.3 188.9 133.7 188.6 132.6 188.3C132.1 188.2 131.6 188.1 131.3 188C131.2 188 131.1 187.9 131 187.9C130.9 187.9 130.9 187.9 130.9 187.9L130.8 188.3H131.2L131.8 179.1L122.2 123.9L137.6 115.4H155.7L175.4 119.9L169.2 175.9L172 189.1L172.3 189Z" fill="black"/>
<path d="M172.3 147.2L189.1 165.3C189.1 165.3 192.8 167.9 196.3 166.2C199.8 164.6 232.8 142.4 232.8 142.4L228.4 136.7L196 153.3L175.9 120.2L172.3 147.2Z" fill="#F4CA1C"/>
<path d="M172.3 147.2L172 147.5L188.8 165.6C188.8 165.6 189.4 166 190.3 166.4C191.2 166.8 192.4 167.2 193.8 167.2C194.7 167.2 195.6 167 196.5 166.6C196.7 166.5 197.1 166.3 197.5 166.1C199.1 165.1 202.2 163.2 205.8 160.9C216.7 153.8 233 142.8 233 142.8L233.4 142.6L228.5 136.3L196.1 152.9L175.5 119L171.8 147.4L171.9 147.5L172.3 147.2L172.7 147.3L176.1 121.5L195.8 153.9L228.2 137.3L232.4 142.7L232.7 142.4L232.5 142C232.5 142 232 142.3 231.1 143C227.9 145.1 219.9 150.5 212.3 155.5C208.5 158 204.8 160.4 201.9 162.3C200.4 163.2 199.2 164 198.2 164.7C197.2 165.3 196.5 165.7 196.1 165.9C195.3 166.3 194.5 166.4 193.8 166.4C192.6 166.4 191.5 166.1 190.7 165.7C190.3 165.5 190 165.3 189.7 165.2C189.6 165.1 189.5 165.1 189.4 165H189.3L189.1 165.4L189.4 165.1L172.5 147L172.3 147.2Z" fill="black"/>
<path d="M229.7 138.4L234.2 135.9C234.2 135.9 234.4 129.2 235.7 127.8C236.9 126.3 242.1 124.8 244.1 125.2C246.7 125.7 246 127 245.8 127.7C245.8 127.7 248 127.6 247.4 129.9C247.4 129.9 250 130.3 248.5 132.4C248.5 132.4 251.5 132.6 249.7 135.1C249.2 135.9 247.2 137.5 245.8 138.7C245.1 139.4 244.1 139.8 243.1 139.8L237.6 140L232.9 142.5L229.7 138.4Z" fill="#F1C280"/>
<path d="M229.7 138.4L229.9 138.8L234.6 136.2V136C234.6 136 234.6 135.9 234.6 135.7C234.6 135.1 234.7 133.4 234.9 131.8C235 131 235.2 130.2 235.3 129.5C235.5 128.8 235.7 128.3 235.9 128.1C236.1 127.8 236.6 127.5 237.1 127.2C237.9 126.7 239.1 126.3 240.2 126C241.3 125.7 242.4 125.5 243.3 125.5C243.6 125.5 243.8 125.5 244 125.5C244.8 125.6 245.2 125.8 245.4 126C245.5 126.1 245.6 126.2 245.6 126.2C245.6 126.3 245.6 126.4 245.6 126.4C245.6 126.5 245.6 126.7 245.5 126.8C245.5 127 245.4 127.1 245.4 127.3L245.3 127.8H245.8C245.9 127.8 246.2 127.8 246.5 128C246.6 128.1 246.8 128.2 246.9 128.3C247 128.4 247.1 128.6 247.1 128.9C247.1 129.1 247.1 129.3 247 129.5L246.9 130L247.4 130.1C247.4 130.1 247.8 130.2 248.1 130.3C248.3 130.4 248.4 130.5 248.5 130.6C248.6 130.7 248.6 130.8 248.6 131C248.6 131.2 248.5 131.5 248.2 131.9L247.7 132.5H248.5C248.5 132.5 248.9 132.5 249.3 132.7C249.5 132.8 249.6 132.9 249.7 133C249.8 133.1 249.9 133.2 249.9 133.4C249.9 133.6 249.8 134 249.4 134.6C249.3 134.8 249.1 135 248.8 135.3C248 136.1 246.6 137.2 245.6 138.2C244.9 138.8 244.1 139.2 243.1 139.2L237.5 139.4L233.1 141.7L230.2 138L229.7 138.4L229.4 138.7L232.7 142.9L237.6 140.3L243 140.1C244.1 140.1 245.2 139.6 246 138.9C246.7 138.3 247.5 137.6 248.2 136.9C248.6 136.6 248.9 136.3 249.2 136C249.5 135.7 249.7 135.5 249.9 135.2C250.3 134.6 250.5 134 250.5 133.6C250.5 133.2 250.3 132.8 250.1 132.6C249.8 132.2 249.3 132.1 249 132C248.6 131.9 248.4 131.9 248.4 131.9V132.3L248.7 132.6C249.1 132.1 249.2 131.6 249.2 131.2C249.2 130.8 249.1 130.5 248.9 130.3C248.6 129.9 248.2 129.8 247.9 129.6C247.6 129.5 247.4 129.4 247.3 129.4L247.2 129.8L247.6 129.9C247.7 129.6 247.7 129.3 247.7 129C247.7 128.6 247.6 128.2 247.4 127.9C247.1 127.5 246.7 127.3 246.3 127.2C246 127.1 245.7 127.1 245.6 127.1V127.5L246 127.6C246 127.5 246.1 127.3 246.1 127.1C246.1 126.9 246.2 126.7 246.2 126.4C246.2 126.2 246.2 126 246.1 125.8C246 125.5 245.7 125.2 245.4 125C245 124.8 244.6 124.6 243.9 124.5C243.6 124.5 243.4 124.4 243.1 124.4C241.8 124.4 240.2 124.8 238.7 125.3C237.9 125.6 237.2 125.9 236.6 126.2C236 126.5 235.5 126.9 235.1 127.3C234.9 127.5 234.7 127.8 234.6 128.2C234.4 128.8 234.2 129.6 234.1 130.4C233.7 132.8 233.6 135.7 233.6 135.7H234L233.8 135.3L228.9 138L229.2 138.4H229.7Z" fill="black"/>
<path d="M135.9 178.4V154.8L123.9 125.4C123.9 125.4 122.7 120.6 124.5 118.3C126.2 116 131.6 112.6 135.3 112.6C139 112.6 155.3 112.6 155.3 112.6L164.6 115.5C164.6 115.5 168.7 118.7 168.8 120C168.9 121.3 171.5 133.7 171.2 135.2C171 136.7 168.8 148 168.8 148L168.3 159.6L168 171.2L165 174H159.5L164.5 158.2L156.1 115L138.4 114.8L131.8 117.9L146.5 171.1C146.5 171.1 148.5 176.7 145.6 177C142.7 177.3 140.7 176.9 140.7 176.9C140.7 176.9 136.6 179.7 135.9 178.4Z" fill="#FF5621"/>
<path d="M135.9 178.4H136.3V154.7L124.3 125.2L123.9 125.4L124.3 125.3C124.3 125.1 123.9 123.7 123.9 122.1C123.9 121.5 123.9 120.8 124.1 120.2C124.2 119.6 124.5 119 124.8 118.6C125.2 118.1 125.8 117.4 126.6 116.8C127.8 115.9 129.3 114.9 130.8 114.2C132.3 113.5 133.9 113 135.2 113C138.9 113 155.2 113 155.2 113V112.6L155.1 113L164.4 115.9L164.5 115.5L164.2 115.8C164.2 115.8 164.3 115.8 164.4 115.9C164.8 116.2 165.8 117 166.6 117.9C167 118.3 167.5 118.8 167.8 119.2C168 119.4 168.1 119.6 168.2 119.7C168.3 119.9 168.3 120 168.3 120C168.3 120.2 168.4 120.5 168.4 120.9C168.7 122.4 169.2 125.4 169.8 128.3C170.1 129.7 170.3 131.1 170.5 132.3C170.7 133.5 170.8 134.4 170.8 134.9C170.8 135 170.8 135.1 170.8 135.1C170.7 135.5 170.6 136.5 170.3 137.7C169.9 139.6 169.5 142.1 169.1 144.2C168.9 145.2 168.7 146.1 168.6 146.8C168.5 147.5 168.4 147.8 168.4 147.8L167.9 159.5L167.6 170.9L164.8 173.5H160.1L165 158.1L156.5 114.4L138.3 114.2L131.3 117.5L146.1 171C146.1 171.1 146.3 171.6 146.4 172.2C146.6 172.8 146.7 173.6 146.7 174.3C146.7 174.9 146.6 175.4 146.4 175.7C146.3 175.9 146.2 176 146 176.1C145.9 176.2 145.7 176.3 145.4 176.3C144.6 176.4 143.9 176.4 143.3 176.4C142.5 176.4 141.8 176.3 141.4 176.3C141.2 176.3 141 176.2 140.9 176.2C140.8 176.2 140.8 176.2 140.8 176.2H140.6L140.4 176.3C140.3 176.4 139.6 176.8 138.8 177.2C138.4 177.4 138 177.6 137.6 177.7C137.2 177.8 136.8 177.9 136.6 177.9C136.5 177.9 136.4 177.9 136.3 177.9C136.3 177.9 136.2 177.9 136.2 177.8L135.9 178.4L135.5 178.6C135.6 178.8 135.8 179 136 179.1C136.2 179.2 136.4 179.2 136.6 179.2C137 179.2 137.5 179.1 138 178.9C139.4 178.4 141 177.4 141 177.4L140.8 177L140.7 177.4C140.7 177.4 141.8 177.7 143.5 177.7C144.1 177.7 144.9 177.7 145.7 177.6C146.1 177.6 146.4 177.4 146.7 177.3C147.1 177 147.4 176.6 147.5 176.2C147.6 175.8 147.7 175.3 147.7 174.8C147.7 173.9 147.5 173 147.4 172.3C147.2 171.6 147.1 171.1 147.1 171.1L132.4 118.3L138.5 115.4L155.8 115.6L164.1 158.4L158.9 174.6H165.1L168.4 171.6L168.8 159.8L169.3 148.2H168.9L169.3 148.3C169.3 148.3 169.8 145.5 170.4 142.5C170.7 141 171 139.4 171.2 138.2C171.4 136.9 171.6 136 171.7 135.5C171.7 135.4 171.7 135.3 171.7 135.2C171.7 134.9 171.7 134.4 171.6 133.9C171.4 132 170.8 128.8 170.3 126C170 124.6 169.8 123.3 169.6 122.2C169.5 121.7 169.4 121.2 169.4 120.9C169.3 120.6 169.3 120.3 169.3 120.2C169.3 119.9 169.2 119.7 169 119.5C168.8 119.1 168.4 118.6 168 118.2C166.7 116.8 165 115.4 165 115.4H164.9L155.5 112.4H155.4C155.4 112.4 139.1 112.4 135.4 112.4C133.4 112.4 131.1 113.3 129 114.4C128 115 127 115.6 126.2 116.3C125.4 117 124.7 117.6 124.2 118.3C123.8 118.9 123.5 119.5 123.4 120.2C123.2 120.9 123.2 121.6 123.2 122.3C123.2 124.1 123.6 125.7 123.6 125.7L135.6 155V178.6V178.7L135.9 178.4Z" fill="black"/>
<path d="M141.9 107.5V114.9H138.4C138.4 114.9 137.8 118.8 139.7 119.3C141.6 119.8 150.7 119.8 150.7 119.8C150.7 119.8 154.5 118.7 154 115.1H150.5V107.6H141.9V107.5Z" fill="#F1C280"/>
<path d="M141.9 107.5H141.5V114.4H138L137.9 114.8C137.9 114.8 137.8 115.4 137.8 116.2C137.8 116.8 137.9 117.5 138.1 118.2C138.2 118.5 138.4 118.8 138.6 119.1C138.8 119.4 139.1 119.6 139.5 119.7C139.8 119.8 140.1 119.8 140.6 119.9C142.1 120.1 144.6 120.1 146.8 120.2C148.9 120.2 150.7 120.2 150.7 120.2H150.8H150.9C150.9 120.2 151.8 119.9 152.7 119.3C153.2 119 153.6 118.5 154 117.9C154.3 117.3 154.6 116.6 154.6 115.7C154.6 115.5 154.6 115.3 154.6 115V114.6H151.1V107.1H141.6V107.5H141.9V107.9H150.1V115.4H154.1V115L153.7 115.1C153.7 115.3 153.7 115.5 153.7 115.6C153.7 116.3 153.5 116.9 153.2 117.3C152.8 118 152.1 118.5 151.6 118.8C151.3 119 151.1 119.1 150.9 119.1C150.8 119.1 150.7 119.2 150.7 119.2L150.8 119.6V119.2C150.8 119.2 150.2 119.2 149.3 119.2C148 119.2 145.9 119.2 144.1 119.1C143.2 119.1 142.3 119 141.5 119C140.8 118.9 140.2 118.9 139.9 118.8C139.7 118.8 139.6 118.7 139.4 118.5C139.2 118.3 139 117.9 139 117.5C138.9 117.1 138.9 116.6 138.9 116.2C138.9 115.9 138.9 115.5 138.9 115.3C138.9 115.2 138.9 115.1 138.9 115V114.9L138.5 114.8V115.2H142.4V107.4H141.9V107.5Z" fill="black"/>
<path d="M238.2 130.5C237.8 129.9 238.1 129 238.7 128.7L244.1 125.6C244.7 125.2 245.6 125.5 245.9 126.1C246.3 126.7 246 127.6 245.4 127.9L240 131C239.4 131.3 238.6 131.1 238.2 130.5Z" fill="#F1C280"/>
<path d="M238.2 130.5L238.6 130.3C238.5 130.2 238.5 130 238.5 129.8C238.5 129.5 238.7 129.2 239 129L244.4 125.9C244.5 125.8 244.7 125.8 244.9 125.8C245.2 125.8 245.5 126 245.7 126.3C245.8 126.4 245.8 126.6 245.8 126.8C245.8 127.1 245.6 127.4 245.3 127.6L239.9 130.7C239.8 130.8 239.6 130.8 239.4 130.8C239.1 130.8 238.8 130.6 238.6 130.3L238.2 130.5L237.8 130.7C238.1 131.3 238.7 131.6 239.3 131.6C239.6 131.6 239.9 131.5 240.2 131.4L245.6 128.3C246.2 128 246.5 127.4 246.5 126.8C246.5 126.5 246.4 126.2 246.3 125.9C246 125.3 245.4 125 244.8 125C244.5 125 244.2 125.1 243.9 125.2L238.5 128.3C237.9 128.6 237.6 129.2 237.6 129.8C237.6 130.1 237.7 130.4 237.8 130.7L238.2 130.5Z" fill="black"/>
<path d="M239.5 132.8C239.1 132.2 239.4 131.3 240 131L245.4 127.9C246 127.5 246.9 127.8 247.2 128.4C247.6 129 247.3 129.9 246.7 130.2L241.3 133.3C240.7 133.6 239.9 133.4 239.5 132.8Z" fill="#F1C280"/>
<path d="M239.5 132.8L239.9 132.6C239.8 132.5 239.8 132.3 239.8 132.1C239.8 131.8 240 131.5 240.3 131.3L245.7 128.2C245.8 128.1 246 128.1 246.2 128.1C246.5 128.1 246.8 128.3 247 128.6C247.1 128.7 247.1 128.9 247.1 129.1C247.1 129.4 246.9 129.7 246.6 129.9L241.2 133C241.1 133.1 240.9 133.1 240.7 133.1C240.4 133.1 240.1 132.9 239.9 132.6L239.5 132.8L239.1 133C239.4 133.6 240 133.9 240.6 133.9C240.9 133.9 241.2 133.8 241.5 133.7L246.9 130.6C247.5 130.3 247.8 129.7 247.8 129.1C247.8 128.8 247.7 128.5 247.6 128.2C247.3 127.6 246.7 127.3 246.1 127.3C245.8 127.3 245.5 127.4 245.2 127.5L239.8 130.6C239.2 130.9 238.9 131.5 238.9 132.1C238.9 132.4 239 132.7 239.1 133L239.5 132.8Z" fill="black"/>
<path d="M241 135.1C240.6 134.5 240.9 133.6 241.5 133.3L246.9 130.2C247.5 129.8 248.4 130.1 248.7 130.7C249.1 131.3 248.8 132.2 248.2 132.5L242.8 135.6C242.2 135.9 241.4 135.7 241 135.1Z" fill="#F1C280"/>
<path d="M241 135.1L241.4 134.9C241.3 134.8 241.3 134.6 241.3 134.4C241.3 134.1 241.5 133.8 241.8 133.6L247.2 130.5C247.3 130.4 247.5 130.4 247.7 130.4C248 130.4 248.3 130.6 248.5 130.9C248.6 131 248.6 131.2 248.6 131.4C248.6 131.7 248.4 132 248.1 132.2L242.7 135.3C242.6 135.4 242.4 135.4 242.2 135.4C241.9 135.4 241.6 135.2 241.4 134.9L241 135.1L240.6 135.3C240.9 135.9 241.5 136.2 242.1 136.2C242.4 136.2 242.7 136.1 243 136L248.4 132.9C249 132.6 249.3 132 249.3 131.4C249.3 131.1 249.2 130.8 249.1 130.5C248.8 129.9 248.2 129.6 247.6 129.6C247.3 129.6 247 129.7 246.7 129.8L241.3 132.9C240.7 133.2 240.4 133.8 240.4 134.4C240.4 134.7 240.5 135 240.6 135.3L241 135.1Z" fill="black"/>
<path d="M242.5 137.2C242.1 136.6 242.4 135.7 243 135.4L248.4 132.3C249 131.9 249.9 132.2 250.2 132.8C250.6 133.4 250.3 134.3 249.7 134.6L244.3 137.7C243.7 138.1 242.9 137.9 242.5 137.2Z" fill="#F1C280"/>
<path d="M242.5 137.2L242.9 137C242.8 136.9 242.8 136.7 242.8 136.5C242.8 136.2 243 135.9 243.3 135.7L248.7 132.6C248.8 132.5 249 132.5 249.2 132.5C249.5 132.5 249.8 132.7 250 133C250.1 133.1 250.1 133.3 250.1 133.5C250.1 133.8 249.9 134.1 249.6 134.3L244.2 137.4C244.1 137.5 243.9 137.5 243.7 137.5C243.4 137.5 243.1 137.3 242.9 137L242.5 137.2L242.1 137.4C242.4 138 243 138.3 243.6 138.3C243.9 138.3 244.2 138.2 244.5 138.1L249.9 135C250.5 134.7 250.8 134.1 250.8 133.5C250.8 133.2 250.7 132.9 250.6 132.6C250.3 132 249.7 131.7 249.1 131.7C248.8 131.7 248.5 131.8 248.2 131.9L242.8 135C242.2 135.3 241.9 135.9 241.9 136.5C241.9 136.8 242 137.1 242.1 137.4L242.5 137.2Z" fill="black"/>
<path d="M165 67.2C165 67.2 172.8 70.6 168 75.3L163.5 74.8L165 67.2Z" fill="#666666"/>
<path d="M165 67.1999L164.9 67.3999C165.1 67.4999 166.3 67.9999 167.3 68.8999C167.8 69.2999 168.3 69.7999 168.7 70.3999C169.1 70.9999 169.3 71.5999 169.3 72.1999C169.3 73.0999 168.9 74.0999 167.8 75.1999L168 75.3999V75.1999L163.7 74.6999L165.2 67.2999L165 67.1999H164.8L163.2 75.0999L168.1 75.5999L168.2 75.4999C169.4 74.3999 169.9 73.2999 169.9 72.1999C169.9 71.3999 169.6 70.6999 169.2 69.9999C167.9 68.0999 165.3 66.9999 165.3 66.9999L165.1 66.8999V67.1999H165Z" fill="black"/>
<path d="M164.6 71.7C164.6 71.7 172.4 75.1 167.6 79.8L163.1 79.3L164.6 71.7Z" fill="#666666"/>
<path d="M164.6 71.6999L164.5 71.8999C164.7 71.9999 165.9 72.4999 166.9 73.3999C167.4 73.7999 167.9 74.2999 168.3 74.8999C168.7 75.4999 168.9 76.0999 168.9 76.6999C168.9 77.5999 168.5 78.5999 167.4 79.6999L167.6 79.8999V79.6999L163.3 79.1999L164.8 71.7999L164.6 71.6999H164.4L162.8 79.5999L167.7 80.0999L167.8 79.9999C169 78.8999 169.5 77.7999 169.5 76.6999C169.5 75.8999 169.2 75.1999 168.8 74.4999C167.5 72.5999 164.9 71.4999 164.9 71.4999L164.7 71.3999V71.6999H164.6Z" fill="black"/>
<path d="M164.6 77C164.6 77 173.8 81.7 164.9 85.9L163.1 84.7L164.6 77Z" fill="#F1C280"/>
<path d="M164.6 76.9999L164.4 77.3999C164.5 77.4999 165.5 77.9999 166.5 78.7999C167 79.1999 167.5 79.6999 167.8 80.1999C168.1 80.6999 168.3 81.1999 168.3 81.7999C168.3 82.2999 168.1 82.8999 167.6 83.4999C167 84.0999 166.1 84.7999 164.7 85.4999L164.9 85.8999L165.1 85.4999L163.5 84.3999L165 76.9999H164.6L164.2 76.8999L162.6 84.7999L164.8 86.2999L165 86.1999C166.5 85.4999 167.5 84.7999 168.2 83.9999C168.9 83.2999 169.2 82.4999 169.2 81.6999C169.2 80.8999 168.9 80.1999 168.5 79.5999C167.9 78.6999 166.9 77.8999 166.2 77.3999C165.4 76.8999 164.8 76.5999 164.8 76.5999L164.3 76.3999L164.2 76.8999L164.6 76.9999Z" fill="black"/>
<path d="M164.6 78.2998C164.6 78.2998 169.6 81.6998 164.7 84.5998L163.7 83.6998L164.6 78.2998Z" fill="#C99455"/>
<path d="M127.1 67.1999V93.6999C127.1 93.6999 130.7 107.5 140.6 107.5C150.5 107.5 155.7 107.5 155.7 107.5C155.7 107.5 166.4 106.1 165.2 94.8999C164.5 86.6999 165.1 67.1999 165.1 67.1999C165.1 67.1999 143.2 68.7999 136.5 67.8999C129.8 67.0999 127.1 65.5999 127.1 65.5999V67.1999Z" fill="#F1C280"/>
<path d="M127.1 67.2H126.7V93.7C126.7 93.7 127.6 97.2 129.8 100.7C130.9 102.5 132.3 104.2 134.1 105.6C135.9 106.9 138.1 107.8 140.6 107.8C150.5 107.8 155.7 107.8 155.7 107.8C155.7 107.8 158.2 107.5 160.7 105.9C161.9 105.1 163.2 104 164.1 102.5C165 101 165.7 99 165.7 96.5C165.7 95.9 165.7 95.3 165.6 94.7C165.4 91.6 165.3 86.9 165.3 82.2C165.3 78.4 165.3 74.6 165.4 71.8C165.4 70.4 165.4 69.2 165.5 68.4C165.5 67.6 165.5 67.1 165.5 67.1V66.6H165C165 66.6 164.8 66.6 164.4 66.6C161.7 66.8 150.3 67.5 142.4 67.5C140 67.5 137.9 67.4 136.5 67.3C133.2 66.9 130.9 66.3 129.4 65.8C128.7 65.6 128.1 65.4 127.8 65.2C127.6 65.1 127.5 65.1 127.4 65H127.3L126.7 64.7V67L127.1 67.2H127.5V65.6H127.1L126.9 66C126.9 66 129.7 67.5 136.4 68.4C137.9 68.6 140 68.6 142.4 68.6C151.5 68.6 165 67.6 165 67.6V67.2H164.6C164.6 67.2 164.4 74.7 164.4 82.4C164.4 87.1 164.5 91.9 164.7 95C164.8 95.6 164.8 96.1 164.8 96.7C164.8 99 164.2 100.8 163.4 102.2C162.1 104.3 160.2 105.5 158.5 106.3C157.7 106.7 157 106.9 156.4 107C156.1 107.1 155.9 107.1 155.8 107.1C155.7 107.1 155.7 107.1 155.6 107.1L155.7 107.5V107.1C155.7 107.1 150.5 107.1 140.6 107.1C138.2 107.1 136.2 106.3 134.6 105C132.1 103.1 130.3 100.3 129.2 97.9C128.6 96.7 128.2 95.6 128 94.8C127.9 94.4 127.8 94.1 127.7 93.9C127.7 93.8 127.6 93.7 127.6 93.7V93.6L127.2 93.7H127.6V67.2H127.1Z" fill="black"/>
<path d="M118.4 79.3999L122.3 75.4999C123.1 74.6999 124.3 74.2999 125.4 74.4999C126.8 74.6999 128.6 75.2999 130 76.5999C131.5 77.9999 132.2 79.9999 132.5 81.3999C132.7 82.3999 132.4 83.3999 131.7 83.9999L127.9 87.5999C127.2 88.2999 126.1 88.5999 125.1 88.5999L121.4 88.2999C120.3 88.1999 119.3 88.4999 118.4 89.1999L115.7 91.1999L111.7 88.3999L116.1 84.4999L116.9 81.4999C117.4 80.7999 117.8 79.9999 118.4 79.3999Z" fill="#F1C280"/>
<path d="M118.4 79.4L118.7 79.7L122.6 75.8C123.2 75.2 124 74.9 124.8 74.9C125 74.9 125.1 74.9 125.3 74.9C126.6 75.1 128.4 75.7 129.7 76.9C131.1 78.2 131.8 80.2 132.1 81.5C132.1 81.7 132.2 81.8 132.2 82C132.2 82.6 131.9 83.3 131.5 83.7L127.7 87.3C127.1 87.9 126.3 88.2 125.5 88.2C125.4 88.2 125.3 88.2 125.2 88.2L121.5 87.9C121.4 87.9 121.2 87.9 121.1 87.9C120.1 87.9 119.1 88.2 118.2 88.9L115.8 90.7L112.5 88.4L116.6 84.8L117.5 81.7C117.7 80.9 118.1 80.2 118.7 79.7L118.4 79.4L118.1 79.1C117.4 79.8 116.9 80.6 116.7 81.5L115.9 84.4L111.2 88.6L115.9 91.9L118.8 89.7C119.5 89.2 120.3 88.9 121.2 88.9C121.3 88.9 121.4 88.9 121.5 88.9L125.2 89.2C125.3 89.2 125.4 89.2 125.6 89.2C126.6 89.2 127.6 88.8 128.3 88.1L132.1 84.5C132.8 83.9 133.1 83 133.1 82.2C133.1 82 133.1 81.7 133 81.5C132.7 80.1 132 78 130.3 76.5C128.8 75.1 126.9 74.5 125.4 74.3C125.2 74.3 124.9 74.2 124.7 74.2C123.6 74.2 122.6 74.6 121.9 75.4L118 79.3L118.4 79.4Z" fill="#020202"/>
<path d="M111 85.8999L118.1 90.9999L86.7 121L121.6 123.7L125 142L96.2001 136L76.5001 131.9L72.4001 127.8C72.4001 127.8 71.0001 125.8 72.4001 124.1C73.7001 122.4 111 85.8999 111 85.8999Z" fill="#F4CA1C"/>
<path d="M111 85.8999L110.8 86.1999L117.5 90.9999L85.8004 121.3L121.3 124L124.5 141.4L96.3004 135.5L76.7004 131.5L72.7004 127.5L72.4004 127.8L72.7004 127.6C72.7004 127.6 72.2004 126.8 72.2004 125.9C72.2004 125.4 72.3004 124.9 72.7004 124.4C72.7004 124.4 72.8004 124.3 72.9004 124.2C73.3004 123.7 74.2004 122.8 75.5004 121.5C80.0004 117 89.0004 108.2 96.8004 100.5C100.7 96.6999 104.3 93.0999 107 90.4999C108.3 89.1999 109.4 88.0999 110.2 87.3999C110.9 86.6999 111.4 86.2999 111.4 86.2999L111 85.8999L110.7 85.5999C110.7 85.5999 101.4 94.6999 91.9004 104.1C87.2004 108.8 82.4004 113.5 78.7004 117.2C76.9004 119 75.3004 120.6 74.1004 121.8C73.5004 122.4 73.1004 122.9 72.7004 123.2C72.5004 123.4 72.4004 123.5 72.3004 123.7C72.2004 123.8 72.1004 123.9 72.1004 124C71.6004 124.7 71.4004 125.4 71.4004 126C71.4004 127.3 72.1004 128.2 72.1004 128.2L76.3004 132.4L96.2004 136.5L125.6 142.7L122.1 123.4L87.9004 120.8L118.8 90.9999L111 85.3999L110.7 85.5999L111 85.8999Z" fill="black"/>
<path d="M132.9 75.7999C134 74.8999 135.3 74.0999 136.5 73.4999L137.3 73.0999C137.3 73.0999 139.3 71.8999 138.9 73.7999C138.5 75.6999 134.6 76.9999 134.6 76.9999C134.6 76.9999 131.8 77.4999 132.7 75.9999L132.9 75.7999Z" fill="#666666"/>
<path d="M132.9 75.7999L133 75.9999C134.1 75.0999 135.3 74.2999 136.6 73.6999L137.4 73.2999C137.5 73.2999 137.6 73.1999 137.8 73.0999C138 72.9999 138.2 72.9999 138.4 72.9999C138.5 72.9999 138.6 72.9999 138.7 73.0999C138.7 73.0999 138.8 73.2999 138.8 73.4999C138.8 73.5999 138.8 73.6999 138.8 73.8999C138.7 74.2999 138.4 74.6999 138 75.0999C137.4 75.5999 136.5 76.0999 135.8 76.3999C135.4 76.5999 135.1 76.6999 134.9 76.7999C134.8 76.7999 134.7 76.8999 134.6 76.8999C134.5 76.8999 134.5 76.8999 134.5 76.8999L134.6 77.0999V76.8999C134.6 76.8999 134.6 76.8999 134.5 76.8999C134.3 76.8999 134 76.9999 133.6 76.9999C133.4 76.9999 133.1 76.9999 132.9 76.8999C132.8 76.8999 132.8 76.7999 132.7 76.7999V76.6999C132.7 76.5999 132.7 76.4999 132.9 76.2999L132.7 76.1999L132.8 76.3999L133 75.9999L132.9 75.7999L132.8 75.5999L132.7 75.6999C132.5 75.8999 132.5 76.1999 132.5 76.3999C132.5 76.5999 132.5 76.6999 132.6 76.7999C132.7 76.9999 132.9 76.9999 133.1 77.0999C133.3 77.0999 133.5 77.1999 133.7 77.1999C134.2 77.1999 134.7 77.0999 134.7 77.0999C134.7 77.0999 135.7 76.7999 136.8 76.1999C137.3 75.8999 137.9 75.5999 138.3 75.1999C138.7 74.7999 139.1 74.2999 139.2 73.7999C139.2 73.5999 139.2 73.4999 139.2 73.2999C139.2 72.9999 139.1 72.7999 139 72.5999C138.8 72.3999 138.6 72.3999 138.4 72.3999C138.1 72.3999 137.8 72.4999 137.6 72.5999C137.4 72.6999 137.2 72.7999 137.2 72.7999L136.4 73.1999C135.1 73.8999 133.9 74.6999 132.7 75.5999L132.9 75.7999Z" fill="#020202"/>
<path d="M157.6 75.5998C156.8 74.9998 155.9 74.4998 155 73.9998L154.4 73.6998C154.4 73.6998 153 72.8998 153.2 74.1998C153.5 75.4998 156.3 76.2998 156.3 76.2998C156.3 76.2998 158.4 76.6998 157.6 75.5998Z" fill="#666666"/>
<path d="M157.6 75.5998L157.7 75.3998C156.9 74.7998 156 74.2998 155.1 73.7998L154.5 73.4998C154.5 73.4998 154.4 73.3998 154.2 73.3998C154 73.2998 153.8 73.2998 153.6 73.2998C153.5 73.2998 153.3 73.2998 153.2 73.4998C153.1 73.5998 153 73.7998 153 73.9998C153 74.0998 153 74.1998 153 74.2998C153.1 74.6998 153.3 74.9998 153.7 75.2998C154.2 75.6998 154.8 75.9998 155.3 76.2998C155.8 76.4998 156.2 76.5998 156.2 76.5998C156.2 76.5998 156.6 76.6998 156.9 76.6998C157.1 76.6998 157.3 76.6998 157.5 76.5998C157.6 76.5998 157.7 76.4998 157.8 76.3998C157.9 76.2998 157.9 76.1998 157.9 76.0998C157.9 75.8998 157.8 75.7998 157.7 75.5998L157.6 75.4998V75.5998L157.5 75.7998L157.6 75.8998V75.5998L157.5 75.7998C157.6 75.8998 157.6 75.9998 157.6 75.9998C157.6 75.9998 157.5 76.0998 157.4 76.0998C157.3 76.0998 157.2 76.0998 157 76.0998C156.8 76.0998 156.7 76.0998 156.5 76.0998C156.4 76.0998 156.4 76.0998 156.4 76.0998V76.2998L156.5 76.0998C156.5 76.0998 156.5 76.0998 156.4 76.0998C156.1 75.9998 155.5 75.7998 154.8 75.3998C154.5 75.1998 154.2 74.9998 154 74.7998C153.8 74.5998 153.6 74.3998 153.6 74.0998C153.6 73.9998 153.6 73.8998 153.6 73.8998C153.6 73.7998 153.6 73.6998 153.7 73.6998C153.7 73.6998 153.8 73.6998 153.9 73.6998C154 73.6998 154.2 73.6998 154.3 73.7998C154.4 73.7998 154.4 73.8998 154.5 73.8998L155.1 74.1998C156 74.6998 156.8 75.1998 157.6 75.7998V75.5998Z" fill="#020202"/>
<path d="M148.8 94.3C146.8 94.2 143.3 94.5 141.4 95.2C140.2 95.6 137.5 96.7 137.5 99.8C137.5 99.8 138.5 101.5 140.3 100.6C141.9 99.9 144.4 99.4 146.2 99.4C147.9 99.4 151.4 99.5 151.4 99.5C151.4 99.5 156.8 99 154.1 96.4C153.4 95.7 151.1 94.4 148.8 94.3Z" fill="#010000"/>
<path d="M148.1 97.3999C146.1 97.0999 144.1 97.1999 142.2 97.8999C141 98.2999 139.8 98.9999 139.1 99.9999C139.1 99.9999 138.9 101.2 140.4 100.7C141.9 100.1 144.5 99.4999 146.3 99.4999C148 99.4999 151.5 99.5999 151.5 99.5999C151.5 99.5999 153.5 99.4999 152 98.5999C151.1 97.9999 149.4 97.5999 148.1 97.3999Z" fill="#F8547B"/>
<path d="M142.4 87.3999C142.7 87.9999 143 88.6999 143.4 89.1999C143.8 89.7999 144.2 90.2999 144.8 90.5999C145.4 90.8999 146 90.8999 146.6 90.5999C147.2 90.3999 147.8 89.9999 148.3 89.4999C147.9 89.9999 147.3 90.4999 146.7 90.8999C146.4 91.0999 146 91.1999 145.6 91.1999C145.2 91.1999 144.8 91.0999 144.5 90.9999C143.8 90.6999 143.4 89.9999 143 89.3999C142.7 88.7999 142.5 88.0999 142.4 87.3999Z" fill="black"/>
<path d="M150.5 80.5C151.3 80.1 152.1 79.9 153 79.8C153.9 79.7 154.7 79.8 155.6 79.9C156.5 80.1 157.3 80.4 158.1 81C158.8 81.5 159.4 82.3 159.7 83.1C159 82.6 158.3 82.2 157.6 81.9C156.9 81.6 156.1 81.4 155.4 81.2C154.6 81 153.8 80.9 153 80.8C152.2 80.7 151.3 80.6 150.5 80.5Z" fill="black"/>
<path d="M133.3 81.7C133.7 81 134.3 80.4 135 79.9C135.7 79.4 136.5 79.1 137.3 78.9C137.7 78.8 138.1 78.8 138.5 78.7C138.9 78.7 139.3 78.7 139.8 78.8C140.6 78.9 141.4 79.3 142 79.8C141.2 79.8 140.4 79.7 139.7 79.8C139.3 79.8 139 79.9 138.6 79.9C138.2 80 137.9 80 137.5 80.1C136.8 80.3 136.1 80.5 135.4 80.7C134.7 81.1 134 81.4 133.3 81.7Z" fill="black"/>
<path d="M160.2 83.9998C159.9 83.7998 159.5 87.9998 161.4 89.7998C162.2 90.4998 164.9 91.2998 165.9 89.4998C167 87.6998 160.9 83.9998 160.2 83.9998Z" fill="#E0E0E0"/>
<path d="M160.2 83.9998L160.3 83.7998H160.2H160.1C160 83.7998 160 83.8998 160 83.8998C160 83.9998 159.9 83.9998 159.9 84.0998C159.8 84.3998 159.8 84.7998 159.8 85.2998C159.8 85.9998 159.9 86.7998 160.1 87.6998C160.3 88.4998 160.7 89.2998 161.3 89.8998C161.5 90.0998 161.9 90.2998 162.4 90.4998C162.8 90.6998 163.4 90.7998 163.9 90.7998C164.3 90.7998 164.8 90.6998 165.2 90.4998C165.6 90.2998 165.9 89.9998 166.2 89.5998C166.3 89.3998 166.3 89.2998 166.3 89.0998C166.3 88.4998 165.9 87.9998 165.4 87.3998C164.6 86.4998 163.5 85.6998 162.5 84.9998C162 84.6998 161.5 84.3998 161.1 84.1998C160.9 84.0998 160.7 83.9998 160.6 83.9998C160.5 83.8998 160.4 83.8998 160.2 83.8998V83.9998V84.1998C160.2 84.1998 160.2 84.1998 160.3 84.1998C160.5 84.2998 161 84.4998 161.6 84.8998C162.5 85.3998 163.5 86.1998 164.4 86.8998C164.8 87.2998 165.2 87.6998 165.4 87.9998C165.6 88.2998 165.8 88.6998 165.8 88.9998C165.8 89.0998 165.8 89.1998 165.7 89.2998C165.5 89.6998 165.2 89.8998 164.9 90.0998C164.6 90.2998 164.2 90.2998 163.8 90.2998C163.3 90.2998 162.9 90.1998 162.5 90.0998C162.1 89.9998 161.8 89.7998 161.6 89.5998C161.1 89.0998 160.7 88.3998 160.5 87.5998C160.3 86.7998 160.2 85.9998 160.2 85.3998C160.2 84.9998 160.2 84.6998 160.3 84.3998C160.3 84.2998 160.3 84.1998 160.4 84.1998L160.2 83.9998V84.1998H160.3L160.2 83.9998L160.1 84.1998H160.2V83.9998L160.1 84.1998H160.2H160.3L160.2 83.9998Z" fill="black"/>
<path d="M167 86.9999C166.8 86.8999 166.6 89.4999 167.8 90.5999C168.3 90.9999 169.9 91.4999 170.5 90.3999C171.1 89.2999 167.4 86.9999 167 86.9999Z" fill="#E0E0E0"/>
<path d="M167 86.9998L167.1 86.7998H167H166.9C166.8 86.7998 166.8 86.8998 166.8 86.8998C166.8 86.9998 166.8 86.9998 166.7 87.0998C166.7 87.2998 166.6 87.4998 166.6 87.8998C166.6 88.2998 166.6 88.8998 166.8 89.3998C166.9 89.8998 167.2 90.3998 167.6 90.7998C167.8 90.9998 168 91.0998 168.3 91.1998C168.6 91.2998 168.9 91.3998 169.2 91.3998C169.5 91.3998 169.8 91.3998 170 91.1998C170.3 91.0998 170.5 90.8998 170.6 90.5998C170.7 90.4998 170.7 90.3998 170.7 90.1998C170.7 89.7998 170.5 89.4998 170.2 89.0998C169.7 88.5998 169 87.9998 168.4 87.5998C168.1 87.3998 167.8 87.1998 167.6 87.0998C167.5 86.9998 167.4 86.9998 167.3 86.9998C167.2 86.9998 167.1 86.8998 167 86.8998V86.9998V87.1998V87.0998V86.9998C167 86.9998 167.1 86.9998 167.2 87.0998C167.6 87.2998 168.4 87.7998 169.1 88.2998C169.4 88.5998 169.7 88.8998 170 89.1998C170.2 89.4998 170.3 89.6998 170.3 89.8998C170.3 89.9998 170.3 89.9998 170.3 90.0998C170.2 90.2998 170 90.3998 169.8 90.4998C169.6 90.5998 169.4 90.5998 169.2 90.5998C168.9 90.5998 168.7 90.4998 168.4 90.4998C168.2 90.3998 168 90.2998 167.9 90.1998C167.6 89.8998 167.4 89.4998 167.2 88.9998C167.1 88.4998 167 87.9998 167 87.5998C167 87.3998 167 87.1998 167 86.9998C167 86.8998 167 86.8998 167 86.8998V86.9998V87.1998C167.1 87.1998 167.1 87.1998 167.1 87.1998L167 86.9998L166.9 87.1998H167V86.9998L166.9 87.1998H167H167.1L167 86.9998Z" fill="black"/>
<path d="M168.2 92.1998C168 92.0998 167.8 94.6998 169 95.7998C169.5 96.1998 171.1 96.6998 171.7 95.5998C172.2 94.4998 168.5 92.1998 168.2 92.1998Z" fill="#E0E0E0"/>
<path d="M168.2 92.2L168.3 92H168.2H168.1C168 92 168 92.1 168 92.1C168 92.2 168 92.2 167.9 92.3C167.9 92.5 167.8 92.7 167.8 93.1C167.8 93.5 167.8 94.1 168 94.6C168.1 95.1 168.4 95.6 168.8 96C169 96.2 169.2 96.3 169.5 96.4C169.8 96.5 170.1 96.6 170.4 96.6C170.7 96.6 171 96.6 171.2 96.4C171.5 96.3 171.7 96.1 171.8 95.8C171.9 95.7 171.9 95.6 171.9 95.4C171.9 95 171.7 94.7 171.4 94.3C170.9 93.8 170.2 93.2 169.6 92.8C169.3 92.6 169 92.4 168.8 92.3C168.7 92.2 168.6 92.2 168.5 92.2C168.4 92.2 168.3 92.1 168.2 92.1V92.2V92.4C168.2 92.4 168.3 92.4 168.4 92.5C168.8 92.7 169.6 93.2 170.3 93.7C170.6 94 170.9 94.3 171.2 94.6C171.4 94.9 171.5 95.1 171.5 95.3C171.5 95.4 171.5 95.4 171.5 95.5C171.4 95.7 171.2 95.8 171 95.9C170.8 96 170.6 96 170.4 96C170.1 96 169.9 95.9 169.6 95.9C169.4 95.8 169.2 95.7 169.1 95.6C168.8 95.3 168.6 94.9 168.4 94.4C168.3 93.9 168.2 93.4 168.2 93C168.2 92.8 168.2 92.6 168.2 92.4C168.2 92.3 168.2 92.3 168.2 92.3H168.1L168.2 92.4H168.1L168.2 92.5V92.2V92.4C168.3 92.4 168.3 92.4 168.3 92.4L168.2 92.2L168.1 92.4H168.2V92.2L168.1 92.4H168.2H168.3L168.2 92.2Z" fill="black"/>
<path d="M125.9 88.7998C126.5 88.7998 125.7 91.1998 124.9 92.0998C124.6 92.4998 123.5 92.6998 123.4 91.5998C123.2 90.5998 125.7 88.7998 125.9 88.7998Z" fill="#E0E0E0"/>
<path d="M125.9 88.7999V88.9999C125.9 88.9999 125.9 89.0999 125.9 89.1999C125.9 89.4999 125.8 89.9999 125.5 90.5999C125.3 91.0999 125 91.6999 124.7 91.9999C124.6 92.0999 124.3 92.2999 124.1 92.2999C124 92.2999 123.9 92.2999 123.8 92.1999C123.7 92.0999 123.6 91.9999 123.6 91.6999V91.5999C123.6 91.3999 123.7 91.0999 123.9 90.7999C124.2 90.3999 124.7 89.8999 125.1 89.5999C125.3 89.3999 125.5 89.2999 125.7 89.1999C125.8 89.1999 125.8 89.0999 125.9 89.0999V88.9999V88.7999L125.8 88.9999H125.9V88.7999V88.5999H125.8C125.7 88.5999 125.7 88.5999 125.6 88.5999C125.4 88.6999 125.2 88.7999 125 88.9999C124.6 89.2999 124.1 89.6999 123.7 90.0999C123.5 90.2999 123.3 90.5999 123.2 90.7999C123.1 90.9999 123 91.2999 123 91.4999V91.5999C123 91.8999 123.2 92.1999 123.4 92.2999C123.6 92.4999 123.8 92.4999 124 92.4999C124.4 92.4999 124.7 92.2999 124.9 92.0999C125.2 91.6999 125.6 91.1999 125.8 90.5999C126 89.9999 126.2 89.4999 126.2 89.0999C126.2 88.9999 126.2 88.7999 126.1 88.6999C126.1 88.5999 126 88.5999 126 88.4999C125.9 88.4999 125.9 88.3999 125.8 88.3999L125.9 88.7999Z" fill="black"/>
<path d="M161.9 52.0999C161.9 52.0999 164.1 57.0999 164.2 58.5999C164.3 59.9999 165.7 62.8999 165.7 62.8999C165.7 62.8999 166.8 64.9999 166.5 67.2999C166.5 67.2999 138.1 70.2999 127.5 65.6999C127.5 65.6999 128.6 56.2999 129.6 53.5999C130.6 50.8999 131.4 42.9999 131.4 42.9999C131.4 42.9999 133.3 37.5999 135 37.6999C136.8 37.7999 136.6 39.1999 138.1 38.5999C139.6 37.9999 140.3 36.9999 142.9 36.6999C145.4 36.4999 148.4 39.0999 149.9 38.9999C151.4 38.8999 155.4 38.8999 156.5 39.9999C157.9 41.3999 161.9 52.0999 161.9 52.0999Z" fill="#FF5621"/>
<path d="M161.9 52.0998L161.5 52.2998C161.5 52.2998 161.5 52.3998 161.6 52.4998C161.8 52.9998 162.4 54.1998 162.8 55.4998C163.1 56.0998 163.3 56.7998 163.5 57.2998C163.7 57.7998 163.8 58.2998 163.8 58.4998C163.8 58.8998 163.9 59.3998 164.1 59.8998C164.6 61.3998 165.4 62.9998 165.4 62.9998C165.4 63.0998 166.2 64.4998 166.2 66.1998C166.2 66.4998 166.2 66.7998 166.1 67.0998L166.5 67.1998V66.7998C166.5 66.7998 166.4 66.7998 166.1 66.7998C164.2 66.9998 156.2 67.6998 147.7 67.6998C143.9 67.6998 140.1 67.5998 136.6 67.1998C133.1 66.7998 130 66.1998 127.8 65.1998L127.6 65.5998H128C128 65.5998 128 65.4998 128 65.1998C128.1 64.2998 128.4 61.9998 128.8 59.5998C129 58.3998 129.2 57.1998 129.4 56.0998C129.6 55.0998 129.8 54.0998 130 53.5998C130.3 52.8998 130.5 51.8998 130.7 50.7998C131.3 47.3998 131.8 42.8998 131.8 42.8998H131.4L131.8 42.9998V42.8998C131.9 42.5998 132.4 41.2998 133 40.0998C133.3 39.4998 133.7 38.8998 134 38.4998C134.2 38.2998 134.4 38.0998 134.5 37.9998C134.7 37.8998 134.8 37.8998 134.9 37.8998C135.2 37.8998 135.4 37.9998 135.6 38.0998C135.9 38.1998 136.1 38.3998 136.3 38.5998C136.4 38.6998 136.5 38.7998 136.7 38.8998C136.9 38.9998 137.1 38.9998 137.3 38.9998C137.5 38.9998 137.8 38.8998 138.1 38.7998C138.9 38.4998 139.5 37.9998 140.1 37.6998C140.8 37.3998 141.5 37.0998 142.7 36.9998C142.8 36.9998 142.9 36.9998 143 36.9998C144.1 36.9998 145.3 37.4998 146.5 38.0998C147.1 38.3998 147.6 38.6998 148.1 38.8998C148.6 39.0998 149.1 39.2998 149.6 39.2998H149.7C150 39.2998 150.5 39.2998 151.1 39.2998C152 39.2998 153.1 39.2998 154 39.4998C154.5 39.5998 154.9 39.6998 155.2 39.7998C155.5 39.8998 155.8 40.0998 155.9 40.1998C156 40.2998 156.2 40.5998 156.5 40.9998C156.9 41.6998 157.4 42.7998 158 43.9998C158.8 45.7998 159.6 47.7998 160.2 49.3998C160.5 50.1998 160.8 50.8998 161 51.3998C161.2 51.8998 161.3 52.1998 161.3 52.1998L161.9 52.0998L162.3 51.8998C162.3 51.8998 161.3 49.1998 160.1 46.3998C159.5 44.9998 158.9 43.4998 158.3 42.2998C158 41.6998 157.7 41.1998 157.5 40.6998C157.2 40.2998 157 39.8998 156.8 39.6998C156.5 39.3998 156.1 39.1998 155.7 39.0998C155.1 38.8998 154.3 38.7998 153.5 38.6998C152.7 38.5998 151.9 38.5998 151.2 38.5998C150.6 38.5998 150.1 38.5998 149.7 38.5998C149.5 38.5998 149 38.4998 148.6 38.2998C147.9 37.9998 147 37.4998 146.1 37.0998C145.2 36.6998 144.2 36.2998 143.2 36.2998C143.1 36.2998 143 36.2998 142.9 36.2998C141.6 36.3998 140.7 36.7998 139.9 37.0998C139.2 37.4998 138.6 37.8998 138 38.1998C137.8 38.2998 137.6 38.2998 137.5 38.2998C137.4 38.2998 137.3 38.2998 137.2 38.1998C137 38.0998 136.8 37.8998 136.5 37.6998C136.2 37.4998 135.7 37.2998 135.1 37.2998H135C134.7 37.2998 134.4 37.3998 134.1 37.5998C133.6 37.8998 133.2 38.3998 132.9 38.8998C132.4 39.6998 131.9 40.6998 131.6 41.4998C131.3 42.2998 131.1 42.8998 131.1 42.8998C131.1 42.8998 131.1 42.9998 131.1 43.1998C131 43.9998 130.8 45.9998 130.5 47.9998C130.3 48.9998 130.2 50.0998 130 50.9998C129.8 51.8998 129.6 52.7998 129.4 53.2998C129.1 53.9998 128.9 55.0998 128.6 56.3998C127.9 60.1998 127.2 65.4998 127.2 65.4998V65.7998L127.5 65.8998C129.9 66.8998 133 67.5998 136.6 67.8998C140.1 68.2998 144 68.3998 147.8 68.3998C157.6 68.3998 166.7 67.3998 166.7 67.3998H167V67.0998C167.1 66.7998 167.1 66.3998 167.1 66.0998C167.1 64.0998 166.2 62.4998 166.2 62.4998C166.2 62.4998 166.2 62.4998 166.1 62.3998C166 62.0998 165.6 61.3998 165.3 60.5998C165.1 60.1998 165 59.7998 164.9 59.3998C164.8 58.9998 164.7 58.6998 164.7 58.3998C164.7 58.1998 164.6 57.8998 164.6 57.5998C164.4 56.5998 163.8 55.0998 163.3 53.8998C162.8 52.6998 162.4 51.6998 162.4 51.6998L161.9 52.0998Z" fill="black"/>
</svg>
