<svg id="sunset" xmlns="http://www.w3.org/2000/svg" width="24.729" height="19.062" viewBox="0 0 24.729 19.062">
  <g id="Group_2191" data-name="Group 2191" transform="translate(0 5.141)">
    <g id="Group_2190" data-name="Group 2190">
      <path id="Path_292" data-name="Path 292" d="M24.215,172.855H18.363a6.193,6.193,0,1,0-12,0H.515a.515.515,0,0,0,0,1.031h23.7a.515.515,0,0,0,0-1.031Zm-6.922,0H7.437a5.162,5.162,0,1,1,9.856,0Z" transform="translate(0 -165.117)" fill="#282828"/>
    </g>
  </g>
  <g id="Group_2193" data-name="Group 2193" transform="translate(1.031 10.819)">
    <g id="Group_2192" data-name="Group 2192">
      <path id="Path_293" data-name="Path 293" d="M24.942,282.672H21.851a.515.515,0,0,0,0,1.031h3.091a.515.515,0,0,0,0-1.031Z" transform="translate(-21.336 -282.672)" fill="#282828"/>
    </g>
  </g>
  <g id="Group_2195" data-name="Group 2195" transform="translate(19.578 10.819)">
    <g id="Group_2194" data-name="Group 2194">
      <path id="Path_294" data-name="Path 294" d="M408.95,282.672h-3.091a.515.515,0,0,0,0,1.031h3.091a.515.515,0,0,0,0-1.03Z" transform="translate(-405.344 -282.672)" fill="#282828"/>
    </g>
  </g>
  <g id="Group_2197" data-name="Group 2197" transform="translate(17.314 3.169)">
    <g id="Group_2196" data-name="Group 2196">
      <path id="Path_295" data-name="Path 295" d="M361.542,124.428a.515.515,0,0,0-.729,0h0l-2.185,2.185a.515.515,0,0,0,.729.729h0l2.186-2.186A.516.516,0,0,0,361.542,124.428Z" transform="translate(-358.477 -124.277)" fill="#282828"/>
    </g>
  </g>
  <g id="Group_2199" data-name="Group 2199" transform="translate(11.85)">
    <g id="Group_2198" data-name="Group 2198">
      <path id="Path_296" data-name="Path 296" d="M245.851,58.672a.515.515,0,0,0-.515.515h0v3.09a.515.515,0,1,0,1.03,0V59.187A.515.515,0,0,0,245.851,58.672Z" transform="translate(-245.336 -58.672)" fill="#282828"/>
    </g>
  </g>
  <g id="Group_2201" data-name="Group 2201" transform="translate(4.199 3.169)">
    <g id="Group_2200" data-name="Group 2200">
      <path id="Path_297" data-name="Path 297" d="M90,126.614h0l-2.186-2.185a.515.515,0,0,0-.729.729h0l2.185,2.185a.515.515,0,0,0,.729-.729Z" transform="translate(-86.939 -124.277)" fill="#282828"/>
    </g>
  </g>
  <g id="Group_2203" data-name="Group 2203" transform="translate(13.973 19.062) rotate(180)">
    <g id="Group_2202" data-name="Group 2202" transform="translate(0)">
      <path id="Path_298" data-name="Path 298" d="M3.065,1.244h0L1.973.151h0a.515.515,0,0,0-.728,0L.151,1.244a.515.515,0,1,0,.729.728h0l.213-.213V3.607a.515.515,0,0,0,1.03,0h0V1.759l.214.213a.515.515,0,1,0,.729-.728Z" fill="#282828"/>
    </g>
  </g>
</svg>
