<svg width="21" height="20" viewBox="0 0 21 20" fill="none" xmlns="http://www.w3.org/2000/svg">
<path d="M9.44725 0.147644C9.62001 0.188054 9.79794 0.213003 9.96484 0.270983C11.1793 0.692652 11.8738 1.57746 12.1345 2.83614C12.1604 2.96124 12.1993 2.99884 12.3207 2.99743C12.791 2.99181 13.2655 2.96475 13.7228 3.11269C14.9042 3.495 15.6121 4.33202 15.919 5.53483C16.3104 7.06865 16.6897 8.60564 17.0742 10.1412C17.0838 10.1802 17.0893 10.2199 17.1007 10.2797C16.9773 10.2684 16.8659 10.2533 16.7542 10.2498C16.5076 10.2417 16.26 10.2245 16.0145 10.2403C15.8717 10.2494 15.8276 10.1988 15.7962 10.072C15.4507 8.67732 15.099 7.28441 14.7535 5.88973C14.6455 5.45436 14.4638 5.06467 14.139 4.75333C13.7935 4.42197 13.3852 4.241 12.9097 4.24065C10.3014 4.23819 7.69277 4.23573 5.08449 4.24171C4.20035 4.24382 3.48207 4.86789 3.26241 5.81805C3.09103 6.55808 2.94034 7.30268 2.78103 8.04552C2.46103 9.53683 2.14517 11.0288 1.81896 12.5187C1.6931 13.0947 1.71724 13.6495 1.99724 14.1731C2.36103 14.8537 2.91 15.235 3.69276 15.2322C4.89345 15.2276 6.09449 15.2311 7.29518 15.2311C8.55932 15.2311 9.82311 15.2311 11.0873 15.2311C11.1552 15.2311 11.2231 15.2311 11.2935 15.2311C11.3366 15.644 11.3779 16.0421 11.4217 16.4638C11.3704 16.4673 11.3052 16.4754 11.2404 16.4754C8.7238 16.4761 6.20725 16.4652 3.69103 16.4796C2.04551 16.4891 0.836892 15.2248 0.586891 13.7753C0.478615 13.1484 0.563788 12.5317 0.698616 11.9147C1.16206 9.79686 1.61276 7.67621 2.06896 5.55697C2.35034 4.25049 3.31586 3.2666 4.58207 3.04908C4.99138 2.97881 5.41793 3.01078 5.83656 2.99673C5.91035 2.99427 5.98449 2.99638 6.05725 2.99638C6.11035 2.78484 6.14483 2.58138 6.21242 2.39023C6.6407 1.17863 7.43932 0.395726 8.7138 0.172593C8.72932 0.169782 8.74311 0.15678 8.75794 0.148698C8.9876 0.147644 9.21725 0.147644 9.44725 0.147644ZM10.9097 2.98829C10.7966 2.07573 9.90311 1.33183 9.00518 1.3863C8.20173 1.43514 7.34449 2.25529 7.33656 2.98829C8.52346 2.98829 9.70967 2.98829 10.9097 2.98829Z" fill="#FF5722"/>
<path d="M15.9979 19.7527C15.6707 19.6723 15.3348 19.6178 15.0179 19.5068C13.2876 18.8996 12.1307 17.1925 12.1638 15.3263C12.1727 14.8115 12.26 14.3136 12.4441 13.835C12.4679 13.7728 12.5227 13.6958 12.5793 13.6779C14.5045 13.0665 16.262 13.3915 17.8445 14.6713C17.8524 14.678 17.8558 14.6903 17.8724 14.7198C17.7238 14.7198 17.5851 14.7198 17.4327 14.7198C17.4327 14.8758 17.4327 15.0132 17.4327 15.1811C17.6034 15.1811 17.7786 15.1811 17.9541 15.1811C18.1207 15.1811 18.2872 15.1826 18.4538 15.1808C18.6576 15.1787 18.7386 15.1031 18.7414 14.8972C18.7458 14.587 18.7389 14.2767 18.7445 13.9664C18.7465 13.8557 18.7038 13.8216 18.602 13.8287C18.5117 13.835 18.4203 13.8301 18.3093 13.8301C18.3093 14.0426 18.3093 14.2373 18.3093 14.4745C16.6748 13.077 14.8496 12.641 12.7862 13.1294C12.8183 13.07 12.8383 13.0264 12.8638 12.9867C13.8386 11.4698 15.6186 10.7319 17.3631 11.1201C19.0793 11.5021 20.4038 12.9456 20.6579 14.7349C20.7396 15.3105 20.7248 15.8899 20.5845 16.4602C20.5555 16.5779 20.5155 16.6461 20.3796 16.671C18.7065 16.9764 17.201 16.6029 15.8607 15.5368C15.8303 15.5125 15.7931 15.4967 15.7593 15.4774C15.7689 15.4598 15.7789 15.4419 15.7886 15.4243C15.9279 15.4243 16.0669 15.4243 16.2172 15.4243C16.2172 15.2711 16.2172 15.1397 16.2172 14.9759C16.0617 14.9759 15.9096 14.9759 15.7579 14.9759C15.5569 14.9759 15.3558 14.9756 15.1548 14.9766C15.0041 14.9773 14.9096 15.0543 14.9058 15.2075C14.8983 15.5234 14.9031 15.8397 14.9027 16.1559C14.9027 16.2016 14.9027 16.2473 14.9027 16.3067C15.0517 16.3067 15.1858 16.3067 15.3369 16.3067C15.3369 16.1102 15.3369 15.9138 15.3369 15.6784C16.801 16.9462 18.4565 17.4276 20.3455 17.1387C20.3207 17.2041 20.3072 17.2519 20.2851 17.2951C19.5824 18.6827 18.4817 19.5054 16.9572 19.7253C16.9241 19.7302 16.892 19.7436 16.8593 19.7531C16.5727 19.7527 16.2855 19.7527 15.9979 19.7527Z" fill="#FF5722"/>
<path d="M11.9583 10.1623C11.6869 10.1623 11.4252 10.1623 11.1517 10.1623C11.1517 9.9483 11.1517 9.75327 11.1517 9.54595C11.6817 9.54595 12.2073 9.54595 12.7321 9.54595C12.9207 10.8236 12.3428 11.7323 11.0883 11.758C10.0107 11.7801 9.2738 11.0689 9.21725 9.92335C9.20139 9.60007 9.22242 9.26309 9.29587 8.9493C9.51449 8.01565 10.3338 7.48119 11.2804 7.61472C11.9628 7.711 12.4638 8.0392 12.6773 8.73881C12.6973 8.80487 12.7069 8.87445 12.7259 8.96476C12.471 8.96476 12.2317 8.96862 11.9928 8.96054C11.9573 8.95948 11.9093 8.90748 11.8914 8.86777C11.7183 8.48546 11.411 8.3305 11.0169 8.33436C10.6214 8.33858 10.331 8.5336 10.179 8.90115C9.96622 9.41524 9.96587 9.94338 10.1876 10.4532C10.4224 10.9937 11.0679 11.1919 11.5755 10.9016C11.8424 10.7488 11.9742 10.5063 11.9583 10.1623Z" fill="#FF5722"/>
<path d="M6.92028 10.0056C6.79752 10.1538 6.68097 10.2817 6.58132 10.4227C6.5458 10.4729 6.54132 10.5541 6.54028 10.6212C6.53649 10.9589 6.53856 11.2969 6.53856 11.6462C6.26408 11.6462 6.0089 11.6462 5.74304 11.6462C5.74304 10.3341 5.74304 9.0322 5.74304 7.71729C6.0058 7.71729 6.26028 7.71729 6.53959 7.71729C6.53959 8.29744 6.53959 8.87161 6.53959 9.50095C6.61442 9.41838 6.65304 9.37972 6.68718 9.33756C7.09649 8.83155 7.50235 8.32274 7.91752 7.822C7.96787 7.76121 8.0658 7.71483 8.14442 7.70991C8.38235 7.6955 8.62166 7.70464 8.90649 7.70464C8.42408 8.30165 7.96994 8.86353 7.50546 9.43805C7.99821 10.1665 8.48925 10.8925 9.00718 11.6581C8.7958 11.6581 8.61408 11.6378 8.4389 11.6627C8.13856 11.7056 7.96097 11.5854 7.80408 11.3247C7.53477 10.8766 7.22442 10.455 6.92028 10.0056Z" fill="#FF5722"/>
</svg>
