<?xml version="1.0" encoding="utf-8"?>
<!-- Generator: Adobe Illustrator 24.2.3, SVG Export Plug-In . SVG Version: 6.00 Build 0)  -->
<svg version="1.1" id="Layer_1" xmlns="http://www.w3.org/2000/svg" xmlns:xlink="http://www.w3.org/1999/xlink" x="0px" y="0px"
	 viewBox="0 0 25 25" style="enable-background:new 0 0 25 25;" xml:space="preserve">
<style type="text/css">
	.st0{fill:#F15B2F;}
	.st1{fill:#EF917C;}
	.st2{fill:#B0ACAA;}
</style>
<g>
	<path class="st0" d="M12.5,0C5.6,0,0,5.6,0,12.5C0,19.4,5.6,25,12.5,25S25,19.4,25,12.5C25,5.6,19.4,0,12.5,0z M12.5,23.61
		c-6.14,0-11.11-4.97-11.11-11.11S6.36,1.39,12.5,1.39S23.61,6.36,23.61,12.5S18.64,23.61,12.5,23.61z"/>
	<path class="st0" d="M18.34,6.54H16.5v0.48c0,0.47-0.38,0.86-0.85,0.86c-0.47,0-0.85-0.39-0.85-0.86V6.54H9.76v0.48
		c0,0.47-0.38,0.86-0.85,0.86c-0.47,0-0.85-0.39-0.85-0.86V6.54h-1.9c-0.3,0-0.53,0.24-0.53,0.53v10.31c0,0.37,0.3,0.67,0.67,0.67
		h9.4c-0.33-0.22-0.62-0.5-0.84-0.83H6.49V8.76H17.9v3.35c0.34,0.04,0.67,0.13,0.97,0.27V7.07C18.87,6.78,18.63,6.54,18.34,6.54z"/>
	<g>
		<g>
			<rect x="11.55" y="9.6" class="st1" width="0.77" height="0.77"/>
			<rect x="13.04" y="9.6" class="st1" width="0.77" height="0.77"/>
			<rect x="14.54" y="9.6" class="st1" width="0.77" height="0.77"/>
			<rect x="16.02" y="9.6" class="st1" width="0.77" height="0.77"/>
		</g>
		<g>
			<rect x="7.1" y="11.08" class="st1" width="0.77" height="0.77"/>
			<rect x="8.58" y="11.08" class="st1" width="0.77" height="0.77"/>
			<rect x="10.08" y="11.08" class="st1" width="0.77" height="0.77"/>
			<rect x="11.57" y="11.08" class="st1" width="0.77" height="0.77"/>
			<rect x="13.04" y="11.08" class="st1" width="0.77" height="0.77"/>
			<rect x="14.52" y="11.08" class="st1" width="0.77" height="0.77"/>
			<rect x="16.02" y="11.08" class="st1" width="0.77" height="0.77"/>
		</g>
		<g>
			<rect x="7.1" y="12.5" class="st1" width="0.77" height="0.77"/>
			<rect x="8.58" y="12.5" class="st1" width="0.77" height="0.77"/>
			<rect x="10.08" y="12.5" class="st1" width="0.77" height="0.77"/>
			<rect x="11.57" y="12.5" class="st1" width="0.77" height="0.77"/>
			<rect x="13.04" y="12.5" class="st1" width="0.77" height="0.77"/>
			<path class="st1" d="M15.29,12.5v0.64l-0.08-0.08c-0.07,0.07-0.14,0.14-0.2,0.21h-0.49V12.5H15.29z"/>
		</g>
		<g>
			<rect x="7.1" y="13.92" class="st1" width="0.77" height="0.77"/>
			<rect x="8.58" y="13.92" class="st1" width="0.77" height="0.77"/>
			<rect x="10.08" y="13.92" class="st1" width="0.77" height="0.77"/>
			<rect x="11.57" y="13.92" class="st1" width="0.77" height="0.77"/>
			<rect x="13.04" y="13.92" class="st1" width="0.77" height="0.77"/>
		</g>
		<g>
			<rect x="7.1" y="15.34" class="st1" width="0.77" height="0.77"/>
			<rect x="8.58" y="15.34" class="st1" width="0.77" height="0.77"/>
			<rect x="10.08" y="15.34" class="st1" width="0.77" height="0.77"/>
			<rect x="11.57" y="15.34" class="st1" width="0.77" height="0.77"/>
			<rect x="13.04" y="15.34" class="st1" width="0.77" height="0.77"/>
		</g>
	</g>
	<path class="st0" d="M17.53,11.63c-0.25,0-0.5,0.03-0.74,0.08c-0.18,0.03-0.35,0.08-0.51,0.14c-0.42,0.15-0.8,0.37-1.14,0.65h0.15
		v0.48c0.04-0.04,0.08-0.08,0.12-0.12c0.58-0.47,1.31-0.77,2.12-0.77c0.12,0,0.25,0.01,0.37,0.02v-0.46
		C17.78,11.64,17.66,11.63,17.53,11.63z M18.87,11.88c-0.3-0.12-0.63-0.2-0.97-0.23c-0.12-0.01-0.24-0.02-0.37-0.02
		c-0.25,0-0.5,0.03-0.74,0.08c-0.18,0.03-0.35,0.08-0.51,0.14c-0.42,0.15-0.8,0.37-1.14,0.65c-0.23,0.19-0.44,0.42-0.62,0.67
		c-0.45,0.61-0.71,1.36-0.71,2.17v0.01c0,0.68,0.18,1.32,0.5,1.87c0.18,0.31,0.4,0.59,0.66,0.83c0.66,0.64,1.56,1.03,2.56,1.03
		c2.06,0,3.73-1.67,3.73-3.73C21.26,13.77,20.27,12.42,18.87,11.88z M20.02,17.47c-0.06,0.08-0.13,0.15-0.2,0.2
		c-0.59,0.6-1.39,0.95-2.29,0.95c-0.68,0-1.31-0.21-1.83-0.57c-0.33-0.22-0.62-0.5-0.84-0.83c-0.37-0.53-0.59-1.17-0.59-1.87
		c0-0.79,0.28-1.51,0.74-2.08c0.06-0.07,0.13-0.14,0.2-0.21c0.02-0.02,0.05-0.05,0.08-0.08c0.04-0.04,0.08-0.08,0.12-0.12
		c0.58-0.47,1.31-0.77,2.12-0.77c0.12,0,0.25,0.01,0.37,0.02c0.34,0.04,0.67,0.13,0.97,0.27c1.14,0.5,1.93,1.65,1.93,2.97
		C20.8,16.17,20.51,16.9,20.02,17.47z"/>
	<path class="st0" d="M8.91,7.68L8.91,7.68c-0.37,0-0.67-0.3-0.67-0.67V5.79c0-0.37,0.3-0.67,0.67-0.67l0,0
		c0.37,0,0.67,0.3,0.67,0.67v1.22C9.58,7.38,9.28,7.68,8.91,7.68z"/>
	<path class="st0" d="M15.65,7.68L15.65,7.68c-0.37,0-0.67-0.3-0.67-0.67V5.79c0-0.37,0.3-0.67,0.67-0.67l0,0
		c0.37,0,0.67,0.3,0.67,0.67v1.22C16.31,7.38,16.02,7.68,15.65,7.68z"/>
	<g>
		<path class="st2" d="M17.19,14.8c-0.26-0.26-0.68-0.26-0.94,0l1.97,1.97c0.26-0.26,0.26-0.68,0-0.94L17.19,14.8z"/>
		<path class="st2" d="M18.16,14.15l-0.78,0.53l0.97,0.97l0.53-0.78L18.16,14.15z"/>
		<path class="st2" d="M18.39,13.44c-0.17,0.17-0.17,0.45,0,0.63l0.56,0.56c0.17,0.17,0.45,0.17,0.63,0L18.39,13.44z"/>
		<path class="st2" d="M15.8,17.07l1.2-1.2l0.16,0.16l-1.2,1.2L15.8,17.07z"/>
	</g>
	<polygon class="st0" points="20.12,17.57 19.92,17.77 16.75,14.6 15.29,13.14 15.21,13.06 15.06,12.91 15.26,12.71 15.29,12.74 
		15.41,12.86 20.02,17.47 	"/>
</g>
</svg>
