<?xml version="1.0" encoding="utf-8"?>
<!-- Generator: Adobe Illustrator 23.0.1, SVG Export Plug-In . SVG Version: 6.00 Build 0)  -->
<svg version="1.1" id="Layer_1" xmlns="http://www.w3.org/2000/svg" xmlns:xlink="http://www.w3.org/1999/xlink" x="0px" y="0px"
	 viewBox="0 0 90 48" style="enable-background:new 0 0 90 48;" xml:space="preserve">
<g>
	<path class="st0" d="M1,26.2c1.38-0.67,2.7-1.31,4.02-1.95c0.65-0.32,1.32-0.61,1.96-0.95c0.31-0.17,0.47-0.14,0.67,0.16
		c1.52,2.25,3.06,4.48,4.6,6.72c0.93,1.36,1.87,2.72,2.9,4.22c0.06-0.39,0.11-0.63,0.14-0.88c0.32-2.23,0.65-4.45,0.95-6.68
		c0.05-0.4,0.21-0.64,0.57-0.79c0.44-0.18,0.87-0.4,1.41-0.66c-1.01,7-2,13.91-2.99,20.82c-0.04,0.02-0.08,0.03-0.13,0.05
		C10.42,39.61,5.74,32.94,1,26.2z"/>
	<path class="st0" d="M34.58,43.09c-0.28-1.48-0.55-2.88-0.82-4.28c-0.29-1.48-0.57-2.96-0.87-4.43c-0.13-0.65-0.27-0.71-0.87-0.43
		c-0.56,0.26-1.09,0.56-1.66,0.8c-0.32,0.14-0.38,0.31-0.32,0.64c0.56,2.81,1.09,5.63,1.65,8.43c0.09,0.46,0.03,0.69-0.42,0.9
		c-1.7,0.79-3.38,1.63-5.15,2.5c-0.17-0.84-0.35-1.65-0.51-2.46c-0.55-2.81-1.08-5.63-1.64-8.44c-0.09-0.43,0.01-0.62,0.4-0.81
		c3.65-1.76,7.29-3.55,10.94-5.31c1.74-0.84,2.74-0.32,3.12,1.61c0.43,2.15,0.83,4.31,1.25,6.47c0.13,0.69,0.27,1.39,0.41,2.13
		C38.27,41.3,36.46,42.18,34.58,43.09z"/>
	<path class="st0" d="M19.19,26.64c0.03-1.46,0.84-2.32,2.02-2.9c3.55-1.75,7.11-3.48,10.68-5.19c1.7-0.81,2.49-0.41,2.88,1.42
		c0.34,1.6,0.66,3.21,0.91,4.82c0.26,1.71-0.3,2.72-1.85,3.48c-3.05,1.5-6.11,2.98-9.17,4.47c-0.67,0.32-1.33,0.67-2.02,0.93
		c-1.13,0.44-1.91,0.12-2.19-1.05C19.96,30.66,19.6,28.64,19.19,26.64z M29.57,27.87c-0.35-1.76-0.66-3.38-1-5
		c-0.07-0.34-0.33-0.44-0.65-0.28c-0.66,0.31-1.33,0.59-1.95,0.96c-0.23,0.14-0.47,0.56-0.43,0.8c0.26,1.6,0.58,3.18,0.9,4.77
		c0.07,0.35,0.3,0.52,0.66,0.34c0.65-0.31,1.32-0.6,1.95-0.97C29.29,28.35,29.42,28.05,29.57,27.87z"/>
	<path class="st0" d="M69.9,8.63c0.1,0.52,0.16,0.97,0.29,1.39c0.13,0.42-0.05,0.59-0.4,0.76c-2.38,1.14-4.75,2.31-7.12,3.46
		c-1.19,0.58-2.37,1.17-3.56,1.73c-1.81,0.85-2.62,0.44-3.01-1.51c-0.29-1.42-0.57-2.85-0.83-4.27c-0.37-2.05,0.15-3.08,2.03-4.01
		c3.37-1.65,6.75-3.3,10.13-4.93c0.35-0.17,0.72-0.33,1.09-0.41c0.82-0.19,1.45,0.09,1.68,0.9c0.38,1.38,0.65,2.79,0.92,4.19
		c0.02,0.12-0.22,0.35-0.39,0.43c-2.33,1.15-4.68,2.29-7.02,3.42c-0.37,0.18-0.73,0.36-1.1,0.54c-0.54,0.27-0.59,0.5-0.3,1.22
		c0.2,0.5,0.58,0.49,0.96,0.3c1.23-0.58,2.44-1.18,3.66-1.77C67.9,9.6,68.87,9.13,69.9,8.63z M61.7,8.65
		c0.63-0.3,1.18-0.56,1.72-0.83c1.44-0.71,1.44-0.71,1-2.28c-0.01-0.04-0.02-0.07-0.03-0.11c-0.12-0.35-0.34-0.47-0.69-0.3
		c-0.62,0.3-1.25,0.57-1.84,0.92c-0.23,0.14-0.47,0.48-0.46,0.73C61.43,7.39,61.59,7.98,61.7,8.65z"/>
	<path class="st0" d="M55.88,36.18c-0.23-1.15-0.44-2.2-0.64-3.26c-0.5-2.61-0.99-5.22-1.51-7.83c-0.07-0.37-0.01-0.56,0.35-0.73
		c3.47-1.67,6.92-3.37,10.38-5.05c0.26-0.13,0.55-0.23,0.84-0.29c0.83-0.17,1.45,0.12,1.74,0.92c0.22,0.61,0.33,1.26,0.46,1.89
		c0.17,0.78,0.33,1.57,0.45,2.35c0.26,1.59-0.39,2.8-1.84,3.52c-1.67,0.82-3.34,1.64-5.02,2.43c-0.42,0.2-0.52,0.41-0.41,0.85
		c0.18,0.74,0.31,1.49,0.43,2.25c0.02,0.14-0.04,0.4-0.15,0.45C59.3,34.53,57.63,35.33,55.88,36.18z M62.73,27.23
		c-0.3-1.52-0.57-2.92-0.86-4.32c-0.07-0.34-0.33-0.37-0.61-0.24c-0.5,0.24-1.03,0.44-1.49,0.75c-0.2,0.13-0.41,0.49-0.38,0.71
		c0.21,1.35,0.49,2.7,0.76,4.05c0.07,0.37,0.31,0.48,0.66,0.31c0.48-0.24,0.98-0.45,1.44-0.72C62.47,27.64,62.6,27.38,62.73,27.23z"
		/>
	<path class="st0" d="M69.76,18.46c-0.09-0.51-0.21-0.95-0.24-1.41c-0.01-0.13,0.2-0.32,0.36-0.4c2.07-1.02,4.14-2.03,6.22-3.04
		c0.79-0.38,1.57-0.77,2.36-1.14c0.3-0.14,0.62-0.26,0.94-0.34c0.67-0.16,1.23,0.09,1.54,0.7c0.2,0.39,0.38,0.82,0.46,1.25
		c0.36,1.73,0.68,3.47,1.02,5.2c0.05,0.26,0.05,0.43-0.24,0.57c-3.55,1.71-7.09,3.45-10.64,5.16c-1.54,0.74-2.17,0.42-2.55-1.24
		c-0.12-0.54-0.23-1.1-0.28-1.65c-0.1-1.11,0.33-1.99,1.33-2.5c1.84-0.94,3.7-1.83,5.55-2.74c0.26-0.13,0.55-0.2,0.44-0.64
		c-0.16-0.6-0.26-0.68-0.84-0.4c-1.63,0.78-3.25,1.57-4.87,2.36C70.16,18.31,69.99,18.37,69.76,18.46z M76.42,18.29
		c-0.71,0.36-1.35,0.63-1.92,0.99c-0.21,0.14-0.38,0.5-0.39,0.77c-0.02,0.38,0.11,0.77,0.18,1.15c0.08,0.41,0.34,0.51,0.7,0.34
		c0.49-0.23,0.99-0.43,1.44-0.71c0.17-0.11,0.32-0.43,0.3-0.63C76.68,19.59,76.54,18.99,76.42,18.29z"/>
	<path class="st0" d="M52.6,32.53c0.11,0.51,0.23,0.96,0.28,1.42c0.01,0.12-0.16,0.31-0.29,0.38c-2.74,1.35-5.48,2.68-8.23,4.01
		c-0.5,0.24-1,0.5-1.52,0.7c-1.04,0.4-1.71,0.13-1.97-0.94c-0.39-1.66-0.7-3.35-0.95-5.04c-0.14-0.98,0.3-1.81,1.19-2.29
		c1.13-0.61,2.29-1.17,3.44-1.73c1.99-0.97,3.98-1.94,5.97-2.91c0.15-0.07,0.3-0.14,0.46-0.2c1.13-0.4,1.75-0.1,2.04,1.07
		c0.25,0.99,0.41,2.01,0.63,3c0.07,0.3-0.04,0.42-0.29,0.55c-2.31,1.11-4.62,2.24-6.93,3.37c-0.56,0.27-0.63,0.48-0.36,1.1
		c0.23,0.53,0.61,0.39,0.98,0.21c1.64-0.79,3.28-1.59,4.92-2.39C52.15,32.74,52.35,32.65,52.6,32.53z M45.55,32.54
		c0.86-0.42,1.64-0.79,2.41-1.18c0.08-0.04,0.17-0.21,0.15-0.3c-0.06-0.42-0.14-0.84-0.24-1.25c-0.07-0.3-0.26-0.44-0.58-0.29
		c-0.55,0.27-1.12,0.51-1.64,0.82c-0.18,0.11-0.37,0.41-0.36,0.62C45.31,31.46,45.45,31.96,45.55,32.54z"/>
	<path class="st0" d="M53.66,8c0.11,0.58,0.24,1.12,0.31,1.66c0.01,0.12-0.16,0.31-0.3,0.38c-0.86,0.44-1.74,0.85-2.6,1.29
		c-0.79,0.4-0.96,0.75-0.79,1.63c0.24,1.24,0.48,2.48,0.74,3.72c0.16,0.77,0.48,0.93,1.19,0.59c0.84-0.4,1.67-0.82,2.51-1.22
		c0.16-0.08,0.33-0.14,0.54-0.24c0.13,0.65,0.24,1.23,0.36,1.86c-0.21,0.12-0.42,0.23-0.63,0.34c-2.37,1.16-4.74,2.32-7.12,3.48
		c-0.07,0.03-0.14,0.06-0.21,0.09c-1.76,0.76-2.79,0.23-3.17-1.65c-0.27-1.33-0.53-2.66-0.76-4c-0.32-1.89,0.39-3.29,2.1-4.13
		c2.48-1.23,4.98-2.43,7.47-3.65C53.39,8.11,53.49,8.07,53.66,8z"/>
	<path class="st0" d="M86.84,5.1c0.25,1.24,0.48,2.38,0.7,3.53c0.48,2.46,0.94,4.93,1.43,7.39c0.08,0.4,0,0.6-0.37,0.77
		c-1.6,0.75-3.18,1.53-4.81,2.33c-0.05-0.18-0.1-0.31-0.13-0.45c-0.68-3.5-1.36-7.01-2.02-10.51c-0.03-0.19,0.04-0.52,0.16-0.59
		C83.43,6.75,85.09,5.95,86.84,5.1z"/>
	<path class="st0" d="M37.56,26.48c-0.34-1.76-0.66-3.41-0.98-5.07c-0.28-1.42-0.56-2.85-0.81-4.27c-0.03-0.17,0.06-0.46,0.18-0.53
		c1.93-0.96,3.87-1.9,5.88-2.88c0.16,0.77,0.31,1.49,0.45,2.2c0.46,2.36,0.91,4.71,1.34,7.07c0.03,0.19-0.04,0.53-0.17,0.59
		C41.53,24.56,39.59,25.49,37.56,26.48z"/>
	<path class="st0" d="M35.53,15.74c-0.17-0.84-0.32-1.6-0.46-2.37c-0.02-0.09,0.07-0.25,0.16-0.3c1.93-0.95,3.86-1.89,5.88-2.87
		c0.16,0.83,0.32,1.6,0.45,2.38c0.01,0.09-0.09,0.25-0.19,0.29C39.45,13.83,37.52,14.77,35.53,15.74z"/>
	<path class="st0" d="M27.05,19.62c-0.08,0.15-0.13,0.36-0.26,0.43c-0.55,0.31-1.12,0.58-1.69,0.85c-0.35,0.16-0.62,0.07-0.71-0.34
		c-0.01-0.04-0.02-0.07-0.03-0.11c-0.43-1.73-0.43-1.73,1.2-2.53c0.32-0.16,0.63-0.31,0.96-0.45c0.3-0.13,0.49-0.01,0.6,0.29
		c0.29,0.8,0.25,0.94-0.5,1.32c-0.5,0.25-1.01,0.48-1.49,0.75c-0.12,0.07-0.16,0.26-0.23,0.4c0.14,0.01,0.31,0.07,0.43,0.02
		c0.28-0.1,0.53-0.26,0.8-0.39c0.25-0.12,0.5-0.23,0.76-0.35C26.93,19.55,26.99,19.59,27.05,19.62z M24.63,19.3
		c0.06,0.04,0.12,0.08,0.19,0.12c0.56-0.27,1.13-0.52,1.67-0.83c0.13-0.07,0.15-0.33,0.22-0.51c-0.05-0.03-0.11-0.06-0.16-0.1
		c-0.56,0.27-1.13,0.52-1.67,0.82C24.74,18.88,24.71,19.13,24.63,19.3z"/>
	<path class="st0" d="M21.12,40.47c-0.12,0.15-0.24,0.45-0.46,0.58c-0.62,0.36-1.29,0.66-1.94,0.97c-0.38,0.18-0.61,0.01-0.69-0.37
		c-0.09-0.42-0.17-0.84-0.25-1.26c-0.07-0.4,0.09-0.7,0.44-0.88c0.63-0.32,1.26-0.63,1.9-0.93c0.32-0.15,0.59-0.08,0.68,0.31
		C20.91,39.38,20.99,39.85,21.12,40.47z M20.28,39.05c-0.64,0.31-1.2,0.57-1.73,0.85c-0.11,0.06-0.24,0.22-0.23,0.32
		c0.05,0.43,0.15,0.85,0.24,1.34c0.65-0.31,1.2-0.56,1.73-0.85c0.12-0.07,0.23-0.29,0.22-0.43C20.48,39.9,20.38,39.52,20.28,39.05z"
		/>
	<path class="st0" d="M23.42,21.58c-0.13-0.65-0.26-1.26-0.39-1.95c-0.63,0.3-1.19,0.54-1.72,0.84c-0.12,0.07-0.22,0.33-0.2,0.49
		c0.04,0.44,0.13,0.88,0.23,1.32c0.07,0.34-0.04,0.49-0.45,0.51c-0.2-1.05-0.42-2.1-0.59-3.16c-0.02-0.12,0.19-0.28,0.37-0.53
		c0.12,0.41,0.2,0.67,0.29,0.98c0.61-0.29,1.17-0.57,1.74-0.83c0.6-0.28,0.75-0.21,0.89,0.42c0.1,0.46,0.16,0.92,0.28,1.37
		C23.97,21.4,23.82,21.54,23.42,21.58z"/>
	<path class="st0" d="M22.39,36.48c0.37,0.75-0.9,0.5-0.64,1.21c0.24-0.09,0.47-0.18,0.71-0.27c0.27,0.32,0.09,0.49-0.19,0.58
		c-0.38,0.13-0.46,0.35-0.36,0.72c0.11,0.37,0.14,0.77,0.24,1.14c0.09,0.35,0,0.53-0.44,0.59c-0.18-0.97-0.4-1.94-0.54-2.91
		C21.11,37.07,21.46,36.8,22.39,36.48z"/>
	<path class="st0" d="M18.77,20.49c0.11,0.28,0.16,0.41,0.23,0.58c0.24-0.1,0.48-0.19,0.91-0.37c-0.1,0.29-0.13,0.55-0.22,0.58
		c-0.69,0.2-0.62,0.66-0.47,1.18c0.06,0.19,0.09,0.39,0.15,0.66c0.3-0.12,0.55-0.22,0.83-0.34c0.04,0.07,0.12,0.2,0.11,0.21
		c-0.3,0.23-0.59,0.49-0.94,0.63c-0.11,0.04-0.47-0.22-0.52-0.39c-0.19-0.71-0.33-1.45-0.44-2.18
		C18.39,20.91,18.6,20.74,18.77,20.49z"/>
</g>
</svg>
